%TF.GenerationSoftware,KiCad,Pcbnew,5.1.9*%
%TF.CreationDate,2021-02-14T15:49:58+01:00*%
%TF.ProjectId,test,74657374-2e6b-4696-9361-645f70636258,rev?*%
%TF.SameCoordinates,Original*%
%TF.FileFunction,Copper,L2,Bot*%
%TF.FilePolarity,Positive*%
%FSLAX46Y46*%
G04 Gerber Fmt 4.6, Leading zero omitted, Abs format (unit mm)*
G04 Created by KiCad (PCBNEW 5.1.9) date 2021-02-14 15:49:58*
%MOMM*%
%LPD*%
G01*
G04 APERTURE LIST*
%TA.AperFunction,ComponentPad*%
%ADD10O,1.700000X1.700000*%
%TD*%
%TA.AperFunction,ComponentPad*%
%ADD11R,1.700000X1.700000*%
%TD*%
%TA.AperFunction,ComponentPad*%
%ADD12C,0.800000*%
%TD*%
%TA.AperFunction,ComponentPad*%
%ADD13C,6.000000*%
%TD*%
%TA.AperFunction,ViaPad*%
%ADD14C,1.000000*%
%TD*%
%TA.AperFunction,Conductor*%
%ADD15C,1.000000*%
%TD*%
%TA.AperFunction,Conductor*%
%ADD16C,0.300000*%
%TD*%
%TA.AperFunction,Conductor*%
%ADD17C,0.254000*%
%TD*%
%TA.AperFunction,Conductor*%
%ADD18C,0.100000*%
%TD*%
G04 APERTURE END LIST*
D10*
%TO.P,J1,6*%
%TO.N,GND*%
X38354000Y-43484800D03*
%TO.P,J1,5*%
%TO.N,Net-(J1-Pad5)*%
X35814000Y-43484800D03*
%TO.P,J1,4*%
%TO.N,Net-(H3-Pad1)*%
X38354000Y-40944800D03*
%TO.P,J1,3*%
%TO.N,Net-(J1-Pad3)*%
X35814000Y-40944800D03*
%TO.P,J1,2*%
%TO.N,+5V*%
X38354000Y-38404800D03*
D11*
%TO.P,J1,1*%
%TO.N,Net-(J1-Pad1)*%
X35814000Y-38404800D03*
%TD*%
D12*
%TO.P,H8,1*%
%TO.N,GND*%
X52644990Y-46669010D03*
X51054000Y-46010000D03*
X49463010Y-46669010D03*
X48804000Y-48260000D03*
X49463010Y-49850990D03*
X51054000Y-50510000D03*
X52644990Y-49850990D03*
X53304000Y-48260000D03*
D13*
X51054000Y-48260000D03*
%TD*%
D12*
%TO.P,H7,1*%
%TO.N,GND*%
X52644990Y-18733010D03*
X51054000Y-18074000D03*
X49463010Y-18733010D03*
X48804000Y-20324000D03*
X49463010Y-21914990D03*
X51054000Y-22574000D03*
X52644990Y-21914990D03*
X53304000Y-20324000D03*
D13*
X51054000Y-20320000D03*
%TD*%
D12*
%TO.P,H6,1*%
%TO.N,GND*%
X23368000Y-46736000D03*
X21777010Y-46076990D03*
X20186020Y-46736000D03*
X19527010Y-48326990D03*
X20186020Y-49917980D03*
X21777010Y-50576990D03*
X23368000Y-49917980D03*
X24027010Y-48326990D03*
D13*
X21777010Y-48326990D03*
%TD*%
D12*
%TO.P,H5,1*%
%TO.N,GND*%
X23501980Y-18796000D03*
X21910990Y-18136990D03*
X20320000Y-18796000D03*
X19660990Y-20386990D03*
X20320000Y-21977980D03*
X21910990Y-22636990D03*
X23501980Y-21977980D03*
X24160990Y-20386990D03*
D13*
X21910990Y-20386990D03*
%TD*%
%TO.P,H4-Pwr,1*%
%TO.N,Net-(H4-Pad1)*%
%TA.AperFunction,ComponentPad*%
G36*
G01*
X43400000Y-22390000D02*
X43400000Y-20790000D01*
G75*
G02*
X43650000Y-20540000I250000J0D01*
G01*
X45250000Y-20540000D01*
G75*
G02*
X45500000Y-20790000I0J-250000D01*
G01*
X45500000Y-22390000D01*
G75*
G02*
X45250000Y-22640000I-250000J0D01*
G01*
X43650000Y-22640000D01*
G75*
G02*
X43400000Y-22390000I0J250000D01*
G01*
G37*
%TD.AperFunction*%
%TD*%
%TO.P,H3-Off,1*%
%TO.N,Net-(H3-Pad1)*%
%TA.AperFunction,ComponentPad*%
G36*
G01*
X38320000Y-22390000D02*
X38320000Y-20790000D01*
G75*
G02*
X38570000Y-20540000I250000J0D01*
G01*
X40170000Y-20540000D01*
G75*
G02*
X40420000Y-20790000I0J-250000D01*
G01*
X40420000Y-22390000D01*
G75*
G02*
X40170000Y-22640000I-250000J0D01*
G01*
X38570000Y-22640000D01*
G75*
G02*
X38320000Y-22390000I0J250000D01*
G01*
G37*
%TD.AperFunction*%
%TD*%
%TO.P,H2-GND,1*%
%TO.N,GND*%
%TA.AperFunction,ComponentPad*%
G36*
G01*
X28160000Y-22390000D02*
X28160000Y-20790000D01*
G75*
G02*
X28410000Y-20540000I250000J0D01*
G01*
X30010000Y-20540000D01*
G75*
G02*
X30260000Y-20790000I0J-250000D01*
G01*
X30260000Y-22390000D01*
G75*
G02*
X30010000Y-22640000I-250000J0D01*
G01*
X28410000Y-22640000D01*
G75*
G02*
X28160000Y-22390000I0J250000D01*
G01*
G37*
%TD.AperFunction*%
%TD*%
%TO.P,H1-VCC,1*%
%TO.N,Net-(C1-Pad1)*%
%TA.AperFunction,ComponentPad*%
G36*
G01*
X33240000Y-22390000D02*
X33240000Y-20790000D01*
G75*
G02*
X33490000Y-20540000I250000J0D01*
G01*
X35090000Y-20540000D01*
G75*
G02*
X35340000Y-20790000I0J-250000D01*
G01*
X35340000Y-22390000D01*
G75*
G02*
X35090000Y-22640000I-250000J0D01*
G01*
X33490000Y-22640000D01*
G75*
G02*
X33240000Y-22390000I0J250000D01*
G01*
G37*
%TD.AperFunction*%
%TD*%
D14*
%TO.N,+5V*%
X41656000Y-40386000D03*
%TO.N,Net-(J1-Pad1)*%
X33782000Y-41921800D03*
%TD*%
D15*
%TO.N,+5V*%
X38354000Y-38404800D02*
X38658800Y-38404800D01*
X38354000Y-38404800D02*
X39674800Y-38404800D01*
X39674800Y-38404800D02*
X41656000Y-40386000D01*
D16*
%TO.N,Net-(J1-Pad1)*%
X33782000Y-40436800D02*
X35814000Y-38404800D01*
X33782000Y-41921800D02*
X33782000Y-40436800D01*
%TD*%
D17*
%TO.N,GND*%
X48674919Y-17761314D02*
X48936578Y-18022973D01*
X48936174Y-18026569D01*
X49463010Y-18553405D01*
X49465010Y-18551405D01*
X49644615Y-18731010D01*
X49642615Y-18733010D01*
X50169451Y-19259846D01*
X50173047Y-19259442D01*
X51054000Y-20140395D01*
X51068143Y-20126253D01*
X51247748Y-20305858D01*
X51233605Y-20320000D01*
X52118558Y-21204953D01*
X52118154Y-21208549D01*
X52644990Y-21735385D01*
X52646990Y-21733385D01*
X52826595Y-21912990D01*
X52824595Y-21914990D01*
X53351431Y-22441826D01*
X53355027Y-22441422D01*
X53612686Y-22699081D01*
X53949303Y-22457882D01*
X53941580Y-46116585D01*
X53612686Y-45880919D01*
X51233605Y-48260000D01*
X51247748Y-48274143D01*
X51068143Y-48453748D01*
X51054000Y-48439605D01*
X48674919Y-50818686D01*
X48916617Y-51156000D01*
X23962393Y-51156000D01*
X24156091Y-50885676D01*
X21777010Y-48506595D01*
X21762868Y-48520738D01*
X21583263Y-48341133D01*
X21597405Y-48326990D01*
X21956615Y-48326990D01*
X24335696Y-50706071D01*
X24804878Y-50369884D01*
X25145247Y-49739922D01*
X25356176Y-49055663D01*
X25429560Y-48343401D01*
X25420183Y-48243589D01*
X47401450Y-48243589D01*
X47468431Y-48956482D01*
X47673204Y-49642609D01*
X48007898Y-50275603D01*
X48026132Y-50302894D01*
X48495314Y-50639081D01*
X50874395Y-48260000D01*
X48495314Y-45880919D01*
X48026132Y-46217106D01*
X47685763Y-46847068D01*
X47474834Y-47531327D01*
X47401450Y-48243589D01*
X25420183Y-48243589D01*
X25362579Y-47630508D01*
X25157806Y-46944381D01*
X24823112Y-46311387D01*
X24804878Y-46284096D01*
X24335696Y-45947909D01*
X21956615Y-48326990D01*
X21597405Y-48326990D01*
X19218324Y-45947909D01*
X18948000Y-46141607D01*
X18948000Y-45768304D01*
X19397929Y-45768304D01*
X21777010Y-48147385D01*
X24156091Y-45768304D01*
X24108091Y-45701314D01*
X48674919Y-45701314D01*
X51054000Y-48080395D01*
X53433081Y-45701314D01*
X53096894Y-45232132D01*
X52466932Y-44891763D01*
X51782673Y-44680834D01*
X51070411Y-44607450D01*
X50357518Y-44674431D01*
X49671391Y-44879204D01*
X49038397Y-45213898D01*
X49011106Y-45232132D01*
X48674919Y-45701314D01*
X24108091Y-45701314D01*
X23819904Y-45299122D01*
X23189942Y-44958753D01*
X22505683Y-44747824D01*
X21793421Y-44674440D01*
X21080528Y-44741421D01*
X20394401Y-44946194D01*
X19761407Y-45280888D01*
X19734116Y-45299122D01*
X19397929Y-45768304D01*
X18948000Y-45768304D01*
X18948000Y-41810012D01*
X32647000Y-41810012D01*
X32647000Y-42033588D01*
X32690617Y-42252867D01*
X32776176Y-42459424D01*
X32900388Y-42645320D01*
X33058480Y-42803412D01*
X33244376Y-42927624D01*
X33450933Y-43013183D01*
X33670212Y-43056800D01*
X33893788Y-43056800D01*
X34113067Y-43013183D01*
X34319624Y-42927624D01*
X34482523Y-42818778D01*
X34386068Y-43051642D01*
X34329000Y-43338540D01*
X34329000Y-43631060D01*
X34386068Y-43917958D01*
X34498010Y-44188211D01*
X34660525Y-44431432D01*
X34867368Y-44638275D01*
X35110589Y-44800790D01*
X35380842Y-44912732D01*
X35667740Y-44969800D01*
X35960260Y-44969800D01*
X36247158Y-44912732D01*
X36517411Y-44800790D01*
X36760632Y-44638275D01*
X36967475Y-44431432D01*
X37085100Y-44255394D01*
X37256412Y-44485069D01*
X37472645Y-44679978D01*
X37722748Y-44828957D01*
X37997109Y-44926281D01*
X38227000Y-44805614D01*
X38227000Y-43611800D01*
X38481000Y-43611800D01*
X38481000Y-44805614D01*
X38710891Y-44926281D01*
X38985252Y-44828957D01*
X39235355Y-44679978D01*
X39451588Y-44485069D01*
X39625641Y-44251720D01*
X39750825Y-43988899D01*
X39795476Y-43841690D01*
X39674155Y-43611800D01*
X38481000Y-43611800D01*
X38227000Y-43611800D01*
X38207000Y-43611800D01*
X38207000Y-43357800D01*
X38227000Y-43357800D01*
X38227000Y-43337800D01*
X38481000Y-43337800D01*
X38481000Y-43357800D01*
X39674155Y-43357800D01*
X39795476Y-43127910D01*
X39750825Y-42980701D01*
X39625641Y-42717880D01*
X39451588Y-42484531D01*
X39235355Y-42289622D01*
X39118466Y-42219995D01*
X39300632Y-42098275D01*
X39507475Y-41891432D01*
X39669990Y-41648211D01*
X39781932Y-41377958D01*
X39839000Y-41091060D01*
X39839000Y-40798540D01*
X39781932Y-40511642D01*
X39669990Y-40241389D01*
X39507475Y-39998168D01*
X39300632Y-39791325D01*
X39126240Y-39674800D01*
X39254181Y-39589312D01*
X40774388Y-41109520D01*
X40932480Y-41267612D01*
X40979074Y-41298745D01*
X41022377Y-41334283D01*
X41071780Y-41360690D01*
X41118376Y-41391824D01*
X41170151Y-41413270D01*
X41219553Y-41439676D01*
X41273158Y-41455937D01*
X41324933Y-41477383D01*
X41379894Y-41488315D01*
X41433501Y-41504577D01*
X41489253Y-41510068D01*
X41544212Y-41521000D01*
X41600248Y-41521000D01*
X41656000Y-41526491D01*
X41711751Y-41521000D01*
X41767788Y-41521000D01*
X41822748Y-41510068D01*
X41878498Y-41504577D01*
X41932103Y-41488316D01*
X41987067Y-41477383D01*
X42038845Y-41455936D01*
X42092446Y-41439676D01*
X42141845Y-41413272D01*
X42193624Y-41391824D01*
X42240224Y-41360687D01*
X42289622Y-41334283D01*
X42332920Y-41298749D01*
X42379520Y-41267612D01*
X42419151Y-41227981D01*
X42462448Y-41192448D01*
X42497981Y-41149151D01*
X42537612Y-41109520D01*
X42568749Y-41062920D01*
X42604283Y-41019622D01*
X42630687Y-40970224D01*
X42661824Y-40923624D01*
X42683272Y-40871845D01*
X42709676Y-40822446D01*
X42725936Y-40768845D01*
X42747383Y-40717067D01*
X42758316Y-40662103D01*
X42774577Y-40608498D01*
X42780068Y-40552748D01*
X42791000Y-40497788D01*
X42791000Y-40441751D01*
X42796491Y-40386000D01*
X42791000Y-40330248D01*
X42791000Y-40274212D01*
X42780068Y-40219253D01*
X42774577Y-40163501D01*
X42758315Y-40109894D01*
X42747383Y-40054933D01*
X42725937Y-40003158D01*
X42709676Y-39949553D01*
X42683270Y-39900151D01*
X42661824Y-39848376D01*
X42630690Y-39801780D01*
X42604283Y-39752377D01*
X42568745Y-39709074D01*
X42537612Y-39662480D01*
X42379520Y-39504388D01*
X40516796Y-37641665D01*
X40481249Y-37598351D01*
X40308423Y-37456516D01*
X40111247Y-37351124D01*
X39897299Y-37286223D01*
X39730552Y-37269800D01*
X39730551Y-37269800D01*
X39674800Y-37264309D01*
X39619049Y-37269800D01*
X39319107Y-37269800D01*
X39300632Y-37251325D01*
X39057411Y-37088810D01*
X38787158Y-36976868D01*
X38500260Y-36919800D01*
X38207740Y-36919800D01*
X37920842Y-36976868D01*
X37650589Y-37088810D01*
X37407368Y-37251325D01*
X37275513Y-37383180D01*
X37253502Y-37310620D01*
X37194537Y-37200306D01*
X37115185Y-37103615D01*
X37018494Y-37024263D01*
X36908180Y-36965298D01*
X36788482Y-36928988D01*
X36664000Y-36916728D01*
X34964000Y-36916728D01*
X34839518Y-36928988D01*
X34719820Y-36965298D01*
X34609506Y-37024263D01*
X34512815Y-37103615D01*
X34433463Y-37200306D01*
X34374498Y-37310620D01*
X34338188Y-37430318D01*
X34325928Y-37554800D01*
X34325928Y-38782714D01*
X33254185Y-39854458D01*
X33224237Y-39879036D01*
X33199659Y-39908984D01*
X33199655Y-39908988D01*
X33166690Y-39949156D01*
X33126139Y-39998567D01*
X33096011Y-40054933D01*
X33053246Y-40134941D01*
X33008359Y-40282914D01*
X32993203Y-40436800D01*
X32997001Y-40475362D01*
X32997001Y-41101667D01*
X32900388Y-41198280D01*
X32776176Y-41384176D01*
X32690617Y-41590733D01*
X32647000Y-41810012D01*
X18948000Y-41810012D01*
X18948000Y-22945676D01*
X19531909Y-22945676D01*
X19868096Y-23414858D01*
X20498058Y-23755227D01*
X21182317Y-23966156D01*
X21894579Y-24039540D01*
X22607472Y-23972559D01*
X23293599Y-23767786D01*
X23926593Y-23433092D01*
X23953884Y-23414858D01*
X24290071Y-22945676D01*
X21910990Y-20566595D01*
X19531909Y-22945676D01*
X18948000Y-22945676D01*
X18948000Y-22476372D01*
X19352304Y-22766071D01*
X21731385Y-20386990D01*
X22090595Y-20386990D01*
X24469676Y-22766071D01*
X24645620Y-22640000D01*
X27521928Y-22640000D01*
X27534188Y-22764482D01*
X27570498Y-22884180D01*
X27629463Y-22994494D01*
X27708815Y-23091185D01*
X27805506Y-23170537D01*
X27915820Y-23229502D01*
X28035518Y-23265812D01*
X28160000Y-23278072D01*
X28924250Y-23275000D01*
X29083000Y-23116250D01*
X29083000Y-21717000D01*
X29337000Y-21717000D01*
X29337000Y-23116250D01*
X29495750Y-23275000D01*
X30260000Y-23278072D01*
X30384482Y-23265812D01*
X30504180Y-23229502D01*
X30614494Y-23170537D01*
X30711185Y-23091185D01*
X30790537Y-22994494D01*
X30849502Y-22884180D01*
X30885812Y-22764482D01*
X30898072Y-22640000D01*
X30895000Y-21875750D01*
X30736250Y-21717000D01*
X29337000Y-21717000D01*
X29083000Y-21717000D01*
X27683750Y-21717000D01*
X27525000Y-21875750D01*
X27521928Y-22640000D01*
X24645620Y-22640000D01*
X24938858Y-22429884D01*
X25279227Y-21799922D01*
X25490156Y-21115663D01*
X25549466Y-20540000D01*
X27521928Y-20540000D01*
X27525000Y-21304250D01*
X27683750Y-21463000D01*
X29083000Y-21463000D01*
X29083000Y-20063750D01*
X29337000Y-20063750D01*
X29337000Y-21463000D01*
X30736250Y-21463000D01*
X30895000Y-21304250D01*
X30897067Y-20790000D01*
X32601928Y-20790000D01*
X32601928Y-22390000D01*
X32618992Y-22563254D01*
X32669528Y-22729850D01*
X32751595Y-22883386D01*
X32862038Y-23017962D01*
X32996614Y-23128405D01*
X33150150Y-23210472D01*
X33316746Y-23261008D01*
X33490000Y-23278072D01*
X35090000Y-23278072D01*
X35263254Y-23261008D01*
X35429850Y-23210472D01*
X35583386Y-23128405D01*
X35717962Y-23017962D01*
X35828405Y-22883386D01*
X35910472Y-22729850D01*
X35961008Y-22563254D01*
X35978072Y-22390000D01*
X35978072Y-20790000D01*
X37681928Y-20790000D01*
X37681928Y-22390000D01*
X37698992Y-22563254D01*
X37749528Y-22729850D01*
X37831595Y-22883386D01*
X37942038Y-23017962D01*
X38076614Y-23128405D01*
X38230150Y-23210472D01*
X38396746Y-23261008D01*
X38570000Y-23278072D01*
X40170000Y-23278072D01*
X40343254Y-23261008D01*
X40509850Y-23210472D01*
X40663386Y-23128405D01*
X40797962Y-23017962D01*
X40908405Y-22883386D01*
X40990472Y-22729850D01*
X41041008Y-22563254D01*
X41058072Y-22390000D01*
X41058072Y-20790000D01*
X42761928Y-20790000D01*
X42761928Y-22390000D01*
X42778992Y-22563254D01*
X42829528Y-22729850D01*
X42911595Y-22883386D01*
X43022038Y-23017962D01*
X43156614Y-23128405D01*
X43310150Y-23210472D01*
X43476746Y-23261008D01*
X43650000Y-23278072D01*
X45250000Y-23278072D01*
X45423254Y-23261008D01*
X45589850Y-23210472D01*
X45743386Y-23128405D01*
X45877962Y-23017962D01*
X45988405Y-22883386D01*
X45990917Y-22878686D01*
X48674919Y-22878686D01*
X49011106Y-23347868D01*
X49641068Y-23688237D01*
X50325327Y-23899166D01*
X51037589Y-23972550D01*
X51750482Y-23905569D01*
X52436609Y-23700796D01*
X53069603Y-23366102D01*
X53096894Y-23347868D01*
X53433081Y-22878686D01*
X51054000Y-20499605D01*
X48674919Y-22878686D01*
X45990917Y-22878686D01*
X46070472Y-22729850D01*
X46121008Y-22563254D01*
X46138072Y-22390000D01*
X46138072Y-20790000D01*
X46121008Y-20616746D01*
X46070472Y-20450150D01*
X45992134Y-20303589D01*
X47401450Y-20303589D01*
X47468431Y-21016482D01*
X47673204Y-21702609D01*
X48007898Y-22335603D01*
X48026132Y-22362894D01*
X48495314Y-22699081D01*
X48752973Y-22441422D01*
X48756569Y-22441826D01*
X49283405Y-21914990D01*
X49281405Y-21912990D01*
X49461010Y-21733385D01*
X49463010Y-21735385D01*
X49989846Y-21208549D01*
X49989442Y-21204953D01*
X50874395Y-20320000D01*
X48495314Y-17940919D01*
X48026132Y-18277106D01*
X47685763Y-18907068D01*
X47474834Y-19591327D01*
X47401450Y-20303589D01*
X45992134Y-20303589D01*
X45988405Y-20296614D01*
X45877962Y-20162038D01*
X45743386Y-20051595D01*
X45589850Y-19969528D01*
X45423254Y-19918992D01*
X45250000Y-19901928D01*
X43650000Y-19901928D01*
X43476746Y-19918992D01*
X43310150Y-19969528D01*
X43156614Y-20051595D01*
X43022038Y-20162038D01*
X42911595Y-20296614D01*
X42829528Y-20450150D01*
X42778992Y-20616746D01*
X42761928Y-20790000D01*
X41058072Y-20790000D01*
X41041008Y-20616746D01*
X40990472Y-20450150D01*
X40908405Y-20296614D01*
X40797962Y-20162038D01*
X40663386Y-20051595D01*
X40509850Y-19969528D01*
X40343254Y-19918992D01*
X40170000Y-19901928D01*
X38570000Y-19901928D01*
X38396746Y-19918992D01*
X38230150Y-19969528D01*
X38076614Y-20051595D01*
X37942038Y-20162038D01*
X37831595Y-20296614D01*
X37749528Y-20450150D01*
X37698992Y-20616746D01*
X37681928Y-20790000D01*
X35978072Y-20790000D01*
X35961008Y-20616746D01*
X35910472Y-20450150D01*
X35828405Y-20296614D01*
X35717962Y-20162038D01*
X35583386Y-20051595D01*
X35429850Y-19969528D01*
X35263254Y-19918992D01*
X35090000Y-19901928D01*
X33490000Y-19901928D01*
X33316746Y-19918992D01*
X33150150Y-19969528D01*
X32996614Y-20051595D01*
X32862038Y-20162038D01*
X32751595Y-20296614D01*
X32669528Y-20450150D01*
X32618992Y-20616746D01*
X32601928Y-20790000D01*
X30897067Y-20790000D01*
X30898072Y-20540000D01*
X30885812Y-20415518D01*
X30849502Y-20295820D01*
X30790537Y-20185506D01*
X30711185Y-20088815D01*
X30614494Y-20009463D01*
X30504180Y-19950498D01*
X30384482Y-19914188D01*
X30260000Y-19901928D01*
X29495750Y-19905000D01*
X29337000Y-20063750D01*
X29083000Y-20063750D01*
X28924250Y-19905000D01*
X28160000Y-19901928D01*
X28035518Y-19914188D01*
X27915820Y-19950498D01*
X27805506Y-20009463D01*
X27708815Y-20088815D01*
X27629463Y-20185506D01*
X27570498Y-20295820D01*
X27534188Y-20415518D01*
X27521928Y-20540000D01*
X25549466Y-20540000D01*
X25563540Y-20403401D01*
X25496559Y-19690508D01*
X25291786Y-19004381D01*
X24957092Y-18371387D01*
X24938858Y-18344096D01*
X24469676Y-18007909D01*
X22090595Y-20386990D01*
X21731385Y-20386990D01*
X21717243Y-20372848D01*
X21896848Y-20193243D01*
X21910990Y-20207385D01*
X24290071Y-17828304D01*
X24000372Y-17424000D01*
X48916617Y-17424000D01*
X48674919Y-17761314D01*
%TA.AperFunction,Conductor*%
D18*
G36*
X48674919Y-17761314D02*
G01*
X48936578Y-18022973D01*
X48936174Y-18026569D01*
X49463010Y-18553405D01*
X49465010Y-18551405D01*
X49644615Y-18731010D01*
X49642615Y-18733010D01*
X50169451Y-19259846D01*
X50173047Y-19259442D01*
X51054000Y-20140395D01*
X51068143Y-20126253D01*
X51247748Y-20305858D01*
X51233605Y-20320000D01*
X52118558Y-21204953D01*
X52118154Y-21208549D01*
X52644990Y-21735385D01*
X52646990Y-21733385D01*
X52826595Y-21912990D01*
X52824595Y-21914990D01*
X53351431Y-22441826D01*
X53355027Y-22441422D01*
X53612686Y-22699081D01*
X53949303Y-22457882D01*
X53941580Y-46116585D01*
X53612686Y-45880919D01*
X51233605Y-48260000D01*
X51247748Y-48274143D01*
X51068143Y-48453748D01*
X51054000Y-48439605D01*
X48674919Y-50818686D01*
X48916617Y-51156000D01*
X23962393Y-51156000D01*
X24156091Y-50885676D01*
X21777010Y-48506595D01*
X21762868Y-48520738D01*
X21583263Y-48341133D01*
X21597405Y-48326990D01*
X21956615Y-48326990D01*
X24335696Y-50706071D01*
X24804878Y-50369884D01*
X25145247Y-49739922D01*
X25356176Y-49055663D01*
X25429560Y-48343401D01*
X25420183Y-48243589D01*
X47401450Y-48243589D01*
X47468431Y-48956482D01*
X47673204Y-49642609D01*
X48007898Y-50275603D01*
X48026132Y-50302894D01*
X48495314Y-50639081D01*
X50874395Y-48260000D01*
X48495314Y-45880919D01*
X48026132Y-46217106D01*
X47685763Y-46847068D01*
X47474834Y-47531327D01*
X47401450Y-48243589D01*
X25420183Y-48243589D01*
X25362579Y-47630508D01*
X25157806Y-46944381D01*
X24823112Y-46311387D01*
X24804878Y-46284096D01*
X24335696Y-45947909D01*
X21956615Y-48326990D01*
X21597405Y-48326990D01*
X19218324Y-45947909D01*
X18948000Y-46141607D01*
X18948000Y-45768304D01*
X19397929Y-45768304D01*
X21777010Y-48147385D01*
X24156091Y-45768304D01*
X24108091Y-45701314D01*
X48674919Y-45701314D01*
X51054000Y-48080395D01*
X53433081Y-45701314D01*
X53096894Y-45232132D01*
X52466932Y-44891763D01*
X51782673Y-44680834D01*
X51070411Y-44607450D01*
X50357518Y-44674431D01*
X49671391Y-44879204D01*
X49038397Y-45213898D01*
X49011106Y-45232132D01*
X48674919Y-45701314D01*
X24108091Y-45701314D01*
X23819904Y-45299122D01*
X23189942Y-44958753D01*
X22505683Y-44747824D01*
X21793421Y-44674440D01*
X21080528Y-44741421D01*
X20394401Y-44946194D01*
X19761407Y-45280888D01*
X19734116Y-45299122D01*
X19397929Y-45768304D01*
X18948000Y-45768304D01*
X18948000Y-41810012D01*
X32647000Y-41810012D01*
X32647000Y-42033588D01*
X32690617Y-42252867D01*
X32776176Y-42459424D01*
X32900388Y-42645320D01*
X33058480Y-42803412D01*
X33244376Y-42927624D01*
X33450933Y-43013183D01*
X33670212Y-43056800D01*
X33893788Y-43056800D01*
X34113067Y-43013183D01*
X34319624Y-42927624D01*
X34482523Y-42818778D01*
X34386068Y-43051642D01*
X34329000Y-43338540D01*
X34329000Y-43631060D01*
X34386068Y-43917958D01*
X34498010Y-44188211D01*
X34660525Y-44431432D01*
X34867368Y-44638275D01*
X35110589Y-44800790D01*
X35380842Y-44912732D01*
X35667740Y-44969800D01*
X35960260Y-44969800D01*
X36247158Y-44912732D01*
X36517411Y-44800790D01*
X36760632Y-44638275D01*
X36967475Y-44431432D01*
X37085100Y-44255394D01*
X37256412Y-44485069D01*
X37472645Y-44679978D01*
X37722748Y-44828957D01*
X37997109Y-44926281D01*
X38227000Y-44805614D01*
X38227000Y-43611800D01*
X38481000Y-43611800D01*
X38481000Y-44805614D01*
X38710891Y-44926281D01*
X38985252Y-44828957D01*
X39235355Y-44679978D01*
X39451588Y-44485069D01*
X39625641Y-44251720D01*
X39750825Y-43988899D01*
X39795476Y-43841690D01*
X39674155Y-43611800D01*
X38481000Y-43611800D01*
X38227000Y-43611800D01*
X38207000Y-43611800D01*
X38207000Y-43357800D01*
X38227000Y-43357800D01*
X38227000Y-43337800D01*
X38481000Y-43337800D01*
X38481000Y-43357800D01*
X39674155Y-43357800D01*
X39795476Y-43127910D01*
X39750825Y-42980701D01*
X39625641Y-42717880D01*
X39451588Y-42484531D01*
X39235355Y-42289622D01*
X39118466Y-42219995D01*
X39300632Y-42098275D01*
X39507475Y-41891432D01*
X39669990Y-41648211D01*
X39781932Y-41377958D01*
X39839000Y-41091060D01*
X39839000Y-40798540D01*
X39781932Y-40511642D01*
X39669990Y-40241389D01*
X39507475Y-39998168D01*
X39300632Y-39791325D01*
X39126240Y-39674800D01*
X39254181Y-39589312D01*
X40774388Y-41109520D01*
X40932480Y-41267612D01*
X40979074Y-41298745D01*
X41022377Y-41334283D01*
X41071780Y-41360690D01*
X41118376Y-41391824D01*
X41170151Y-41413270D01*
X41219553Y-41439676D01*
X41273158Y-41455937D01*
X41324933Y-41477383D01*
X41379894Y-41488315D01*
X41433501Y-41504577D01*
X41489253Y-41510068D01*
X41544212Y-41521000D01*
X41600248Y-41521000D01*
X41656000Y-41526491D01*
X41711751Y-41521000D01*
X41767788Y-41521000D01*
X41822748Y-41510068D01*
X41878498Y-41504577D01*
X41932103Y-41488316D01*
X41987067Y-41477383D01*
X42038845Y-41455936D01*
X42092446Y-41439676D01*
X42141845Y-41413272D01*
X42193624Y-41391824D01*
X42240224Y-41360687D01*
X42289622Y-41334283D01*
X42332920Y-41298749D01*
X42379520Y-41267612D01*
X42419151Y-41227981D01*
X42462448Y-41192448D01*
X42497981Y-41149151D01*
X42537612Y-41109520D01*
X42568749Y-41062920D01*
X42604283Y-41019622D01*
X42630687Y-40970224D01*
X42661824Y-40923624D01*
X42683272Y-40871845D01*
X42709676Y-40822446D01*
X42725936Y-40768845D01*
X42747383Y-40717067D01*
X42758316Y-40662103D01*
X42774577Y-40608498D01*
X42780068Y-40552748D01*
X42791000Y-40497788D01*
X42791000Y-40441751D01*
X42796491Y-40386000D01*
X42791000Y-40330248D01*
X42791000Y-40274212D01*
X42780068Y-40219253D01*
X42774577Y-40163501D01*
X42758315Y-40109894D01*
X42747383Y-40054933D01*
X42725937Y-40003158D01*
X42709676Y-39949553D01*
X42683270Y-39900151D01*
X42661824Y-39848376D01*
X42630690Y-39801780D01*
X42604283Y-39752377D01*
X42568745Y-39709074D01*
X42537612Y-39662480D01*
X42379520Y-39504388D01*
X40516796Y-37641665D01*
X40481249Y-37598351D01*
X40308423Y-37456516D01*
X40111247Y-37351124D01*
X39897299Y-37286223D01*
X39730552Y-37269800D01*
X39730551Y-37269800D01*
X39674800Y-37264309D01*
X39619049Y-37269800D01*
X39319107Y-37269800D01*
X39300632Y-37251325D01*
X39057411Y-37088810D01*
X38787158Y-36976868D01*
X38500260Y-36919800D01*
X38207740Y-36919800D01*
X37920842Y-36976868D01*
X37650589Y-37088810D01*
X37407368Y-37251325D01*
X37275513Y-37383180D01*
X37253502Y-37310620D01*
X37194537Y-37200306D01*
X37115185Y-37103615D01*
X37018494Y-37024263D01*
X36908180Y-36965298D01*
X36788482Y-36928988D01*
X36664000Y-36916728D01*
X34964000Y-36916728D01*
X34839518Y-36928988D01*
X34719820Y-36965298D01*
X34609506Y-37024263D01*
X34512815Y-37103615D01*
X34433463Y-37200306D01*
X34374498Y-37310620D01*
X34338188Y-37430318D01*
X34325928Y-37554800D01*
X34325928Y-38782714D01*
X33254185Y-39854458D01*
X33224237Y-39879036D01*
X33199659Y-39908984D01*
X33199655Y-39908988D01*
X33166690Y-39949156D01*
X33126139Y-39998567D01*
X33096011Y-40054933D01*
X33053246Y-40134941D01*
X33008359Y-40282914D01*
X32993203Y-40436800D01*
X32997001Y-40475362D01*
X32997001Y-41101667D01*
X32900388Y-41198280D01*
X32776176Y-41384176D01*
X32690617Y-41590733D01*
X32647000Y-41810012D01*
X18948000Y-41810012D01*
X18948000Y-22945676D01*
X19531909Y-22945676D01*
X19868096Y-23414858D01*
X20498058Y-23755227D01*
X21182317Y-23966156D01*
X21894579Y-24039540D01*
X22607472Y-23972559D01*
X23293599Y-23767786D01*
X23926593Y-23433092D01*
X23953884Y-23414858D01*
X24290071Y-22945676D01*
X21910990Y-20566595D01*
X19531909Y-22945676D01*
X18948000Y-22945676D01*
X18948000Y-22476372D01*
X19352304Y-22766071D01*
X21731385Y-20386990D01*
X22090595Y-20386990D01*
X24469676Y-22766071D01*
X24645620Y-22640000D01*
X27521928Y-22640000D01*
X27534188Y-22764482D01*
X27570498Y-22884180D01*
X27629463Y-22994494D01*
X27708815Y-23091185D01*
X27805506Y-23170537D01*
X27915820Y-23229502D01*
X28035518Y-23265812D01*
X28160000Y-23278072D01*
X28924250Y-23275000D01*
X29083000Y-23116250D01*
X29083000Y-21717000D01*
X29337000Y-21717000D01*
X29337000Y-23116250D01*
X29495750Y-23275000D01*
X30260000Y-23278072D01*
X30384482Y-23265812D01*
X30504180Y-23229502D01*
X30614494Y-23170537D01*
X30711185Y-23091185D01*
X30790537Y-22994494D01*
X30849502Y-22884180D01*
X30885812Y-22764482D01*
X30898072Y-22640000D01*
X30895000Y-21875750D01*
X30736250Y-21717000D01*
X29337000Y-21717000D01*
X29083000Y-21717000D01*
X27683750Y-21717000D01*
X27525000Y-21875750D01*
X27521928Y-22640000D01*
X24645620Y-22640000D01*
X24938858Y-22429884D01*
X25279227Y-21799922D01*
X25490156Y-21115663D01*
X25549466Y-20540000D01*
X27521928Y-20540000D01*
X27525000Y-21304250D01*
X27683750Y-21463000D01*
X29083000Y-21463000D01*
X29083000Y-20063750D01*
X29337000Y-20063750D01*
X29337000Y-21463000D01*
X30736250Y-21463000D01*
X30895000Y-21304250D01*
X30897067Y-20790000D01*
X32601928Y-20790000D01*
X32601928Y-22390000D01*
X32618992Y-22563254D01*
X32669528Y-22729850D01*
X32751595Y-22883386D01*
X32862038Y-23017962D01*
X32996614Y-23128405D01*
X33150150Y-23210472D01*
X33316746Y-23261008D01*
X33490000Y-23278072D01*
X35090000Y-23278072D01*
X35263254Y-23261008D01*
X35429850Y-23210472D01*
X35583386Y-23128405D01*
X35717962Y-23017962D01*
X35828405Y-22883386D01*
X35910472Y-22729850D01*
X35961008Y-22563254D01*
X35978072Y-22390000D01*
X35978072Y-20790000D01*
X37681928Y-20790000D01*
X37681928Y-22390000D01*
X37698992Y-22563254D01*
X37749528Y-22729850D01*
X37831595Y-22883386D01*
X37942038Y-23017962D01*
X38076614Y-23128405D01*
X38230150Y-23210472D01*
X38396746Y-23261008D01*
X38570000Y-23278072D01*
X40170000Y-23278072D01*
X40343254Y-23261008D01*
X40509850Y-23210472D01*
X40663386Y-23128405D01*
X40797962Y-23017962D01*
X40908405Y-22883386D01*
X40990472Y-22729850D01*
X41041008Y-22563254D01*
X41058072Y-22390000D01*
X41058072Y-20790000D01*
X42761928Y-20790000D01*
X42761928Y-22390000D01*
X42778992Y-22563254D01*
X42829528Y-22729850D01*
X42911595Y-22883386D01*
X43022038Y-23017962D01*
X43156614Y-23128405D01*
X43310150Y-23210472D01*
X43476746Y-23261008D01*
X43650000Y-23278072D01*
X45250000Y-23278072D01*
X45423254Y-23261008D01*
X45589850Y-23210472D01*
X45743386Y-23128405D01*
X45877962Y-23017962D01*
X45988405Y-22883386D01*
X45990917Y-22878686D01*
X48674919Y-22878686D01*
X49011106Y-23347868D01*
X49641068Y-23688237D01*
X50325327Y-23899166D01*
X51037589Y-23972550D01*
X51750482Y-23905569D01*
X52436609Y-23700796D01*
X53069603Y-23366102D01*
X53096894Y-23347868D01*
X53433081Y-22878686D01*
X51054000Y-20499605D01*
X48674919Y-22878686D01*
X45990917Y-22878686D01*
X46070472Y-22729850D01*
X46121008Y-22563254D01*
X46138072Y-22390000D01*
X46138072Y-20790000D01*
X46121008Y-20616746D01*
X46070472Y-20450150D01*
X45992134Y-20303589D01*
X47401450Y-20303589D01*
X47468431Y-21016482D01*
X47673204Y-21702609D01*
X48007898Y-22335603D01*
X48026132Y-22362894D01*
X48495314Y-22699081D01*
X48752973Y-22441422D01*
X48756569Y-22441826D01*
X49283405Y-21914990D01*
X49281405Y-21912990D01*
X49461010Y-21733385D01*
X49463010Y-21735385D01*
X49989846Y-21208549D01*
X49989442Y-21204953D01*
X50874395Y-20320000D01*
X48495314Y-17940919D01*
X48026132Y-18277106D01*
X47685763Y-18907068D01*
X47474834Y-19591327D01*
X47401450Y-20303589D01*
X45992134Y-20303589D01*
X45988405Y-20296614D01*
X45877962Y-20162038D01*
X45743386Y-20051595D01*
X45589850Y-19969528D01*
X45423254Y-19918992D01*
X45250000Y-19901928D01*
X43650000Y-19901928D01*
X43476746Y-19918992D01*
X43310150Y-19969528D01*
X43156614Y-20051595D01*
X43022038Y-20162038D01*
X42911595Y-20296614D01*
X42829528Y-20450150D01*
X42778992Y-20616746D01*
X42761928Y-20790000D01*
X41058072Y-20790000D01*
X41041008Y-20616746D01*
X40990472Y-20450150D01*
X40908405Y-20296614D01*
X40797962Y-20162038D01*
X40663386Y-20051595D01*
X40509850Y-19969528D01*
X40343254Y-19918992D01*
X40170000Y-19901928D01*
X38570000Y-19901928D01*
X38396746Y-19918992D01*
X38230150Y-19969528D01*
X38076614Y-20051595D01*
X37942038Y-20162038D01*
X37831595Y-20296614D01*
X37749528Y-20450150D01*
X37698992Y-20616746D01*
X37681928Y-20790000D01*
X35978072Y-20790000D01*
X35961008Y-20616746D01*
X35910472Y-20450150D01*
X35828405Y-20296614D01*
X35717962Y-20162038D01*
X35583386Y-20051595D01*
X35429850Y-19969528D01*
X35263254Y-19918992D01*
X35090000Y-19901928D01*
X33490000Y-19901928D01*
X33316746Y-19918992D01*
X33150150Y-19969528D01*
X32996614Y-20051595D01*
X32862038Y-20162038D01*
X32751595Y-20296614D01*
X32669528Y-20450150D01*
X32618992Y-20616746D01*
X32601928Y-20790000D01*
X30897067Y-20790000D01*
X30898072Y-20540000D01*
X30885812Y-20415518D01*
X30849502Y-20295820D01*
X30790537Y-20185506D01*
X30711185Y-20088815D01*
X30614494Y-20009463D01*
X30504180Y-19950498D01*
X30384482Y-19914188D01*
X30260000Y-19901928D01*
X29495750Y-19905000D01*
X29337000Y-20063750D01*
X29083000Y-20063750D01*
X28924250Y-19905000D01*
X28160000Y-19901928D01*
X28035518Y-19914188D01*
X27915820Y-19950498D01*
X27805506Y-20009463D01*
X27708815Y-20088815D01*
X27629463Y-20185506D01*
X27570498Y-20295820D01*
X27534188Y-20415518D01*
X27521928Y-20540000D01*
X25549466Y-20540000D01*
X25563540Y-20403401D01*
X25496559Y-19690508D01*
X25291786Y-19004381D01*
X24957092Y-18371387D01*
X24938858Y-18344096D01*
X24469676Y-18007909D01*
X22090595Y-20386990D01*
X21731385Y-20386990D01*
X21717243Y-20372848D01*
X21896848Y-20193243D01*
X21910990Y-20207385D01*
X24290071Y-17828304D01*
X24000372Y-17424000D01*
X48916617Y-17424000D01*
X48674919Y-17761314D01*
G37*
%TD.AperFunction*%
%TD*%
M02*
