M48
; DRILL file {KiCad 5.1.9} date Sun Feb 14 15:49:52 2021
; FORMAT={-:-/ absolute / metric / decimal}
; #@! TF.CreationDate,2021-02-14T15:49:52+01:00
; #@! TF.GenerationSoftware,Kicad,Pcbnew,5.1.9
; #@! TF.FileFunction,Plated,1,2,PTH
FMAT,2
METRIC
T1C0.500
T2C0.800
T3C1.000
T4C1.100
T5C3.000
%
G90
G05
T1
X19.527Y-48.327
X19.661Y-20.387
X20.186Y-46.736
X20.186Y-49.918
X20.32Y-18.796
X20.32Y-21.978
X21.777Y-46.077
X21.777Y-50.577
X21.911Y-18.137
X21.911Y-22.637
X23.368Y-46.736
X23.368Y-49.918
X23.502Y-18.796
X23.502Y-21.978
X24.027Y-48.327
X24.161Y-20.387
X48.804Y-20.324
X48.804Y-48.26
X49.463Y-18.733
X49.463Y-21.915
X49.463Y-46.669
X49.463Y-49.851
X51.054Y-18.074
X51.054Y-22.574
X51.054Y-46.01
X51.054Y-50.51
X52.645Y-18.733
X52.645Y-21.915
X52.645Y-46.669
X52.645Y-49.851
X53.304Y-20.324
X53.304Y-48.26
T2
X33.782Y-41.922
X41.656Y-40.386
T3
X35.814Y-38.405
X35.814Y-40.945
X35.814Y-43.485
X38.354Y-38.405
X38.354Y-40.945
X38.354Y-43.485
T4
X29.21Y-21.59
X34.29Y-21.59
X39.37Y-21.59
X44.45Y-21.59
T5
X21.777Y-48.327
X21.911Y-20.387
X51.054Y-20.32
X51.054Y-48.26
T0
M30
