%TF.GenerationSoftware,KiCad,Pcbnew,5.1.9*%
%TF.CreationDate,2021-02-14T15:49:58+01:00*%
%TF.ProjectId,test,74657374-2e6b-4696-9361-645f70636258,rev?*%
%TF.SameCoordinates,Original*%
%TF.FileFunction,Copper,L1,Top*%
%TF.FilePolarity,Positive*%
%FSLAX46Y46*%
G04 Gerber Fmt 4.6, Leading zero omitted, Abs format (unit mm)*
G04 Created by KiCad (PCBNEW 5.1.9) date 2021-02-14 15:49:58*
%MOMM*%
%LPD*%
G01*
G04 APERTURE LIST*
%TA.AperFunction,ComponentPad*%
%ADD10O,1.700000X1.700000*%
%TD*%
%TA.AperFunction,ComponentPad*%
%ADD11R,1.700000X1.700000*%
%TD*%
%TA.AperFunction,SMDPad,CuDef*%
%ADD12R,0.900000X0.800000*%
%TD*%
%TA.AperFunction,ComponentPad*%
%ADD13C,0.800000*%
%TD*%
%TA.AperFunction,ComponentPad*%
%ADD14C,6.000000*%
%TD*%
%TA.AperFunction,SMDPad,CuDef*%
%ADD15R,1.700000X0.650000*%
%TD*%
%TA.AperFunction,SMDPad,CuDef*%
%ADD16R,9.400000X10.800000*%
%TD*%
%TA.AperFunction,SMDPad,CuDef*%
%ADD17R,4.600000X1.100000*%
%TD*%
%TA.AperFunction,ViaPad*%
%ADD18C,1.000000*%
%TD*%
%TA.AperFunction,Conductor*%
%ADD19C,0.300000*%
%TD*%
%TA.AperFunction,Conductor*%
%ADD20C,1.000000*%
%TD*%
%TA.AperFunction,Conductor*%
%ADD21C,0.254000*%
%TD*%
%TA.AperFunction,Conductor*%
%ADD22C,0.100000*%
%TD*%
G04 APERTURE END LIST*
D10*
%TO.P,J1,6*%
%TO.N,GND*%
X38354000Y-43484800D03*
%TO.P,J1,5*%
%TO.N,Net-(J1-Pad5)*%
X35814000Y-43484800D03*
%TO.P,J1,4*%
%TO.N,Net-(H3-Pad1)*%
X38354000Y-40944800D03*
%TO.P,J1,3*%
%TO.N,Net-(J1-Pad3)*%
X35814000Y-40944800D03*
%TO.P,J1,2*%
%TO.N,+5V*%
X38354000Y-38404800D03*
D11*
%TO.P,J1,1*%
%TO.N,Net-(J1-Pad1)*%
X35814000Y-38404800D03*
%TD*%
D12*
%TO.P,Q1,3*%
%TO.N,Net-(H4-Pad1)*%
X47784000Y-39944000D03*
%TO.P,Q1,2*%
%TO.N,Net-(Q1-Pad2)*%
X49784000Y-38994000D03*
%TO.P,Q1,1*%
%TO.N,GND*%
X49784000Y-40894000D03*
%TD*%
%TO.P,R1,2*%
%TO.N,+5V*%
%TA.AperFunction,SMDPad,CuDef*%
G36*
G01*
X29767000Y-35871999D02*
X29767000Y-36772001D01*
G75*
G02*
X29517001Y-37022000I-249999J0D01*
G01*
X28866999Y-37022000D01*
G75*
G02*
X28617000Y-36772001I0J249999D01*
G01*
X28617000Y-35871999D01*
G75*
G02*
X28866999Y-35622000I249999J0D01*
G01*
X29517001Y-35622000D01*
G75*
G02*
X29767000Y-35871999I0J-249999D01*
G01*
G37*
%TD.AperFunction*%
%TO.P,R1,1*%
%TO.N,Net-(R1-Pad1)*%
%TA.AperFunction,SMDPad,CuDef*%
G36*
G01*
X31817000Y-35871999D02*
X31817000Y-36772001D01*
G75*
G02*
X31567001Y-37022000I-249999J0D01*
G01*
X30916999Y-37022000D01*
G75*
G02*
X30667000Y-36772001I0J249999D01*
G01*
X30667000Y-35871999D01*
G75*
G02*
X30916999Y-35622000I249999J0D01*
G01*
X31567001Y-35622000D01*
G75*
G02*
X31817000Y-35871999I0J-249999D01*
G01*
G37*
%TD.AperFunction*%
%TD*%
%TO.P,C2,2*%
%TO.N,GND*%
%TA.AperFunction,SMDPad,CuDef*%
G36*
G01*
X29785000Y-32569999D02*
X29785000Y-33470001D01*
G75*
G02*
X29535001Y-33720000I-249999J0D01*
G01*
X28884999Y-33720000D01*
G75*
G02*
X28635000Y-33470001I0J249999D01*
G01*
X28635000Y-32569999D01*
G75*
G02*
X28884999Y-32320000I249999J0D01*
G01*
X29535001Y-32320000D01*
G75*
G02*
X29785000Y-32569999I0J-249999D01*
G01*
G37*
%TD.AperFunction*%
%TO.P,C2,1*%
%TO.N,+5V*%
%TA.AperFunction,SMDPad,CuDef*%
G36*
G01*
X31835000Y-32569999D02*
X31835000Y-33470001D01*
G75*
G02*
X31585001Y-33720000I-249999J0D01*
G01*
X30934999Y-33720000D01*
G75*
G02*
X30685000Y-33470001I0J249999D01*
G01*
X30685000Y-32569999D01*
G75*
G02*
X30934999Y-32320000I249999J0D01*
G01*
X31585001Y-32320000D01*
G75*
G02*
X31835000Y-32569999I0J-249999D01*
G01*
G37*
%TD.AperFunction*%
%TD*%
%TO.P,R4,2*%
%TO.N,Net-(H4-Pad1)*%
%TA.AperFunction,SMDPad,CuDef*%
G36*
G01*
X43630000Y-42360001D02*
X43630000Y-41459999D01*
G75*
G02*
X43879999Y-41210000I249999J0D01*
G01*
X44530001Y-41210000D01*
G75*
G02*
X44780000Y-41459999I0J-249999D01*
G01*
X44780000Y-42360001D01*
G75*
G02*
X44530001Y-42610000I-249999J0D01*
G01*
X43879999Y-42610000D01*
G75*
G02*
X43630000Y-42360001I0J249999D01*
G01*
G37*
%TD.AperFunction*%
%TO.P,R4,1*%
%TO.N,+5V*%
%TA.AperFunction,SMDPad,CuDef*%
G36*
G01*
X41580000Y-42360001D02*
X41580000Y-41459999D01*
G75*
G02*
X41829999Y-41210000I249999J0D01*
G01*
X42480001Y-41210000D01*
G75*
G02*
X42730000Y-41459999I0J-249999D01*
G01*
X42730000Y-42360001D01*
G75*
G02*
X42480001Y-42610000I-249999J0D01*
G01*
X41829999Y-42610000D01*
G75*
G02*
X41580000Y-42360001I0J249999D01*
G01*
G37*
%TD.AperFunction*%
%TD*%
%TO.P,R3,2*%
%TO.N,Net-(R3-Pad2)*%
%TA.AperFunction,SMDPad,CuDef*%
G36*
G01*
X42739000Y-37903999D02*
X42739000Y-38804001D01*
G75*
G02*
X42489001Y-39054000I-249999J0D01*
G01*
X41838999Y-39054000D01*
G75*
G02*
X41589000Y-38804001I0J249999D01*
G01*
X41589000Y-37903999D01*
G75*
G02*
X41838999Y-37654000I249999J0D01*
G01*
X42489001Y-37654000D01*
G75*
G02*
X42739000Y-37903999I0J-249999D01*
G01*
G37*
%TD.AperFunction*%
%TO.P,R3,1*%
%TO.N,Net-(Q1-Pad2)*%
%TA.AperFunction,SMDPad,CuDef*%
G36*
G01*
X44789000Y-37903999D02*
X44789000Y-38804001D01*
G75*
G02*
X44539001Y-39054000I-249999J0D01*
G01*
X43888999Y-39054000D01*
G75*
G02*
X43639000Y-38804001I0J249999D01*
G01*
X43639000Y-37903999D01*
G75*
G02*
X43888999Y-37654000I249999J0D01*
G01*
X44539001Y-37654000D01*
G75*
G02*
X44789000Y-37903999I0J-249999D01*
G01*
G37*
%TD.AperFunction*%
%TD*%
D13*
%TO.P,H8,1*%
%TO.N,GND*%
X52644990Y-46669010D03*
X51054000Y-46010000D03*
X49463010Y-46669010D03*
X48804000Y-48260000D03*
X49463010Y-49850990D03*
X51054000Y-50510000D03*
X52644990Y-49850990D03*
X53304000Y-48260000D03*
D14*
X51054000Y-48260000D03*
%TD*%
D13*
%TO.P,H7,1*%
%TO.N,GND*%
X52644990Y-18733010D03*
X51054000Y-18074000D03*
X49463010Y-18733010D03*
X48804000Y-20324000D03*
X49463010Y-21914990D03*
X51054000Y-22574000D03*
X52644990Y-21914990D03*
X53304000Y-20324000D03*
D14*
X51054000Y-20320000D03*
%TD*%
D13*
%TO.P,H6,1*%
%TO.N,GND*%
X23368000Y-46736000D03*
X21777010Y-46076990D03*
X20186020Y-46736000D03*
X19527010Y-48326990D03*
X20186020Y-49917980D03*
X21777010Y-50576990D03*
X23368000Y-49917980D03*
X24027010Y-48326990D03*
D14*
X21777010Y-48326990D03*
%TD*%
D13*
%TO.P,H5,1*%
%TO.N,GND*%
X23501980Y-18796000D03*
X21910990Y-18136990D03*
X20320000Y-18796000D03*
X19660990Y-20386990D03*
X20320000Y-21977980D03*
X21910990Y-22636990D03*
X23501980Y-21977980D03*
X24160990Y-20386990D03*
D14*
X21910990Y-20386990D03*
%TD*%
D15*
%TO.P,U1,8*%
%TO.N,Net-(R1-Pad1)*%
X32166600Y-39801800D03*
%TO.P,U1,7*%
%TO.N,Net-(J1-Pad3)*%
X32166600Y-41071800D03*
%TO.P,U1,6*%
%TO.N,Net-(J1-Pad1)*%
X32166600Y-42341800D03*
%TO.P,U1,5*%
%TO.N,Net-(H3-Pad1)*%
X32166600Y-43611800D03*
%TO.P,U1,4*%
%TO.N,GND*%
X24866600Y-43611800D03*
%TO.P,U1,3*%
%TO.N,Net-(R3-Pad2)*%
X24866600Y-42341800D03*
%TO.P,U1,2*%
%TO.N,Net-(R2-Pad2)*%
X24866600Y-41071800D03*
%TO.P,U1,1*%
%TO.N,Net-(J1-Pad5)*%
X24866600Y-39801800D03*
%TD*%
%TO.P,H4-Pwr,1*%
%TO.N,Net-(H4-Pad1)*%
%TA.AperFunction,ComponentPad*%
G36*
G01*
X43400000Y-22390000D02*
X43400000Y-20790000D01*
G75*
G02*
X43650000Y-20540000I250000J0D01*
G01*
X45250000Y-20540000D01*
G75*
G02*
X45500000Y-20790000I0J-250000D01*
G01*
X45500000Y-22390000D01*
G75*
G02*
X45250000Y-22640000I-250000J0D01*
G01*
X43650000Y-22640000D01*
G75*
G02*
X43400000Y-22390000I0J250000D01*
G01*
G37*
%TD.AperFunction*%
%TD*%
%TO.P,H3-Off,1*%
%TO.N,Net-(H3-Pad1)*%
%TA.AperFunction,ComponentPad*%
G36*
G01*
X38320000Y-22390000D02*
X38320000Y-20790000D01*
G75*
G02*
X38570000Y-20540000I250000J0D01*
G01*
X40170000Y-20540000D01*
G75*
G02*
X40420000Y-20790000I0J-250000D01*
G01*
X40420000Y-22390000D01*
G75*
G02*
X40170000Y-22640000I-250000J0D01*
G01*
X38570000Y-22640000D01*
G75*
G02*
X38320000Y-22390000I0J250000D01*
G01*
G37*
%TD.AperFunction*%
%TD*%
%TO.P,H2-GND,1*%
%TO.N,GND*%
%TA.AperFunction,ComponentPad*%
G36*
G01*
X28160000Y-22390000D02*
X28160000Y-20790000D01*
G75*
G02*
X28410000Y-20540000I250000J0D01*
G01*
X30010000Y-20540000D01*
G75*
G02*
X30260000Y-20790000I0J-250000D01*
G01*
X30260000Y-22390000D01*
G75*
G02*
X30010000Y-22640000I-250000J0D01*
G01*
X28410000Y-22640000D01*
G75*
G02*
X28160000Y-22390000I0J250000D01*
G01*
G37*
%TD.AperFunction*%
%TD*%
%TO.P,H1-VCC,1*%
%TO.N,Net-(C1-Pad1)*%
%TA.AperFunction,ComponentPad*%
G36*
G01*
X33240000Y-22390000D02*
X33240000Y-20790000D01*
G75*
G02*
X33490000Y-20540000I250000J0D01*
G01*
X35090000Y-20540000D01*
G75*
G02*
X35340000Y-20790000I0J-250000D01*
G01*
X35340000Y-22390000D01*
G75*
G02*
X35090000Y-22640000I-250000J0D01*
G01*
X33490000Y-22640000D01*
G75*
G02*
X33240000Y-22390000I0J250000D01*
G01*
G37*
%TD.AperFunction*%
%TD*%
D16*
%TO.P,U2,2*%
%TO.N,GND*%
X44450000Y-30480000D03*
D17*
%TO.P,U2,3*%
%TO.N,+5V*%
X35300000Y-33020000D03*
%TO.P,U2,1*%
%TO.N,Net-(C1-Pad1)*%
X35300000Y-27940000D03*
%TD*%
%TO.P,D1,2*%
%TO.N,Net-(D1-Pad2)*%
%TA.AperFunction,SMDPad,CuDef*%
G36*
G01*
X24441999Y-31438000D02*
X25342001Y-31438000D01*
G75*
G02*
X25592000Y-31687999I0J-249999D01*
G01*
X25592000Y-32338001D01*
G75*
G02*
X25342001Y-32588000I-249999J0D01*
G01*
X24441999Y-32588000D01*
G75*
G02*
X24192000Y-32338001I0J249999D01*
G01*
X24192000Y-31687999D01*
G75*
G02*
X24441999Y-31438000I249999J0D01*
G01*
G37*
%TD.AperFunction*%
%TO.P,D1,1*%
%TO.N,GND*%
%TA.AperFunction,SMDPad,CuDef*%
G36*
G01*
X24441999Y-29388000D02*
X25342001Y-29388000D01*
G75*
G02*
X25592000Y-29637999I0J-249999D01*
G01*
X25592000Y-30288001D01*
G75*
G02*
X25342001Y-30538000I-249999J0D01*
G01*
X24441999Y-30538000D01*
G75*
G02*
X24192000Y-30288001I0J249999D01*
G01*
X24192000Y-29637999D01*
G75*
G02*
X24441999Y-29388000I249999J0D01*
G01*
G37*
%TD.AperFunction*%
%TD*%
%TO.P,R2,2*%
%TO.N,Net-(R2-Pad2)*%
%TA.AperFunction,SMDPad,CuDef*%
G36*
G01*
X24441999Y-36019000D02*
X25342001Y-36019000D01*
G75*
G02*
X25592000Y-36268999I0J-249999D01*
G01*
X25592000Y-36919001D01*
G75*
G02*
X25342001Y-37169000I-249999J0D01*
G01*
X24441999Y-37169000D01*
G75*
G02*
X24192000Y-36919001I0J249999D01*
G01*
X24192000Y-36268999D01*
G75*
G02*
X24441999Y-36019000I249999J0D01*
G01*
G37*
%TD.AperFunction*%
%TO.P,R2,1*%
%TO.N,Net-(D1-Pad2)*%
%TA.AperFunction,SMDPad,CuDef*%
G36*
G01*
X24441999Y-33969000D02*
X25342001Y-33969000D01*
G75*
G02*
X25592000Y-34218999I0J-249999D01*
G01*
X25592000Y-34869001D01*
G75*
G02*
X25342001Y-35119000I-249999J0D01*
G01*
X24441999Y-35119000D01*
G75*
G02*
X24192000Y-34869001I0J249999D01*
G01*
X24192000Y-34218999D01*
G75*
G02*
X24441999Y-33969000I249999J0D01*
G01*
G37*
%TD.AperFunction*%
%TD*%
%TO.P,C1,2*%
%TO.N,GND*%
%TA.AperFunction,SMDPad,CuDef*%
G36*
G01*
X29785000Y-27489999D02*
X29785000Y-28390001D01*
G75*
G02*
X29535001Y-28640000I-249999J0D01*
G01*
X28884999Y-28640000D01*
G75*
G02*
X28635000Y-28390001I0J249999D01*
G01*
X28635000Y-27489999D01*
G75*
G02*
X28884999Y-27240000I249999J0D01*
G01*
X29535001Y-27240000D01*
G75*
G02*
X29785000Y-27489999I0J-249999D01*
G01*
G37*
%TD.AperFunction*%
%TO.P,C1,1*%
%TO.N,Net-(C1-Pad1)*%
%TA.AperFunction,SMDPad,CuDef*%
G36*
G01*
X31835000Y-27489999D02*
X31835000Y-28390001D01*
G75*
G02*
X31585001Y-28640000I-249999J0D01*
G01*
X30934999Y-28640000D01*
G75*
G02*
X30685000Y-28390001I0J249999D01*
G01*
X30685000Y-27489999D01*
G75*
G02*
X30934999Y-27240000I249999J0D01*
G01*
X31585001Y-27240000D01*
G75*
G02*
X31835000Y-27489999I0J-249999D01*
G01*
G37*
%TD.AperFunction*%
%TD*%
D18*
%TO.N,+5V*%
X41656000Y-40386000D03*
%TO.N,Net-(J1-Pad1)*%
X33782000Y-41921800D03*
%TD*%
D19*
%TO.N,Net-(D1-Pad2)*%
X24892000Y-34544000D02*
X24892000Y-32013000D01*
D20*
%TO.N,Net-(R1-Pad1)*%
X31242000Y-38877200D02*
X32166600Y-39801800D01*
X31242000Y-36322000D02*
X31242000Y-38877200D01*
D19*
%TO.N,Net-(R2-Pad2)*%
X23666599Y-37819401D02*
X24892000Y-36594000D01*
X23666599Y-41021799D02*
X23666599Y-37819401D01*
X23716600Y-41071800D02*
X23666599Y-41021799D01*
X24866600Y-41071800D02*
X23716600Y-41071800D01*
D20*
%TO.N,Net-(C1-Pad1)*%
X31260000Y-27940000D02*
X35300000Y-27940000D01*
X35300000Y-22600000D02*
X34290000Y-21590000D01*
X35300000Y-27940000D02*
X35300000Y-22600000D01*
D19*
%TO.N,Net-(Q1-Pad2)*%
X48314002Y-38994000D02*
X49784000Y-38994000D01*
X47674002Y-38354000D02*
X48314002Y-38994000D01*
X44214000Y-38354000D02*
X47674002Y-38354000D01*
%TO.N,Net-(R3-Pad2)*%
X25401602Y-42341800D02*
X28271802Y-45212000D01*
X24866600Y-42341800D02*
X25401602Y-42341800D01*
X28271802Y-45212000D02*
X39624000Y-45212000D01*
X39624000Y-45212000D02*
X40132000Y-44704000D01*
X40132000Y-40386000D02*
X42164000Y-38354000D01*
X40132000Y-44704000D02*
X40132000Y-40386000D01*
D20*
%TO.N,+5V*%
X31260000Y-33020000D02*
X35300000Y-33020000D01*
X35300000Y-34284000D02*
X35560000Y-34544000D01*
X35300000Y-33020000D02*
X35300000Y-34284000D01*
X29192000Y-36253480D02*
X29192000Y-36322000D01*
X31260000Y-34185480D02*
X29192000Y-36253480D01*
X31260000Y-33020000D02*
X31260000Y-34185480D01*
X42155000Y-40885000D02*
X41656000Y-40386000D01*
X42155000Y-41910000D02*
X42155000Y-40885000D01*
X35300000Y-34284000D02*
X38354000Y-37338000D01*
X38354000Y-37338000D02*
X38354000Y-38404800D01*
D19*
%TO.N,Net-(J1-Pad5)*%
X35011999Y-44286801D02*
X35814000Y-43484800D01*
X31036599Y-44286801D02*
X35011999Y-44286801D01*
X26551598Y-39801800D02*
X31036599Y-44286801D01*
X24866600Y-39801800D02*
X26551598Y-39801800D01*
%TO.N,Net-(J1-Pad3)*%
X35687000Y-41071800D02*
X35814000Y-40944800D01*
X32166600Y-41071800D02*
X35687000Y-41071800D01*
%TO.N,Net-(J1-Pad1)*%
X32166600Y-42341800D02*
X33096200Y-42341800D01*
X33096200Y-42341800D02*
X33782000Y-41656000D01*
X33782000Y-41656000D02*
X33782000Y-41921800D01*
%TO.N,Net-(H3-Pad1)*%
X37014001Y-42284799D02*
X38354000Y-40944800D01*
X35237999Y-42284799D02*
X37014001Y-42284799D01*
X33910998Y-43611800D02*
X35237999Y-42284799D01*
X32166600Y-43611800D02*
X33910998Y-43611800D01*
X49338002Y-24638000D02*
X42418000Y-24638000D01*
X49784000Y-36830000D02*
X49784000Y-25083998D01*
X42064454Y-36830000D02*
X49784000Y-36830000D01*
X49784000Y-25083998D02*
X49338002Y-24638000D01*
X38354000Y-40540454D02*
X42064454Y-36830000D01*
X42418000Y-24638000D02*
X39370000Y-21590000D01*
X38354000Y-40944800D02*
X38354000Y-40540454D01*
%TO.N,Net-(H4-Pad1)*%
X45818000Y-41910000D02*
X47784000Y-39944000D01*
X44205000Y-41910000D02*
X45818000Y-41910000D01*
X46530001Y-23670001D02*
X44450000Y-21590000D01*
X46990000Y-24130000D02*
X46530001Y-23670001D01*
X51054000Y-24130000D02*
X46990000Y-24130000D01*
X51054000Y-39204002D02*
X51054000Y-24130000D01*
X50314002Y-39944000D02*
X51054000Y-39204002D01*
X47784000Y-39944000D02*
X50314002Y-39944000D01*
%TD*%
D21*
%TO.N,GND*%
X48674919Y-17761314D02*
X48936578Y-18022973D01*
X48936174Y-18026569D01*
X49463010Y-18553405D01*
X49465010Y-18551405D01*
X49644615Y-18731010D01*
X49642615Y-18733010D01*
X50169451Y-19259846D01*
X50173047Y-19259442D01*
X51054000Y-20140395D01*
X51068143Y-20126253D01*
X51247748Y-20305858D01*
X51233605Y-20320000D01*
X52118558Y-21204953D01*
X52118154Y-21208549D01*
X52644990Y-21735385D01*
X52646990Y-21733385D01*
X52826595Y-21912990D01*
X52824595Y-21914990D01*
X53351431Y-22441826D01*
X53355027Y-22441422D01*
X53612686Y-22699081D01*
X53949303Y-22457882D01*
X53941580Y-46116585D01*
X53612686Y-45880919D01*
X51233605Y-48260000D01*
X51247748Y-48274143D01*
X51068143Y-48453748D01*
X51054000Y-48439605D01*
X48674919Y-50818686D01*
X48916617Y-51156000D01*
X23962393Y-51156000D01*
X24156091Y-50885676D01*
X21777010Y-48506595D01*
X21762868Y-48520738D01*
X21583263Y-48341133D01*
X21597405Y-48326990D01*
X21956615Y-48326990D01*
X24335696Y-50706071D01*
X24804878Y-50369884D01*
X25145247Y-49739922D01*
X25356176Y-49055663D01*
X25429560Y-48343401D01*
X25420183Y-48243589D01*
X47401450Y-48243589D01*
X47468431Y-48956482D01*
X47673204Y-49642609D01*
X48007898Y-50275603D01*
X48026132Y-50302894D01*
X48495314Y-50639081D01*
X50874395Y-48260000D01*
X48495314Y-45880919D01*
X48026132Y-46217106D01*
X47685763Y-46847068D01*
X47474834Y-47531327D01*
X47401450Y-48243589D01*
X25420183Y-48243589D01*
X25362579Y-47630508D01*
X25157806Y-46944381D01*
X24823112Y-46311387D01*
X24804878Y-46284096D01*
X24335696Y-45947909D01*
X21956615Y-48326990D01*
X21597405Y-48326990D01*
X19218324Y-45947909D01*
X18948000Y-46141607D01*
X18948000Y-45768304D01*
X19397929Y-45768304D01*
X21777010Y-48147385D01*
X24156091Y-45768304D01*
X23819904Y-45299122D01*
X23189942Y-44958753D01*
X22505683Y-44747824D01*
X21793421Y-44674440D01*
X21080528Y-44741421D01*
X20394401Y-44946194D01*
X19761407Y-45280888D01*
X19734116Y-45299122D01*
X19397929Y-45768304D01*
X18948000Y-45768304D01*
X18948000Y-43936800D01*
X23378528Y-43936800D01*
X23390788Y-44061282D01*
X23427098Y-44180980D01*
X23486063Y-44291294D01*
X23565415Y-44387985D01*
X23662106Y-44467337D01*
X23772420Y-44526302D01*
X23892118Y-44562612D01*
X24016600Y-44574872D01*
X24580850Y-44571800D01*
X24739600Y-44413050D01*
X24739600Y-43738800D01*
X23540350Y-43738800D01*
X23381600Y-43897550D01*
X23378528Y-43936800D01*
X18948000Y-43936800D01*
X18948000Y-37819401D01*
X22877802Y-37819401D01*
X22881600Y-37857964D01*
X22881599Y-40983246D01*
X22877802Y-41021799D01*
X22881599Y-41060352D01*
X22881599Y-41060359D01*
X22892958Y-41175685D01*
X22937845Y-41323658D01*
X23010737Y-41460031D01*
X23108835Y-41579563D01*
X23136298Y-41602101D01*
X23158836Y-41629564D01*
X23278367Y-41727662D01*
X23414740Y-41800554D01*
X23418297Y-41801633D01*
X23390788Y-41892318D01*
X23378528Y-42016800D01*
X23378528Y-42666800D01*
X23390788Y-42791282D01*
X23427098Y-42910980D01*
X23462280Y-42976800D01*
X23427098Y-43042620D01*
X23390788Y-43162318D01*
X23378528Y-43286800D01*
X23381600Y-43326050D01*
X23540350Y-43484800D01*
X24739600Y-43484800D01*
X24739600Y-43464800D01*
X24993600Y-43464800D01*
X24993600Y-43484800D01*
X25013600Y-43484800D01*
X25013600Y-43738800D01*
X24993600Y-43738800D01*
X24993600Y-44413050D01*
X25152350Y-44571800D01*
X25716600Y-44574872D01*
X25841082Y-44562612D01*
X25960780Y-44526302D01*
X26071094Y-44467337D01*
X26167785Y-44387985D01*
X26244343Y-44294698D01*
X27689455Y-45739810D01*
X27714038Y-45769764D01*
X27833569Y-45867862D01*
X27937892Y-45923623D01*
X27969942Y-45940754D01*
X28117915Y-45985642D01*
X28192828Y-45993020D01*
X28233241Y-45997000D01*
X28233246Y-45997000D01*
X28271802Y-46000797D01*
X28310358Y-45997000D01*
X39585447Y-45997000D01*
X39624000Y-46000797D01*
X39662553Y-45997000D01*
X39662561Y-45997000D01*
X39777887Y-45985641D01*
X39925860Y-45940754D01*
X40062233Y-45867862D01*
X40181764Y-45769764D01*
X40206347Y-45739810D01*
X40244843Y-45701314D01*
X48674919Y-45701314D01*
X51054000Y-48080395D01*
X53433081Y-45701314D01*
X53096894Y-45232132D01*
X52466932Y-44891763D01*
X51782673Y-44680834D01*
X51070411Y-44607450D01*
X50357518Y-44674431D01*
X49671391Y-44879204D01*
X49038397Y-45213898D01*
X49011106Y-45232132D01*
X48674919Y-45701314D01*
X40244843Y-45701314D01*
X40659811Y-45286346D01*
X40689764Y-45261764D01*
X40787862Y-45142233D01*
X40860754Y-45005860D01*
X40905641Y-44857887D01*
X40917000Y-44742561D01*
X40917000Y-44742554D01*
X40920797Y-44704001D01*
X40917000Y-44665448D01*
X40917000Y-41252132D01*
X40958330Y-41293462D01*
X40941928Y-41459999D01*
X40941928Y-42360001D01*
X40958992Y-42533255D01*
X41009528Y-42699851D01*
X41091595Y-42853387D01*
X41202038Y-42987962D01*
X41336613Y-43098405D01*
X41490149Y-43180472D01*
X41656745Y-43231008D01*
X41829999Y-43248072D01*
X42480001Y-43248072D01*
X42653255Y-43231008D01*
X42819851Y-43180472D01*
X42973387Y-43098405D01*
X43107962Y-42987962D01*
X43180000Y-42900184D01*
X43252038Y-42987962D01*
X43386613Y-43098405D01*
X43540149Y-43180472D01*
X43706745Y-43231008D01*
X43879999Y-43248072D01*
X44530001Y-43248072D01*
X44703255Y-43231008D01*
X44869851Y-43180472D01*
X45023387Y-43098405D01*
X45157962Y-42987962D01*
X45268405Y-42853387D01*
X45350472Y-42699851D01*
X45351944Y-42695000D01*
X45779447Y-42695000D01*
X45818000Y-42698797D01*
X45856553Y-42695000D01*
X45856561Y-42695000D01*
X45971887Y-42683641D01*
X46119860Y-42638754D01*
X46256233Y-42565862D01*
X46375764Y-42467764D01*
X46400347Y-42437810D01*
X47544157Y-41294000D01*
X48695928Y-41294000D01*
X48708188Y-41418482D01*
X48744498Y-41538180D01*
X48803463Y-41648494D01*
X48882815Y-41745185D01*
X48979506Y-41824537D01*
X49089820Y-41883502D01*
X49209518Y-41919812D01*
X49334000Y-41932072D01*
X49498250Y-41929000D01*
X49657000Y-41770250D01*
X49657000Y-41021000D01*
X49911000Y-41021000D01*
X49911000Y-41770250D01*
X50069750Y-41929000D01*
X50234000Y-41932072D01*
X50358482Y-41919812D01*
X50478180Y-41883502D01*
X50588494Y-41824537D01*
X50685185Y-41745185D01*
X50764537Y-41648494D01*
X50823502Y-41538180D01*
X50859812Y-41418482D01*
X50872072Y-41294000D01*
X50869000Y-41179750D01*
X50710250Y-41021000D01*
X49911000Y-41021000D01*
X49657000Y-41021000D01*
X48857750Y-41021000D01*
X48699000Y-41179750D01*
X48695928Y-41294000D01*
X47544157Y-41294000D01*
X47856085Y-40982072D01*
X48234000Y-40982072D01*
X48358482Y-40969812D01*
X48478180Y-40933502D01*
X48588494Y-40874537D01*
X48685185Y-40795185D01*
X48739501Y-40729000D01*
X48819750Y-40729000D01*
X48857750Y-40767000D01*
X49657000Y-40767000D01*
X49657000Y-40747000D01*
X49911000Y-40747000D01*
X49911000Y-40767000D01*
X50710250Y-40767000D01*
X50869000Y-40608250D01*
X50871867Y-40501642D01*
X50896349Y-40471811D01*
X51581816Y-39786343D01*
X51611764Y-39761766D01*
X51709862Y-39642235D01*
X51782754Y-39505862D01*
X51805089Y-39432233D01*
X51827641Y-39357890D01*
X51830159Y-39332324D01*
X51839000Y-39242563D01*
X51839000Y-39242556D01*
X51842797Y-39204003D01*
X51839000Y-39165450D01*
X51839000Y-24168561D01*
X51842798Y-24130000D01*
X51827641Y-23976113D01*
X51801613Y-23890309D01*
X52436609Y-23700796D01*
X53069603Y-23366102D01*
X53096894Y-23347868D01*
X53433081Y-22878686D01*
X51054000Y-20499605D01*
X48674919Y-22878686D01*
X49009051Y-23345000D01*
X47315156Y-23345000D01*
X47057813Y-23087656D01*
X46138072Y-22167915D01*
X46138072Y-20790000D01*
X46121008Y-20616746D01*
X46070472Y-20450150D01*
X45992134Y-20303589D01*
X47401450Y-20303589D01*
X47468431Y-21016482D01*
X47673204Y-21702609D01*
X48007898Y-22335603D01*
X48026132Y-22362894D01*
X48495314Y-22699081D01*
X48752973Y-22441422D01*
X48756569Y-22441826D01*
X49283405Y-21914990D01*
X49281405Y-21912990D01*
X49461010Y-21733385D01*
X49463010Y-21735385D01*
X49989846Y-21208549D01*
X49989442Y-21204953D01*
X50874395Y-20320000D01*
X48495314Y-17940919D01*
X48026132Y-18277106D01*
X47685763Y-18907068D01*
X47474834Y-19591327D01*
X47401450Y-20303589D01*
X45992134Y-20303589D01*
X45988405Y-20296614D01*
X45877962Y-20162038D01*
X45743386Y-20051595D01*
X45589850Y-19969528D01*
X45423254Y-19918992D01*
X45250000Y-19901928D01*
X43650000Y-19901928D01*
X43476746Y-19918992D01*
X43310150Y-19969528D01*
X43156614Y-20051595D01*
X43022038Y-20162038D01*
X42911595Y-20296614D01*
X42829528Y-20450150D01*
X42778992Y-20616746D01*
X42761928Y-20790000D01*
X42761928Y-22390000D01*
X42778992Y-22563254D01*
X42829528Y-22729850D01*
X42911595Y-22883386D01*
X43022038Y-23017962D01*
X43156614Y-23128405D01*
X43310150Y-23210472D01*
X43476746Y-23261008D01*
X43650000Y-23278072D01*
X45027915Y-23278072D01*
X45602843Y-23853000D01*
X42743158Y-23853000D01*
X41058072Y-22167915D01*
X41058072Y-20790000D01*
X41041008Y-20616746D01*
X40990472Y-20450150D01*
X40908405Y-20296614D01*
X40797962Y-20162038D01*
X40663386Y-20051595D01*
X40509850Y-19969528D01*
X40343254Y-19918992D01*
X40170000Y-19901928D01*
X38570000Y-19901928D01*
X38396746Y-19918992D01*
X38230150Y-19969528D01*
X38076614Y-20051595D01*
X37942038Y-20162038D01*
X37831595Y-20296614D01*
X37749528Y-20450150D01*
X37698992Y-20616746D01*
X37681928Y-20790000D01*
X37681928Y-22390000D01*
X37698992Y-22563254D01*
X37749528Y-22729850D01*
X37831595Y-22883386D01*
X37942038Y-23017962D01*
X38076614Y-23128405D01*
X38230150Y-23210472D01*
X38396746Y-23261008D01*
X38570000Y-23278072D01*
X39947915Y-23278072D01*
X41112719Y-24442876D01*
X39750000Y-24441928D01*
X39625518Y-24454188D01*
X39505820Y-24490498D01*
X39395506Y-24549463D01*
X39298815Y-24628815D01*
X39219463Y-24725506D01*
X39160498Y-24835820D01*
X39124188Y-24955518D01*
X39111928Y-25080000D01*
X39115000Y-30194250D01*
X39273750Y-30353000D01*
X44323000Y-30353000D01*
X44323000Y-30333000D01*
X44577000Y-30333000D01*
X44577000Y-30353000D01*
X44597000Y-30353000D01*
X44597000Y-30607000D01*
X44577000Y-30607000D01*
X44577000Y-30627000D01*
X44323000Y-30627000D01*
X44323000Y-30607000D01*
X39273750Y-30607000D01*
X39115000Y-30765750D01*
X39111928Y-35880000D01*
X39124188Y-36004482D01*
X39160498Y-36124180D01*
X39219463Y-36234494D01*
X39298815Y-36331185D01*
X39395506Y-36410537D01*
X39505820Y-36469502D01*
X39625518Y-36505812D01*
X39750000Y-36518072D01*
X41267280Y-36517016D01*
X39787029Y-37997267D01*
X39781932Y-37971642D01*
X39669990Y-37701389D01*
X39507475Y-37458168D01*
X39489000Y-37439693D01*
X39489000Y-37393743D01*
X39494490Y-37337999D01*
X39489000Y-37282255D01*
X39489000Y-37282248D01*
X39472577Y-37115501D01*
X39468972Y-37103615D01*
X39447548Y-37032992D01*
X39407676Y-36901553D01*
X39302284Y-36704377D01*
X39160449Y-36531551D01*
X39117141Y-36496009D01*
X36829203Y-34208072D01*
X37600000Y-34208072D01*
X37724482Y-34195812D01*
X37844180Y-34159502D01*
X37954494Y-34100537D01*
X38051185Y-34021185D01*
X38130537Y-33924494D01*
X38189502Y-33814180D01*
X38225812Y-33694482D01*
X38238072Y-33570000D01*
X38238072Y-32470000D01*
X38225812Y-32345518D01*
X38189502Y-32225820D01*
X38130537Y-32115506D01*
X38051185Y-32018815D01*
X37954494Y-31939463D01*
X37844180Y-31880498D01*
X37724482Y-31844188D01*
X37600000Y-31831928D01*
X33000000Y-31831928D01*
X32875518Y-31844188D01*
X32755820Y-31880498D01*
X32747397Y-31885000D01*
X32143461Y-31885000D01*
X32078387Y-31831595D01*
X31924851Y-31749528D01*
X31758255Y-31698992D01*
X31585001Y-31681928D01*
X30934999Y-31681928D01*
X30761745Y-31698992D01*
X30595149Y-31749528D01*
X30441613Y-31831595D01*
X30307038Y-31942038D01*
X30301658Y-31948594D01*
X30236185Y-31868815D01*
X30139494Y-31789463D01*
X30029180Y-31730498D01*
X29909482Y-31694188D01*
X29785000Y-31681928D01*
X29495750Y-31685000D01*
X29337000Y-31843750D01*
X29337000Y-32893000D01*
X29357000Y-32893000D01*
X29357000Y-33147000D01*
X29337000Y-33147000D01*
X29337000Y-34196250D01*
X29490549Y-34349799D01*
X28855265Y-34985084D01*
X28693745Y-35000992D01*
X28527149Y-35051528D01*
X28373613Y-35133595D01*
X28239038Y-35244038D01*
X28128595Y-35378613D01*
X28046528Y-35532149D01*
X27995992Y-35698745D01*
X27978928Y-35871999D01*
X27978928Y-36772001D01*
X27995992Y-36945255D01*
X28046528Y-37111851D01*
X28128595Y-37265387D01*
X28239038Y-37399962D01*
X28373613Y-37510405D01*
X28527149Y-37592472D01*
X28693745Y-37643008D01*
X28866999Y-37660072D01*
X29517001Y-37660072D01*
X29690255Y-37643008D01*
X29856851Y-37592472D01*
X30010387Y-37510405D01*
X30107000Y-37431116D01*
X30107001Y-38821439D01*
X30101509Y-38877200D01*
X30123423Y-39099698D01*
X30188324Y-39313646D01*
X30215008Y-39363568D01*
X30293717Y-39510823D01*
X30435552Y-39683649D01*
X30478860Y-39719191D01*
X30678528Y-39918859D01*
X30678528Y-40126800D01*
X30690788Y-40251282D01*
X30727098Y-40370980D01*
X30762280Y-40436800D01*
X30727098Y-40502620D01*
X30690788Y-40622318D01*
X30678528Y-40746800D01*
X30678528Y-41396800D01*
X30690788Y-41521282D01*
X30727098Y-41640980D01*
X30762280Y-41706800D01*
X30727098Y-41772620D01*
X30690788Y-41892318D01*
X30678528Y-42016800D01*
X30678528Y-42666800D01*
X30690788Y-42791282D01*
X30708010Y-42848054D01*
X27133945Y-39273990D01*
X27109362Y-39244036D01*
X26989831Y-39145938D01*
X26853458Y-39073046D01*
X26705485Y-39028159D01*
X26590159Y-39016800D01*
X26590151Y-39016800D01*
X26551598Y-39013003D01*
X26513045Y-39016800D01*
X26157044Y-39016800D01*
X26071094Y-38946263D01*
X25960780Y-38887298D01*
X25841082Y-38850988D01*
X25716600Y-38838728D01*
X24451599Y-38838728D01*
X24451599Y-38144558D01*
X24789085Y-37807072D01*
X25342001Y-37807072D01*
X25515255Y-37790008D01*
X25681851Y-37739472D01*
X25835387Y-37657405D01*
X25969962Y-37546962D01*
X26080405Y-37412387D01*
X26162472Y-37258851D01*
X26213008Y-37092255D01*
X26230072Y-36919001D01*
X26230072Y-36268999D01*
X26213008Y-36095745D01*
X26162472Y-35929149D01*
X26080405Y-35775613D01*
X25969962Y-35641038D01*
X25882184Y-35569000D01*
X25969962Y-35496962D01*
X26080405Y-35362387D01*
X26162472Y-35208851D01*
X26213008Y-35042255D01*
X26230072Y-34869001D01*
X26230072Y-34218999D01*
X26213008Y-34045745D01*
X26162472Y-33879149D01*
X26080405Y-33725613D01*
X26075799Y-33720000D01*
X27996928Y-33720000D01*
X28009188Y-33844482D01*
X28045498Y-33964180D01*
X28104463Y-34074494D01*
X28183815Y-34171185D01*
X28280506Y-34250537D01*
X28390820Y-34309502D01*
X28510518Y-34345812D01*
X28635000Y-34358072D01*
X28924250Y-34355000D01*
X29083000Y-34196250D01*
X29083000Y-33147000D01*
X28158750Y-33147000D01*
X28000000Y-33305750D01*
X27996928Y-33720000D01*
X26075799Y-33720000D01*
X25969962Y-33591038D01*
X25835387Y-33480595D01*
X25681851Y-33398528D01*
X25677000Y-33397056D01*
X25677000Y-33159944D01*
X25681851Y-33158472D01*
X25835387Y-33076405D01*
X25969962Y-32965962D01*
X26080405Y-32831387D01*
X26162472Y-32677851D01*
X26213008Y-32511255D01*
X26230072Y-32338001D01*
X26230072Y-32320000D01*
X27996928Y-32320000D01*
X28000000Y-32734250D01*
X28158750Y-32893000D01*
X29083000Y-32893000D01*
X29083000Y-31843750D01*
X28924250Y-31685000D01*
X28635000Y-31681928D01*
X28510518Y-31694188D01*
X28390820Y-31730498D01*
X28280506Y-31789463D01*
X28183815Y-31868815D01*
X28104463Y-31965506D01*
X28045498Y-32075820D01*
X28009188Y-32195518D01*
X27996928Y-32320000D01*
X26230072Y-32320000D01*
X26230072Y-31687999D01*
X26213008Y-31514745D01*
X26162472Y-31348149D01*
X26080405Y-31194613D01*
X25969962Y-31060038D01*
X25963406Y-31054658D01*
X26043185Y-30989185D01*
X26122537Y-30892494D01*
X26181502Y-30782180D01*
X26217812Y-30662482D01*
X26230072Y-30538000D01*
X26227000Y-30248750D01*
X26068250Y-30090000D01*
X25019000Y-30090000D01*
X25019000Y-30110000D01*
X24765000Y-30110000D01*
X24765000Y-30090000D01*
X23715750Y-30090000D01*
X23557000Y-30248750D01*
X23553928Y-30538000D01*
X23566188Y-30662482D01*
X23602498Y-30782180D01*
X23661463Y-30892494D01*
X23740815Y-30989185D01*
X23820594Y-31054658D01*
X23814038Y-31060038D01*
X23703595Y-31194613D01*
X23621528Y-31348149D01*
X23570992Y-31514745D01*
X23553928Y-31687999D01*
X23553928Y-32338001D01*
X23570992Y-32511255D01*
X23621528Y-32677851D01*
X23703595Y-32831387D01*
X23814038Y-32965962D01*
X23948613Y-33076405D01*
X24102149Y-33158472D01*
X24107001Y-33159944D01*
X24107000Y-33397056D01*
X24102149Y-33398528D01*
X23948613Y-33480595D01*
X23814038Y-33591038D01*
X23703595Y-33725613D01*
X23621528Y-33879149D01*
X23570992Y-34045745D01*
X23553928Y-34218999D01*
X23553928Y-34869001D01*
X23570992Y-35042255D01*
X23621528Y-35208851D01*
X23703595Y-35362387D01*
X23814038Y-35496962D01*
X23901816Y-35569000D01*
X23814038Y-35641038D01*
X23703595Y-35775613D01*
X23621528Y-35929149D01*
X23570992Y-36095745D01*
X23553928Y-36268999D01*
X23553928Y-36821915D01*
X23138784Y-37237059D01*
X23108836Y-37261637D01*
X23084258Y-37291585D01*
X23084254Y-37291589D01*
X23071479Y-37307156D01*
X23010738Y-37381168D01*
X22984467Y-37430318D01*
X22937845Y-37517542D01*
X22892958Y-37665515D01*
X22877802Y-37819401D01*
X18948000Y-37819401D01*
X18948000Y-29388000D01*
X23553928Y-29388000D01*
X23557000Y-29677250D01*
X23715750Y-29836000D01*
X24765000Y-29836000D01*
X24765000Y-28911750D01*
X25019000Y-28911750D01*
X25019000Y-29836000D01*
X26068250Y-29836000D01*
X26227000Y-29677250D01*
X26230072Y-29388000D01*
X26217812Y-29263518D01*
X26181502Y-29143820D01*
X26122537Y-29033506D01*
X26043185Y-28936815D01*
X25946494Y-28857463D01*
X25836180Y-28798498D01*
X25716482Y-28762188D01*
X25592000Y-28749928D01*
X25177750Y-28753000D01*
X25019000Y-28911750D01*
X24765000Y-28911750D01*
X24606250Y-28753000D01*
X24192000Y-28749928D01*
X24067518Y-28762188D01*
X23947820Y-28798498D01*
X23837506Y-28857463D01*
X23740815Y-28936815D01*
X23661463Y-29033506D01*
X23602498Y-29143820D01*
X23566188Y-29263518D01*
X23553928Y-29388000D01*
X18948000Y-29388000D01*
X18948000Y-28640000D01*
X27996928Y-28640000D01*
X28009188Y-28764482D01*
X28045498Y-28884180D01*
X28104463Y-28994494D01*
X28183815Y-29091185D01*
X28280506Y-29170537D01*
X28390820Y-29229502D01*
X28510518Y-29265812D01*
X28635000Y-29278072D01*
X28924250Y-29275000D01*
X29083000Y-29116250D01*
X29083000Y-28067000D01*
X28158750Y-28067000D01*
X28000000Y-28225750D01*
X27996928Y-28640000D01*
X18948000Y-28640000D01*
X18948000Y-27240000D01*
X27996928Y-27240000D01*
X28000000Y-27654250D01*
X28158750Y-27813000D01*
X29083000Y-27813000D01*
X29083000Y-26763750D01*
X29337000Y-26763750D01*
X29337000Y-27813000D01*
X29357000Y-27813000D01*
X29357000Y-28067000D01*
X29337000Y-28067000D01*
X29337000Y-29116250D01*
X29495750Y-29275000D01*
X29785000Y-29278072D01*
X29909482Y-29265812D01*
X30029180Y-29229502D01*
X30139494Y-29170537D01*
X30236185Y-29091185D01*
X30301658Y-29011406D01*
X30307038Y-29017962D01*
X30441613Y-29128405D01*
X30595149Y-29210472D01*
X30761745Y-29261008D01*
X30934999Y-29278072D01*
X31585001Y-29278072D01*
X31758255Y-29261008D01*
X31924851Y-29210472D01*
X32078387Y-29128405D01*
X32143461Y-29075000D01*
X32747397Y-29075000D01*
X32755820Y-29079502D01*
X32875518Y-29115812D01*
X33000000Y-29128072D01*
X37600000Y-29128072D01*
X37724482Y-29115812D01*
X37844180Y-29079502D01*
X37954494Y-29020537D01*
X38051185Y-28941185D01*
X38130537Y-28844494D01*
X38189502Y-28734180D01*
X38225812Y-28614482D01*
X38238072Y-28490000D01*
X38238072Y-27390000D01*
X38225812Y-27265518D01*
X38189502Y-27145820D01*
X38130537Y-27035506D01*
X38051185Y-26938815D01*
X37954494Y-26859463D01*
X37844180Y-26800498D01*
X37724482Y-26764188D01*
X37600000Y-26751928D01*
X36435000Y-26751928D01*
X36435000Y-22655752D01*
X36440491Y-22600000D01*
X36418577Y-22377501D01*
X36353676Y-22163553D01*
X36248284Y-21966377D01*
X36141989Y-21836856D01*
X36141987Y-21836854D01*
X36106449Y-21793551D01*
X36063145Y-21758013D01*
X35978072Y-21672939D01*
X35978072Y-20790000D01*
X35961008Y-20616746D01*
X35910472Y-20450150D01*
X35828405Y-20296614D01*
X35717962Y-20162038D01*
X35583386Y-20051595D01*
X35429850Y-19969528D01*
X35263254Y-19918992D01*
X35090000Y-19901928D01*
X33490000Y-19901928D01*
X33316746Y-19918992D01*
X33150150Y-19969528D01*
X32996614Y-20051595D01*
X32862038Y-20162038D01*
X32751595Y-20296614D01*
X32669528Y-20450150D01*
X32618992Y-20616746D01*
X32601928Y-20790000D01*
X32601928Y-22390000D01*
X32618992Y-22563254D01*
X32669528Y-22729850D01*
X32751595Y-22883386D01*
X32862038Y-23017962D01*
X32996614Y-23128405D01*
X33150150Y-23210472D01*
X33316746Y-23261008D01*
X33490000Y-23278072D01*
X34165001Y-23278072D01*
X34165000Y-26751928D01*
X33000000Y-26751928D01*
X32875518Y-26764188D01*
X32755820Y-26800498D01*
X32747397Y-26805000D01*
X32143461Y-26805000D01*
X32078387Y-26751595D01*
X31924851Y-26669528D01*
X31758255Y-26618992D01*
X31585001Y-26601928D01*
X30934999Y-26601928D01*
X30761745Y-26618992D01*
X30595149Y-26669528D01*
X30441613Y-26751595D01*
X30307038Y-26862038D01*
X30301658Y-26868594D01*
X30236185Y-26788815D01*
X30139494Y-26709463D01*
X30029180Y-26650498D01*
X29909482Y-26614188D01*
X29785000Y-26601928D01*
X29495750Y-26605000D01*
X29337000Y-26763750D01*
X29083000Y-26763750D01*
X28924250Y-26605000D01*
X28635000Y-26601928D01*
X28510518Y-26614188D01*
X28390820Y-26650498D01*
X28280506Y-26709463D01*
X28183815Y-26788815D01*
X28104463Y-26885506D01*
X28045498Y-26995820D01*
X28009188Y-27115518D01*
X27996928Y-27240000D01*
X18948000Y-27240000D01*
X18948000Y-22945676D01*
X19531909Y-22945676D01*
X19868096Y-23414858D01*
X20498058Y-23755227D01*
X21182317Y-23966156D01*
X21894579Y-24039540D01*
X22607472Y-23972559D01*
X23293599Y-23767786D01*
X23926593Y-23433092D01*
X23953884Y-23414858D01*
X24290071Y-22945676D01*
X21910990Y-20566595D01*
X19531909Y-22945676D01*
X18948000Y-22945676D01*
X18948000Y-22476372D01*
X19352304Y-22766071D01*
X21731385Y-20386990D01*
X22090595Y-20386990D01*
X24469676Y-22766071D01*
X24645620Y-22640000D01*
X27521928Y-22640000D01*
X27534188Y-22764482D01*
X27570498Y-22884180D01*
X27629463Y-22994494D01*
X27708815Y-23091185D01*
X27805506Y-23170537D01*
X27915820Y-23229502D01*
X28035518Y-23265812D01*
X28160000Y-23278072D01*
X28924250Y-23275000D01*
X29083000Y-23116250D01*
X29083000Y-21717000D01*
X29337000Y-21717000D01*
X29337000Y-23116250D01*
X29495750Y-23275000D01*
X30260000Y-23278072D01*
X30384482Y-23265812D01*
X30504180Y-23229502D01*
X30614494Y-23170537D01*
X30711185Y-23091185D01*
X30790537Y-22994494D01*
X30849502Y-22884180D01*
X30885812Y-22764482D01*
X30898072Y-22640000D01*
X30895000Y-21875750D01*
X30736250Y-21717000D01*
X29337000Y-21717000D01*
X29083000Y-21717000D01*
X27683750Y-21717000D01*
X27525000Y-21875750D01*
X27521928Y-22640000D01*
X24645620Y-22640000D01*
X24938858Y-22429884D01*
X25279227Y-21799922D01*
X25490156Y-21115663D01*
X25549466Y-20540000D01*
X27521928Y-20540000D01*
X27525000Y-21304250D01*
X27683750Y-21463000D01*
X29083000Y-21463000D01*
X29083000Y-20063750D01*
X29337000Y-20063750D01*
X29337000Y-21463000D01*
X30736250Y-21463000D01*
X30895000Y-21304250D01*
X30898072Y-20540000D01*
X30885812Y-20415518D01*
X30849502Y-20295820D01*
X30790537Y-20185506D01*
X30711185Y-20088815D01*
X30614494Y-20009463D01*
X30504180Y-19950498D01*
X30384482Y-19914188D01*
X30260000Y-19901928D01*
X29495750Y-19905000D01*
X29337000Y-20063750D01*
X29083000Y-20063750D01*
X28924250Y-19905000D01*
X28160000Y-19901928D01*
X28035518Y-19914188D01*
X27915820Y-19950498D01*
X27805506Y-20009463D01*
X27708815Y-20088815D01*
X27629463Y-20185506D01*
X27570498Y-20295820D01*
X27534188Y-20415518D01*
X27521928Y-20540000D01*
X25549466Y-20540000D01*
X25563540Y-20403401D01*
X25496559Y-19690508D01*
X25291786Y-19004381D01*
X24957092Y-18371387D01*
X24938858Y-18344096D01*
X24469676Y-18007909D01*
X22090595Y-20386990D01*
X21731385Y-20386990D01*
X21717243Y-20372848D01*
X21896848Y-20193243D01*
X21910990Y-20207385D01*
X24290071Y-17828304D01*
X24000372Y-17424000D01*
X48916617Y-17424000D01*
X48674919Y-17761314D01*
%TA.AperFunction,Conductor*%
D22*
G36*
X48674919Y-17761314D02*
G01*
X48936578Y-18022973D01*
X48936174Y-18026569D01*
X49463010Y-18553405D01*
X49465010Y-18551405D01*
X49644615Y-18731010D01*
X49642615Y-18733010D01*
X50169451Y-19259846D01*
X50173047Y-19259442D01*
X51054000Y-20140395D01*
X51068143Y-20126253D01*
X51247748Y-20305858D01*
X51233605Y-20320000D01*
X52118558Y-21204953D01*
X52118154Y-21208549D01*
X52644990Y-21735385D01*
X52646990Y-21733385D01*
X52826595Y-21912990D01*
X52824595Y-21914990D01*
X53351431Y-22441826D01*
X53355027Y-22441422D01*
X53612686Y-22699081D01*
X53949303Y-22457882D01*
X53941580Y-46116585D01*
X53612686Y-45880919D01*
X51233605Y-48260000D01*
X51247748Y-48274143D01*
X51068143Y-48453748D01*
X51054000Y-48439605D01*
X48674919Y-50818686D01*
X48916617Y-51156000D01*
X23962393Y-51156000D01*
X24156091Y-50885676D01*
X21777010Y-48506595D01*
X21762868Y-48520738D01*
X21583263Y-48341133D01*
X21597405Y-48326990D01*
X21956615Y-48326990D01*
X24335696Y-50706071D01*
X24804878Y-50369884D01*
X25145247Y-49739922D01*
X25356176Y-49055663D01*
X25429560Y-48343401D01*
X25420183Y-48243589D01*
X47401450Y-48243589D01*
X47468431Y-48956482D01*
X47673204Y-49642609D01*
X48007898Y-50275603D01*
X48026132Y-50302894D01*
X48495314Y-50639081D01*
X50874395Y-48260000D01*
X48495314Y-45880919D01*
X48026132Y-46217106D01*
X47685763Y-46847068D01*
X47474834Y-47531327D01*
X47401450Y-48243589D01*
X25420183Y-48243589D01*
X25362579Y-47630508D01*
X25157806Y-46944381D01*
X24823112Y-46311387D01*
X24804878Y-46284096D01*
X24335696Y-45947909D01*
X21956615Y-48326990D01*
X21597405Y-48326990D01*
X19218324Y-45947909D01*
X18948000Y-46141607D01*
X18948000Y-45768304D01*
X19397929Y-45768304D01*
X21777010Y-48147385D01*
X24156091Y-45768304D01*
X23819904Y-45299122D01*
X23189942Y-44958753D01*
X22505683Y-44747824D01*
X21793421Y-44674440D01*
X21080528Y-44741421D01*
X20394401Y-44946194D01*
X19761407Y-45280888D01*
X19734116Y-45299122D01*
X19397929Y-45768304D01*
X18948000Y-45768304D01*
X18948000Y-43936800D01*
X23378528Y-43936800D01*
X23390788Y-44061282D01*
X23427098Y-44180980D01*
X23486063Y-44291294D01*
X23565415Y-44387985D01*
X23662106Y-44467337D01*
X23772420Y-44526302D01*
X23892118Y-44562612D01*
X24016600Y-44574872D01*
X24580850Y-44571800D01*
X24739600Y-44413050D01*
X24739600Y-43738800D01*
X23540350Y-43738800D01*
X23381600Y-43897550D01*
X23378528Y-43936800D01*
X18948000Y-43936800D01*
X18948000Y-37819401D01*
X22877802Y-37819401D01*
X22881600Y-37857964D01*
X22881599Y-40983246D01*
X22877802Y-41021799D01*
X22881599Y-41060352D01*
X22881599Y-41060359D01*
X22892958Y-41175685D01*
X22937845Y-41323658D01*
X23010737Y-41460031D01*
X23108835Y-41579563D01*
X23136298Y-41602101D01*
X23158836Y-41629564D01*
X23278367Y-41727662D01*
X23414740Y-41800554D01*
X23418297Y-41801633D01*
X23390788Y-41892318D01*
X23378528Y-42016800D01*
X23378528Y-42666800D01*
X23390788Y-42791282D01*
X23427098Y-42910980D01*
X23462280Y-42976800D01*
X23427098Y-43042620D01*
X23390788Y-43162318D01*
X23378528Y-43286800D01*
X23381600Y-43326050D01*
X23540350Y-43484800D01*
X24739600Y-43484800D01*
X24739600Y-43464800D01*
X24993600Y-43464800D01*
X24993600Y-43484800D01*
X25013600Y-43484800D01*
X25013600Y-43738800D01*
X24993600Y-43738800D01*
X24993600Y-44413050D01*
X25152350Y-44571800D01*
X25716600Y-44574872D01*
X25841082Y-44562612D01*
X25960780Y-44526302D01*
X26071094Y-44467337D01*
X26167785Y-44387985D01*
X26244343Y-44294698D01*
X27689455Y-45739810D01*
X27714038Y-45769764D01*
X27833569Y-45867862D01*
X27937892Y-45923623D01*
X27969942Y-45940754D01*
X28117915Y-45985642D01*
X28192828Y-45993020D01*
X28233241Y-45997000D01*
X28233246Y-45997000D01*
X28271802Y-46000797D01*
X28310358Y-45997000D01*
X39585447Y-45997000D01*
X39624000Y-46000797D01*
X39662553Y-45997000D01*
X39662561Y-45997000D01*
X39777887Y-45985641D01*
X39925860Y-45940754D01*
X40062233Y-45867862D01*
X40181764Y-45769764D01*
X40206347Y-45739810D01*
X40244843Y-45701314D01*
X48674919Y-45701314D01*
X51054000Y-48080395D01*
X53433081Y-45701314D01*
X53096894Y-45232132D01*
X52466932Y-44891763D01*
X51782673Y-44680834D01*
X51070411Y-44607450D01*
X50357518Y-44674431D01*
X49671391Y-44879204D01*
X49038397Y-45213898D01*
X49011106Y-45232132D01*
X48674919Y-45701314D01*
X40244843Y-45701314D01*
X40659811Y-45286346D01*
X40689764Y-45261764D01*
X40787862Y-45142233D01*
X40860754Y-45005860D01*
X40905641Y-44857887D01*
X40917000Y-44742561D01*
X40917000Y-44742554D01*
X40920797Y-44704001D01*
X40917000Y-44665448D01*
X40917000Y-41252132D01*
X40958330Y-41293462D01*
X40941928Y-41459999D01*
X40941928Y-42360001D01*
X40958992Y-42533255D01*
X41009528Y-42699851D01*
X41091595Y-42853387D01*
X41202038Y-42987962D01*
X41336613Y-43098405D01*
X41490149Y-43180472D01*
X41656745Y-43231008D01*
X41829999Y-43248072D01*
X42480001Y-43248072D01*
X42653255Y-43231008D01*
X42819851Y-43180472D01*
X42973387Y-43098405D01*
X43107962Y-42987962D01*
X43180000Y-42900184D01*
X43252038Y-42987962D01*
X43386613Y-43098405D01*
X43540149Y-43180472D01*
X43706745Y-43231008D01*
X43879999Y-43248072D01*
X44530001Y-43248072D01*
X44703255Y-43231008D01*
X44869851Y-43180472D01*
X45023387Y-43098405D01*
X45157962Y-42987962D01*
X45268405Y-42853387D01*
X45350472Y-42699851D01*
X45351944Y-42695000D01*
X45779447Y-42695000D01*
X45818000Y-42698797D01*
X45856553Y-42695000D01*
X45856561Y-42695000D01*
X45971887Y-42683641D01*
X46119860Y-42638754D01*
X46256233Y-42565862D01*
X46375764Y-42467764D01*
X46400347Y-42437810D01*
X47544157Y-41294000D01*
X48695928Y-41294000D01*
X48708188Y-41418482D01*
X48744498Y-41538180D01*
X48803463Y-41648494D01*
X48882815Y-41745185D01*
X48979506Y-41824537D01*
X49089820Y-41883502D01*
X49209518Y-41919812D01*
X49334000Y-41932072D01*
X49498250Y-41929000D01*
X49657000Y-41770250D01*
X49657000Y-41021000D01*
X49911000Y-41021000D01*
X49911000Y-41770250D01*
X50069750Y-41929000D01*
X50234000Y-41932072D01*
X50358482Y-41919812D01*
X50478180Y-41883502D01*
X50588494Y-41824537D01*
X50685185Y-41745185D01*
X50764537Y-41648494D01*
X50823502Y-41538180D01*
X50859812Y-41418482D01*
X50872072Y-41294000D01*
X50869000Y-41179750D01*
X50710250Y-41021000D01*
X49911000Y-41021000D01*
X49657000Y-41021000D01*
X48857750Y-41021000D01*
X48699000Y-41179750D01*
X48695928Y-41294000D01*
X47544157Y-41294000D01*
X47856085Y-40982072D01*
X48234000Y-40982072D01*
X48358482Y-40969812D01*
X48478180Y-40933502D01*
X48588494Y-40874537D01*
X48685185Y-40795185D01*
X48739501Y-40729000D01*
X48819750Y-40729000D01*
X48857750Y-40767000D01*
X49657000Y-40767000D01*
X49657000Y-40747000D01*
X49911000Y-40747000D01*
X49911000Y-40767000D01*
X50710250Y-40767000D01*
X50869000Y-40608250D01*
X50871867Y-40501642D01*
X50896349Y-40471811D01*
X51581816Y-39786343D01*
X51611764Y-39761766D01*
X51709862Y-39642235D01*
X51782754Y-39505862D01*
X51805089Y-39432233D01*
X51827641Y-39357890D01*
X51830159Y-39332324D01*
X51839000Y-39242563D01*
X51839000Y-39242556D01*
X51842797Y-39204003D01*
X51839000Y-39165450D01*
X51839000Y-24168561D01*
X51842798Y-24130000D01*
X51827641Y-23976113D01*
X51801613Y-23890309D01*
X52436609Y-23700796D01*
X53069603Y-23366102D01*
X53096894Y-23347868D01*
X53433081Y-22878686D01*
X51054000Y-20499605D01*
X48674919Y-22878686D01*
X49009051Y-23345000D01*
X47315156Y-23345000D01*
X47057813Y-23087656D01*
X46138072Y-22167915D01*
X46138072Y-20790000D01*
X46121008Y-20616746D01*
X46070472Y-20450150D01*
X45992134Y-20303589D01*
X47401450Y-20303589D01*
X47468431Y-21016482D01*
X47673204Y-21702609D01*
X48007898Y-22335603D01*
X48026132Y-22362894D01*
X48495314Y-22699081D01*
X48752973Y-22441422D01*
X48756569Y-22441826D01*
X49283405Y-21914990D01*
X49281405Y-21912990D01*
X49461010Y-21733385D01*
X49463010Y-21735385D01*
X49989846Y-21208549D01*
X49989442Y-21204953D01*
X50874395Y-20320000D01*
X48495314Y-17940919D01*
X48026132Y-18277106D01*
X47685763Y-18907068D01*
X47474834Y-19591327D01*
X47401450Y-20303589D01*
X45992134Y-20303589D01*
X45988405Y-20296614D01*
X45877962Y-20162038D01*
X45743386Y-20051595D01*
X45589850Y-19969528D01*
X45423254Y-19918992D01*
X45250000Y-19901928D01*
X43650000Y-19901928D01*
X43476746Y-19918992D01*
X43310150Y-19969528D01*
X43156614Y-20051595D01*
X43022038Y-20162038D01*
X42911595Y-20296614D01*
X42829528Y-20450150D01*
X42778992Y-20616746D01*
X42761928Y-20790000D01*
X42761928Y-22390000D01*
X42778992Y-22563254D01*
X42829528Y-22729850D01*
X42911595Y-22883386D01*
X43022038Y-23017962D01*
X43156614Y-23128405D01*
X43310150Y-23210472D01*
X43476746Y-23261008D01*
X43650000Y-23278072D01*
X45027915Y-23278072D01*
X45602843Y-23853000D01*
X42743158Y-23853000D01*
X41058072Y-22167915D01*
X41058072Y-20790000D01*
X41041008Y-20616746D01*
X40990472Y-20450150D01*
X40908405Y-20296614D01*
X40797962Y-20162038D01*
X40663386Y-20051595D01*
X40509850Y-19969528D01*
X40343254Y-19918992D01*
X40170000Y-19901928D01*
X38570000Y-19901928D01*
X38396746Y-19918992D01*
X38230150Y-19969528D01*
X38076614Y-20051595D01*
X37942038Y-20162038D01*
X37831595Y-20296614D01*
X37749528Y-20450150D01*
X37698992Y-20616746D01*
X37681928Y-20790000D01*
X37681928Y-22390000D01*
X37698992Y-22563254D01*
X37749528Y-22729850D01*
X37831595Y-22883386D01*
X37942038Y-23017962D01*
X38076614Y-23128405D01*
X38230150Y-23210472D01*
X38396746Y-23261008D01*
X38570000Y-23278072D01*
X39947915Y-23278072D01*
X41112719Y-24442876D01*
X39750000Y-24441928D01*
X39625518Y-24454188D01*
X39505820Y-24490498D01*
X39395506Y-24549463D01*
X39298815Y-24628815D01*
X39219463Y-24725506D01*
X39160498Y-24835820D01*
X39124188Y-24955518D01*
X39111928Y-25080000D01*
X39115000Y-30194250D01*
X39273750Y-30353000D01*
X44323000Y-30353000D01*
X44323000Y-30333000D01*
X44577000Y-30333000D01*
X44577000Y-30353000D01*
X44597000Y-30353000D01*
X44597000Y-30607000D01*
X44577000Y-30607000D01*
X44577000Y-30627000D01*
X44323000Y-30627000D01*
X44323000Y-30607000D01*
X39273750Y-30607000D01*
X39115000Y-30765750D01*
X39111928Y-35880000D01*
X39124188Y-36004482D01*
X39160498Y-36124180D01*
X39219463Y-36234494D01*
X39298815Y-36331185D01*
X39395506Y-36410537D01*
X39505820Y-36469502D01*
X39625518Y-36505812D01*
X39750000Y-36518072D01*
X41267280Y-36517016D01*
X39787029Y-37997267D01*
X39781932Y-37971642D01*
X39669990Y-37701389D01*
X39507475Y-37458168D01*
X39489000Y-37439693D01*
X39489000Y-37393743D01*
X39494490Y-37337999D01*
X39489000Y-37282255D01*
X39489000Y-37282248D01*
X39472577Y-37115501D01*
X39468972Y-37103615D01*
X39447548Y-37032992D01*
X39407676Y-36901553D01*
X39302284Y-36704377D01*
X39160449Y-36531551D01*
X39117141Y-36496009D01*
X36829203Y-34208072D01*
X37600000Y-34208072D01*
X37724482Y-34195812D01*
X37844180Y-34159502D01*
X37954494Y-34100537D01*
X38051185Y-34021185D01*
X38130537Y-33924494D01*
X38189502Y-33814180D01*
X38225812Y-33694482D01*
X38238072Y-33570000D01*
X38238072Y-32470000D01*
X38225812Y-32345518D01*
X38189502Y-32225820D01*
X38130537Y-32115506D01*
X38051185Y-32018815D01*
X37954494Y-31939463D01*
X37844180Y-31880498D01*
X37724482Y-31844188D01*
X37600000Y-31831928D01*
X33000000Y-31831928D01*
X32875518Y-31844188D01*
X32755820Y-31880498D01*
X32747397Y-31885000D01*
X32143461Y-31885000D01*
X32078387Y-31831595D01*
X31924851Y-31749528D01*
X31758255Y-31698992D01*
X31585001Y-31681928D01*
X30934999Y-31681928D01*
X30761745Y-31698992D01*
X30595149Y-31749528D01*
X30441613Y-31831595D01*
X30307038Y-31942038D01*
X30301658Y-31948594D01*
X30236185Y-31868815D01*
X30139494Y-31789463D01*
X30029180Y-31730498D01*
X29909482Y-31694188D01*
X29785000Y-31681928D01*
X29495750Y-31685000D01*
X29337000Y-31843750D01*
X29337000Y-32893000D01*
X29357000Y-32893000D01*
X29357000Y-33147000D01*
X29337000Y-33147000D01*
X29337000Y-34196250D01*
X29490549Y-34349799D01*
X28855265Y-34985084D01*
X28693745Y-35000992D01*
X28527149Y-35051528D01*
X28373613Y-35133595D01*
X28239038Y-35244038D01*
X28128595Y-35378613D01*
X28046528Y-35532149D01*
X27995992Y-35698745D01*
X27978928Y-35871999D01*
X27978928Y-36772001D01*
X27995992Y-36945255D01*
X28046528Y-37111851D01*
X28128595Y-37265387D01*
X28239038Y-37399962D01*
X28373613Y-37510405D01*
X28527149Y-37592472D01*
X28693745Y-37643008D01*
X28866999Y-37660072D01*
X29517001Y-37660072D01*
X29690255Y-37643008D01*
X29856851Y-37592472D01*
X30010387Y-37510405D01*
X30107000Y-37431116D01*
X30107001Y-38821439D01*
X30101509Y-38877200D01*
X30123423Y-39099698D01*
X30188324Y-39313646D01*
X30215008Y-39363568D01*
X30293717Y-39510823D01*
X30435552Y-39683649D01*
X30478860Y-39719191D01*
X30678528Y-39918859D01*
X30678528Y-40126800D01*
X30690788Y-40251282D01*
X30727098Y-40370980D01*
X30762280Y-40436800D01*
X30727098Y-40502620D01*
X30690788Y-40622318D01*
X30678528Y-40746800D01*
X30678528Y-41396800D01*
X30690788Y-41521282D01*
X30727098Y-41640980D01*
X30762280Y-41706800D01*
X30727098Y-41772620D01*
X30690788Y-41892318D01*
X30678528Y-42016800D01*
X30678528Y-42666800D01*
X30690788Y-42791282D01*
X30708010Y-42848054D01*
X27133945Y-39273990D01*
X27109362Y-39244036D01*
X26989831Y-39145938D01*
X26853458Y-39073046D01*
X26705485Y-39028159D01*
X26590159Y-39016800D01*
X26590151Y-39016800D01*
X26551598Y-39013003D01*
X26513045Y-39016800D01*
X26157044Y-39016800D01*
X26071094Y-38946263D01*
X25960780Y-38887298D01*
X25841082Y-38850988D01*
X25716600Y-38838728D01*
X24451599Y-38838728D01*
X24451599Y-38144558D01*
X24789085Y-37807072D01*
X25342001Y-37807072D01*
X25515255Y-37790008D01*
X25681851Y-37739472D01*
X25835387Y-37657405D01*
X25969962Y-37546962D01*
X26080405Y-37412387D01*
X26162472Y-37258851D01*
X26213008Y-37092255D01*
X26230072Y-36919001D01*
X26230072Y-36268999D01*
X26213008Y-36095745D01*
X26162472Y-35929149D01*
X26080405Y-35775613D01*
X25969962Y-35641038D01*
X25882184Y-35569000D01*
X25969962Y-35496962D01*
X26080405Y-35362387D01*
X26162472Y-35208851D01*
X26213008Y-35042255D01*
X26230072Y-34869001D01*
X26230072Y-34218999D01*
X26213008Y-34045745D01*
X26162472Y-33879149D01*
X26080405Y-33725613D01*
X26075799Y-33720000D01*
X27996928Y-33720000D01*
X28009188Y-33844482D01*
X28045498Y-33964180D01*
X28104463Y-34074494D01*
X28183815Y-34171185D01*
X28280506Y-34250537D01*
X28390820Y-34309502D01*
X28510518Y-34345812D01*
X28635000Y-34358072D01*
X28924250Y-34355000D01*
X29083000Y-34196250D01*
X29083000Y-33147000D01*
X28158750Y-33147000D01*
X28000000Y-33305750D01*
X27996928Y-33720000D01*
X26075799Y-33720000D01*
X25969962Y-33591038D01*
X25835387Y-33480595D01*
X25681851Y-33398528D01*
X25677000Y-33397056D01*
X25677000Y-33159944D01*
X25681851Y-33158472D01*
X25835387Y-33076405D01*
X25969962Y-32965962D01*
X26080405Y-32831387D01*
X26162472Y-32677851D01*
X26213008Y-32511255D01*
X26230072Y-32338001D01*
X26230072Y-32320000D01*
X27996928Y-32320000D01*
X28000000Y-32734250D01*
X28158750Y-32893000D01*
X29083000Y-32893000D01*
X29083000Y-31843750D01*
X28924250Y-31685000D01*
X28635000Y-31681928D01*
X28510518Y-31694188D01*
X28390820Y-31730498D01*
X28280506Y-31789463D01*
X28183815Y-31868815D01*
X28104463Y-31965506D01*
X28045498Y-32075820D01*
X28009188Y-32195518D01*
X27996928Y-32320000D01*
X26230072Y-32320000D01*
X26230072Y-31687999D01*
X26213008Y-31514745D01*
X26162472Y-31348149D01*
X26080405Y-31194613D01*
X25969962Y-31060038D01*
X25963406Y-31054658D01*
X26043185Y-30989185D01*
X26122537Y-30892494D01*
X26181502Y-30782180D01*
X26217812Y-30662482D01*
X26230072Y-30538000D01*
X26227000Y-30248750D01*
X26068250Y-30090000D01*
X25019000Y-30090000D01*
X25019000Y-30110000D01*
X24765000Y-30110000D01*
X24765000Y-30090000D01*
X23715750Y-30090000D01*
X23557000Y-30248750D01*
X23553928Y-30538000D01*
X23566188Y-30662482D01*
X23602498Y-30782180D01*
X23661463Y-30892494D01*
X23740815Y-30989185D01*
X23820594Y-31054658D01*
X23814038Y-31060038D01*
X23703595Y-31194613D01*
X23621528Y-31348149D01*
X23570992Y-31514745D01*
X23553928Y-31687999D01*
X23553928Y-32338001D01*
X23570992Y-32511255D01*
X23621528Y-32677851D01*
X23703595Y-32831387D01*
X23814038Y-32965962D01*
X23948613Y-33076405D01*
X24102149Y-33158472D01*
X24107001Y-33159944D01*
X24107000Y-33397056D01*
X24102149Y-33398528D01*
X23948613Y-33480595D01*
X23814038Y-33591038D01*
X23703595Y-33725613D01*
X23621528Y-33879149D01*
X23570992Y-34045745D01*
X23553928Y-34218999D01*
X23553928Y-34869001D01*
X23570992Y-35042255D01*
X23621528Y-35208851D01*
X23703595Y-35362387D01*
X23814038Y-35496962D01*
X23901816Y-35569000D01*
X23814038Y-35641038D01*
X23703595Y-35775613D01*
X23621528Y-35929149D01*
X23570992Y-36095745D01*
X23553928Y-36268999D01*
X23553928Y-36821915D01*
X23138784Y-37237059D01*
X23108836Y-37261637D01*
X23084258Y-37291585D01*
X23084254Y-37291589D01*
X23071479Y-37307156D01*
X23010738Y-37381168D01*
X22984467Y-37430318D01*
X22937845Y-37517542D01*
X22892958Y-37665515D01*
X22877802Y-37819401D01*
X18948000Y-37819401D01*
X18948000Y-29388000D01*
X23553928Y-29388000D01*
X23557000Y-29677250D01*
X23715750Y-29836000D01*
X24765000Y-29836000D01*
X24765000Y-28911750D01*
X25019000Y-28911750D01*
X25019000Y-29836000D01*
X26068250Y-29836000D01*
X26227000Y-29677250D01*
X26230072Y-29388000D01*
X26217812Y-29263518D01*
X26181502Y-29143820D01*
X26122537Y-29033506D01*
X26043185Y-28936815D01*
X25946494Y-28857463D01*
X25836180Y-28798498D01*
X25716482Y-28762188D01*
X25592000Y-28749928D01*
X25177750Y-28753000D01*
X25019000Y-28911750D01*
X24765000Y-28911750D01*
X24606250Y-28753000D01*
X24192000Y-28749928D01*
X24067518Y-28762188D01*
X23947820Y-28798498D01*
X23837506Y-28857463D01*
X23740815Y-28936815D01*
X23661463Y-29033506D01*
X23602498Y-29143820D01*
X23566188Y-29263518D01*
X23553928Y-29388000D01*
X18948000Y-29388000D01*
X18948000Y-28640000D01*
X27996928Y-28640000D01*
X28009188Y-28764482D01*
X28045498Y-28884180D01*
X28104463Y-28994494D01*
X28183815Y-29091185D01*
X28280506Y-29170537D01*
X28390820Y-29229502D01*
X28510518Y-29265812D01*
X28635000Y-29278072D01*
X28924250Y-29275000D01*
X29083000Y-29116250D01*
X29083000Y-28067000D01*
X28158750Y-28067000D01*
X28000000Y-28225750D01*
X27996928Y-28640000D01*
X18948000Y-28640000D01*
X18948000Y-27240000D01*
X27996928Y-27240000D01*
X28000000Y-27654250D01*
X28158750Y-27813000D01*
X29083000Y-27813000D01*
X29083000Y-26763750D01*
X29337000Y-26763750D01*
X29337000Y-27813000D01*
X29357000Y-27813000D01*
X29357000Y-28067000D01*
X29337000Y-28067000D01*
X29337000Y-29116250D01*
X29495750Y-29275000D01*
X29785000Y-29278072D01*
X29909482Y-29265812D01*
X30029180Y-29229502D01*
X30139494Y-29170537D01*
X30236185Y-29091185D01*
X30301658Y-29011406D01*
X30307038Y-29017962D01*
X30441613Y-29128405D01*
X30595149Y-29210472D01*
X30761745Y-29261008D01*
X30934999Y-29278072D01*
X31585001Y-29278072D01*
X31758255Y-29261008D01*
X31924851Y-29210472D01*
X32078387Y-29128405D01*
X32143461Y-29075000D01*
X32747397Y-29075000D01*
X32755820Y-29079502D01*
X32875518Y-29115812D01*
X33000000Y-29128072D01*
X37600000Y-29128072D01*
X37724482Y-29115812D01*
X37844180Y-29079502D01*
X37954494Y-29020537D01*
X38051185Y-28941185D01*
X38130537Y-28844494D01*
X38189502Y-28734180D01*
X38225812Y-28614482D01*
X38238072Y-28490000D01*
X38238072Y-27390000D01*
X38225812Y-27265518D01*
X38189502Y-27145820D01*
X38130537Y-27035506D01*
X38051185Y-26938815D01*
X37954494Y-26859463D01*
X37844180Y-26800498D01*
X37724482Y-26764188D01*
X37600000Y-26751928D01*
X36435000Y-26751928D01*
X36435000Y-22655752D01*
X36440491Y-22600000D01*
X36418577Y-22377501D01*
X36353676Y-22163553D01*
X36248284Y-21966377D01*
X36141989Y-21836856D01*
X36141987Y-21836854D01*
X36106449Y-21793551D01*
X36063145Y-21758013D01*
X35978072Y-21672939D01*
X35978072Y-20790000D01*
X35961008Y-20616746D01*
X35910472Y-20450150D01*
X35828405Y-20296614D01*
X35717962Y-20162038D01*
X35583386Y-20051595D01*
X35429850Y-19969528D01*
X35263254Y-19918992D01*
X35090000Y-19901928D01*
X33490000Y-19901928D01*
X33316746Y-19918992D01*
X33150150Y-19969528D01*
X32996614Y-20051595D01*
X32862038Y-20162038D01*
X32751595Y-20296614D01*
X32669528Y-20450150D01*
X32618992Y-20616746D01*
X32601928Y-20790000D01*
X32601928Y-22390000D01*
X32618992Y-22563254D01*
X32669528Y-22729850D01*
X32751595Y-22883386D01*
X32862038Y-23017962D01*
X32996614Y-23128405D01*
X33150150Y-23210472D01*
X33316746Y-23261008D01*
X33490000Y-23278072D01*
X34165001Y-23278072D01*
X34165000Y-26751928D01*
X33000000Y-26751928D01*
X32875518Y-26764188D01*
X32755820Y-26800498D01*
X32747397Y-26805000D01*
X32143461Y-26805000D01*
X32078387Y-26751595D01*
X31924851Y-26669528D01*
X31758255Y-26618992D01*
X31585001Y-26601928D01*
X30934999Y-26601928D01*
X30761745Y-26618992D01*
X30595149Y-26669528D01*
X30441613Y-26751595D01*
X30307038Y-26862038D01*
X30301658Y-26868594D01*
X30236185Y-26788815D01*
X30139494Y-26709463D01*
X30029180Y-26650498D01*
X29909482Y-26614188D01*
X29785000Y-26601928D01*
X29495750Y-26605000D01*
X29337000Y-26763750D01*
X29083000Y-26763750D01*
X28924250Y-26605000D01*
X28635000Y-26601928D01*
X28510518Y-26614188D01*
X28390820Y-26650498D01*
X28280506Y-26709463D01*
X28183815Y-26788815D01*
X28104463Y-26885506D01*
X28045498Y-26995820D01*
X28009188Y-27115518D01*
X27996928Y-27240000D01*
X18948000Y-27240000D01*
X18948000Y-22945676D01*
X19531909Y-22945676D01*
X19868096Y-23414858D01*
X20498058Y-23755227D01*
X21182317Y-23966156D01*
X21894579Y-24039540D01*
X22607472Y-23972559D01*
X23293599Y-23767786D01*
X23926593Y-23433092D01*
X23953884Y-23414858D01*
X24290071Y-22945676D01*
X21910990Y-20566595D01*
X19531909Y-22945676D01*
X18948000Y-22945676D01*
X18948000Y-22476372D01*
X19352304Y-22766071D01*
X21731385Y-20386990D01*
X22090595Y-20386990D01*
X24469676Y-22766071D01*
X24645620Y-22640000D01*
X27521928Y-22640000D01*
X27534188Y-22764482D01*
X27570498Y-22884180D01*
X27629463Y-22994494D01*
X27708815Y-23091185D01*
X27805506Y-23170537D01*
X27915820Y-23229502D01*
X28035518Y-23265812D01*
X28160000Y-23278072D01*
X28924250Y-23275000D01*
X29083000Y-23116250D01*
X29083000Y-21717000D01*
X29337000Y-21717000D01*
X29337000Y-23116250D01*
X29495750Y-23275000D01*
X30260000Y-23278072D01*
X30384482Y-23265812D01*
X30504180Y-23229502D01*
X30614494Y-23170537D01*
X30711185Y-23091185D01*
X30790537Y-22994494D01*
X30849502Y-22884180D01*
X30885812Y-22764482D01*
X30898072Y-22640000D01*
X30895000Y-21875750D01*
X30736250Y-21717000D01*
X29337000Y-21717000D01*
X29083000Y-21717000D01*
X27683750Y-21717000D01*
X27525000Y-21875750D01*
X27521928Y-22640000D01*
X24645620Y-22640000D01*
X24938858Y-22429884D01*
X25279227Y-21799922D01*
X25490156Y-21115663D01*
X25549466Y-20540000D01*
X27521928Y-20540000D01*
X27525000Y-21304250D01*
X27683750Y-21463000D01*
X29083000Y-21463000D01*
X29083000Y-20063750D01*
X29337000Y-20063750D01*
X29337000Y-21463000D01*
X30736250Y-21463000D01*
X30895000Y-21304250D01*
X30898072Y-20540000D01*
X30885812Y-20415518D01*
X30849502Y-20295820D01*
X30790537Y-20185506D01*
X30711185Y-20088815D01*
X30614494Y-20009463D01*
X30504180Y-19950498D01*
X30384482Y-19914188D01*
X30260000Y-19901928D01*
X29495750Y-19905000D01*
X29337000Y-20063750D01*
X29083000Y-20063750D01*
X28924250Y-19905000D01*
X28160000Y-19901928D01*
X28035518Y-19914188D01*
X27915820Y-19950498D01*
X27805506Y-20009463D01*
X27708815Y-20088815D01*
X27629463Y-20185506D01*
X27570498Y-20295820D01*
X27534188Y-20415518D01*
X27521928Y-20540000D01*
X25549466Y-20540000D01*
X25563540Y-20403401D01*
X25496559Y-19690508D01*
X25291786Y-19004381D01*
X24957092Y-18371387D01*
X24938858Y-18344096D01*
X24469676Y-18007909D01*
X22090595Y-20386990D01*
X21731385Y-20386990D01*
X21717243Y-20372848D01*
X21896848Y-20193243D01*
X21910990Y-20207385D01*
X24290071Y-17828304D01*
X24000372Y-17424000D01*
X48916617Y-17424000D01*
X48674919Y-17761314D01*
G37*
%TD.AperFunction*%
D21*
X38481000Y-43357800D02*
X38501000Y-43357800D01*
X38501000Y-43611800D01*
X38481000Y-43611800D01*
X38481000Y-43631800D01*
X38227000Y-43631800D01*
X38227000Y-43611800D01*
X38207000Y-43611800D01*
X38207000Y-43357800D01*
X38227000Y-43357800D01*
X38227000Y-43337800D01*
X38481000Y-43337800D01*
X38481000Y-43357800D01*
%TA.AperFunction,Conductor*%
D22*
G36*
X38481000Y-43357800D02*
G01*
X38501000Y-43357800D01*
X38501000Y-43611800D01*
X38481000Y-43611800D01*
X38481000Y-43631800D01*
X38227000Y-43631800D01*
X38227000Y-43611800D01*
X38207000Y-43611800D01*
X38207000Y-43357800D01*
X38227000Y-43357800D01*
X38227000Y-43337800D01*
X38481000Y-43337800D01*
X38481000Y-43357800D01*
G37*
%TD.AperFunction*%
%TD*%
M02*
