%TF.GenerationSoftware,KiCad,Pcbnew,5.1.9*%
%TF.CreationDate,2021-02-14T15:49:58+01:00*%
%TF.ProjectId,test,74657374-2e6b-4696-9361-645f70636258,rev?*%
%TF.SameCoordinates,Original*%
%TF.FileFunction,Legend,Top*%
%TF.FilePolarity,Positive*%
%FSLAX46Y46*%
G04 Gerber Fmt 4.6, Leading zero omitted, Abs format (unit mm)*
G04 Created by KiCad (PCBNEW 5.1.9) date 2021-02-14 15:49:58*
%MOMM*%
%LPD*%
G01*
G04 APERTURE LIST*
%ADD10C,0.200000*%
%ADD11C,0.300000*%
%ADD12C,0.120000*%
%ADD13C,0.150000*%
G04 APERTURE END LIST*
D10*
X40284476Y-43288000D02*
X40208285Y-43249904D01*
X40094000Y-43249904D01*
X39979714Y-43288000D01*
X39903523Y-43364190D01*
X39865428Y-43440380D01*
X39827333Y-43592761D01*
X39827333Y-43707047D01*
X39865428Y-43859428D01*
X39903523Y-43935619D01*
X39979714Y-44011809D01*
X40094000Y-44049904D01*
X40170190Y-44049904D01*
X40284476Y-44011809D01*
X40322571Y-43973714D01*
X40322571Y-43707047D01*
X40170190Y-43707047D01*
X40665428Y-44049904D02*
X40665428Y-43249904D01*
X41122571Y-44049904D01*
X41122571Y-43249904D01*
X41503523Y-44049904D02*
X41503523Y-43249904D01*
X41694000Y-43249904D01*
X41808285Y-43288000D01*
X41884476Y-43364190D01*
X41922571Y-43440380D01*
X41960666Y-43592761D01*
X41960666Y-43707047D01*
X41922571Y-43859428D01*
X41884476Y-43935619D01*
X41808285Y-44011809D01*
X41694000Y-44049904D01*
X41503523Y-44049904D01*
D11*
X33536285Y-46671571D02*
X34393428Y-46671571D01*
X33964857Y-48171571D02*
X33964857Y-46671571D01*
X34750571Y-46671571D02*
X35750571Y-48171571D01*
X35750571Y-46671571D02*
X34750571Y-48171571D01*
X36250571Y-46814428D02*
X36322000Y-46743000D01*
X36464857Y-46671571D01*
X36822000Y-46671571D01*
X36964857Y-46743000D01*
X37036285Y-46814428D01*
X37107714Y-46957285D01*
X37107714Y-47100142D01*
X37036285Y-47314428D01*
X36179142Y-48171571D01*
X37107714Y-48171571D01*
X37750571Y-47600142D02*
X38893428Y-47600142D01*
X27857714Y-50293000D02*
X28572000Y-50293000D01*
X27714857Y-50721571D02*
X28214857Y-49221571D01*
X28714857Y-50721571D01*
X29857714Y-49721571D02*
X29857714Y-50721571D01*
X29214857Y-49721571D02*
X29214857Y-50507285D01*
X29286285Y-50650142D01*
X29429142Y-50721571D01*
X29643428Y-50721571D01*
X29786285Y-50650142D01*
X29857714Y-50578714D01*
X30357714Y-49721571D02*
X30929142Y-49721571D01*
X30572000Y-49221571D02*
X30572000Y-50507285D01*
X30643428Y-50650142D01*
X30786285Y-50721571D01*
X30929142Y-50721571D01*
X31643428Y-50721571D02*
X31500571Y-50650142D01*
X31429142Y-50578714D01*
X31357714Y-50435857D01*
X31357714Y-50007285D01*
X31429142Y-49864428D01*
X31500571Y-49793000D01*
X31643428Y-49721571D01*
X31857714Y-49721571D01*
X32000571Y-49793000D01*
X32072000Y-49864428D01*
X32143428Y-50007285D01*
X32143428Y-50435857D01*
X32072000Y-50578714D01*
X32000571Y-50650142D01*
X31857714Y-50721571D01*
X31643428Y-50721571D01*
X32786285Y-50721571D02*
X32786285Y-49221571D01*
X33357714Y-49221571D01*
X33500571Y-49293000D01*
X33572000Y-49364428D01*
X33643428Y-49507285D01*
X33643428Y-49721571D01*
X33572000Y-49864428D01*
X33500571Y-49935857D01*
X33357714Y-50007285D01*
X32786285Y-50007285D01*
X34500571Y-50721571D02*
X34357714Y-50650142D01*
X34286285Y-50578714D01*
X34214857Y-50435857D01*
X34214857Y-50007285D01*
X34286285Y-49864428D01*
X34357714Y-49793000D01*
X34500571Y-49721571D01*
X34714857Y-49721571D01*
X34857714Y-49793000D01*
X34929142Y-49864428D01*
X35000571Y-50007285D01*
X35000571Y-50435857D01*
X34929142Y-50578714D01*
X34857714Y-50650142D01*
X34714857Y-50721571D01*
X34500571Y-50721571D01*
X35500571Y-49721571D02*
X35786285Y-50721571D01*
X36072000Y-50007285D01*
X36357714Y-50721571D01*
X36643428Y-49721571D01*
X37786285Y-50650142D02*
X37643428Y-50721571D01*
X37357714Y-50721571D01*
X37214857Y-50650142D01*
X37143428Y-50507285D01*
X37143428Y-49935857D01*
X37214857Y-49793000D01*
X37357714Y-49721571D01*
X37643428Y-49721571D01*
X37786285Y-49793000D01*
X37857714Y-49935857D01*
X37857714Y-50078714D01*
X37143428Y-50221571D01*
X38500571Y-50721571D02*
X38500571Y-49721571D01*
X38500571Y-50007285D02*
X38572000Y-49864428D01*
X38643428Y-49793000D01*
X38786285Y-49721571D01*
X38929142Y-49721571D01*
X40357714Y-49221571D02*
X40857714Y-50721571D01*
X41357714Y-49221571D01*
X42643428Y-50721571D02*
X41786285Y-50721571D01*
X42214857Y-50721571D02*
X42214857Y-49221571D01*
X42072000Y-49435857D01*
X41929142Y-49578714D01*
X41786285Y-49650142D01*
X43286285Y-50578714D02*
X43357714Y-50650142D01*
X43286285Y-50721571D01*
X43214857Y-50650142D01*
X43286285Y-50578714D01*
X43286285Y-50721571D01*
X44286285Y-49221571D02*
X44429142Y-49221571D01*
X44572000Y-49293000D01*
X44643428Y-49364428D01*
X44714857Y-49507285D01*
X44786285Y-49793000D01*
X44786285Y-50150142D01*
X44714857Y-50435857D01*
X44643428Y-50578714D01*
X44572000Y-50650142D01*
X44429142Y-50721571D01*
X44286285Y-50721571D01*
X44143428Y-50650142D01*
X44072000Y-50578714D01*
X44000571Y-50435857D01*
X43929142Y-50150142D01*
X43929142Y-49793000D01*
X44000571Y-49507285D01*
X44072000Y-49364428D01*
X44143428Y-49293000D01*
X44286285Y-49221571D01*
X23213142Y-33222000D02*
X23284571Y-33007714D01*
X23284571Y-32650571D01*
X23213142Y-32507714D01*
X23141714Y-32436285D01*
X22998857Y-32364857D01*
X22856000Y-32364857D01*
X22713142Y-32436285D01*
X22641714Y-32507714D01*
X22570285Y-32650571D01*
X22498857Y-32936285D01*
X22427428Y-33079142D01*
X22356000Y-33150571D01*
X22213142Y-33222000D01*
X22070285Y-33222000D01*
X21927428Y-33150571D01*
X21856000Y-33079142D01*
X21784571Y-32936285D01*
X21784571Y-32579142D01*
X21856000Y-32364857D01*
X22284571Y-31936285D02*
X22284571Y-31364857D01*
X21784571Y-31722000D02*
X23070285Y-31722000D01*
X23213142Y-31650571D01*
X23284571Y-31507714D01*
X23284571Y-31364857D01*
X23284571Y-30222000D02*
X22498857Y-30222000D01*
X22356000Y-30293428D01*
X22284571Y-30436285D01*
X22284571Y-30722000D01*
X22356000Y-30864857D01*
X23213142Y-30222000D02*
X23284571Y-30364857D01*
X23284571Y-30722000D01*
X23213142Y-30864857D01*
X23070285Y-30936285D01*
X22927428Y-30936285D01*
X22784571Y-30864857D01*
X22713142Y-30722000D01*
X22713142Y-30364857D01*
X22641714Y-30222000D01*
X22284571Y-29722000D02*
X22284571Y-29150571D01*
X21784571Y-29507714D02*
X23070285Y-29507714D01*
X23213142Y-29436285D01*
X23284571Y-29293428D01*
X23284571Y-29150571D01*
X22284571Y-28007714D02*
X23284571Y-28007714D01*
X22284571Y-28650571D02*
X23070285Y-28650571D01*
X23213142Y-28579142D01*
X23284571Y-28436285D01*
X23284571Y-28222000D01*
X23213142Y-28079142D01*
X23141714Y-28007714D01*
X23213142Y-27364857D02*
X23284571Y-27222000D01*
X23284571Y-26936285D01*
X23213142Y-26793428D01*
X23070285Y-26722000D01*
X22998857Y-26722000D01*
X22856000Y-26793428D01*
X22784571Y-26936285D01*
X22784571Y-27150571D01*
X22713142Y-27293428D01*
X22570285Y-27364857D01*
X22498857Y-27364857D01*
X22356000Y-27293428D01*
X22284571Y-27150571D01*
X22284571Y-26936285D01*
X22356000Y-26793428D01*
D12*
%TO.C,J1*%
X34484000Y-37074800D02*
X35814000Y-37074800D01*
X34484000Y-38404800D02*
X34484000Y-37074800D01*
X37084000Y-37074800D02*
X39684000Y-37074800D01*
X37084000Y-39674800D02*
X37084000Y-37074800D01*
X34484000Y-39674800D02*
X37084000Y-39674800D01*
X39684000Y-37074800D02*
X39684000Y-44814800D01*
X34484000Y-39674800D02*
X34484000Y-44814800D01*
X34484000Y-44814800D02*
X39684000Y-44814800D01*
%TO.C,Q1*%
X48024000Y-38364000D02*
X49484000Y-38364000D01*
X48024000Y-41524000D02*
X50184000Y-41524000D01*
X48024000Y-41524000D02*
X48024000Y-40594000D01*
X48024000Y-38364000D02*
X48024000Y-39294000D01*
%TO.C,R1*%
X30478252Y-37032000D02*
X29955748Y-37032000D01*
X30478252Y-35612000D02*
X29955748Y-35612000D01*
%TO.C,C2*%
X30496252Y-33730000D02*
X29973748Y-33730000D01*
X30496252Y-32310000D02*
X29973748Y-32310000D01*
%TO.C,R4*%
X42918748Y-41200000D02*
X43441252Y-41200000D01*
X42918748Y-42620000D02*
X43441252Y-42620000D01*
%TO.C,R3*%
X43450252Y-39064000D02*
X42927748Y-39064000D01*
X43450252Y-37644000D02*
X42927748Y-37644000D01*
D13*
%TO.C,U1*%
X25766600Y-38951800D02*
X25766600Y-39156800D01*
X31266600Y-38951800D02*
X31266600Y-39251800D01*
X31266600Y-44461800D02*
X31266600Y-44161800D01*
X25766600Y-44461800D02*
X25766600Y-44161800D01*
X25766600Y-38951800D02*
X31266600Y-38951800D01*
X25766600Y-44461800D02*
X31266600Y-44461800D01*
X25766600Y-39156800D02*
X24016600Y-39156800D01*
D12*
%TO.C,U2*%
X38125000Y-33870000D02*
X37025000Y-33870000D01*
X38125000Y-35680000D02*
X38125000Y-33870000D01*
X39625000Y-35680000D02*
X38125000Y-35680000D01*
X38125000Y-27090000D02*
X33000000Y-27090000D01*
X38125000Y-25280000D02*
X38125000Y-27090000D01*
X39625000Y-25280000D02*
X38125000Y-25280000D01*
%TO.C,D1*%
X23932000Y-29128000D02*
X23932000Y-31988000D01*
X25852000Y-29128000D02*
X23932000Y-29128000D01*
X25852000Y-31988000D02*
X25852000Y-29128000D01*
%TO.C,R2*%
X25602000Y-35307748D02*
X25602000Y-35830252D01*
X24182000Y-35307748D02*
X24182000Y-35830252D01*
%TO.C,C1*%
X30496252Y-28650000D02*
X29973748Y-28650000D01*
X30496252Y-27230000D02*
X29973748Y-27230000D01*
%TO.C,J1*%
D13*
X35480666Y-35774380D02*
X35480666Y-36488666D01*
X35433047Y-36631523D01*
X35337809Y-36726761D01*
X35194952Y-36774380D01*
X35099714Y-36774380D01*
X36480666Y-36774380D02*
X35909238Y-36774380D01*
X36194952Y-36774380D02*
X36194952Y-35774380D01*
X36099714Y-35917238D01*
X36004476Y-36012476D01*
X35909238Y-36060095D01*
%TO.C,Q1*%
X48684761Y-38127619D02*
X48589523Y-38080000D01*
X48494285Y-37984761D01*
X48351428Y-37841904D01*
X48256190Y-37794285D01*
X48160952Y-37794285D01*
X48208571Y-38032380D02*
X48113333Y-37984761D01*
X48018095Y-37889523D01*
X47970476Y-37699047D01*
X47970476Y-37365714D01*
X48018095Y-37175238D01*
X48113333Y-37080000D01*
X48208571Y-37032380D01*
X48399047Y-37032380D01*
X48494285Y-37080000D01*
X48589523Y-37175238D01*
X48637142Y-37365714D01*
X48637142Y-37699047D01*
X48589523Y-37889523D01*
X48494285Y-37984761D01*
X48399047Y-38032380D01*
X48208571Y-38032380D01*
X49589523Y-38032380D02*
X49018095Y-38032380D01*
X49303809Y-38032380D02*
X49303809Y-37032380D01*
X49208571Y-37175238D01*
X49113333Y-37270476D01*
X49018095Y-37318095D01*
%TO.C,R1*%
X30059333Y-35250380D02*
X29726000Y-34774190D01*
X29487904Y-35250380D02*
X29487904Y-34250380D01*
X29868857Y-34250380D01*
X29964095Y-34298000D01*
X30011714Y-34345619D01*
X30059333Y-34440857D01*
X30059333Y-34583714D01*
X30011714Y-34678952D01*
X29964095Y-34726571D01*
X29868857Y-34774190D01*
X29487904Y-34774190D01*
X31011714Y-35250380D02*
X30440285Y-35250380D01*
X30726000Y-35250380D02*
X30726000Y-34250380D01*
X30630761Y-34393238D01*
X30535523Y-34488476D01*
X30440285Y-34536095D01*
%TO.C,C2*%
X30059333Y-31599142D02*
X30011714Y-31646761D01*
X29868857Y-31694380D01*
X29773619Y-31694380D01*
X29630761Y-31646761D01*
X29535523Y-31551523D01*
X29487904Y-31456285D01*
X29440285Y-31265809D01*
X29440285Y-31122952D01*
X29487904Y-30932476D01*
X29535523Y-30837238D01*
X29630761Y-30742000D01*
X29773619Y-30694380D01*
X29868857Y-30694380D01*
X30011714Y-30742000D01*
X30059333Y-30789619D01*
X30440285Y-30789619D02*
X30487904Y-30742000D01*
X30583142Y-30694380D01*
X30821238Y-30694380D01*
X30916476Y-30742000D01*
X30964095Y-30789619D01*
X31011714Y-30884857D01*
X31011714Y-30980095D01*
X30964095Y-31122952D01*
X30392666Y-31694380D01*
X31011714Y-31694380D01*
%TO.C,R4*%
X43013333Y-40838380D02*
X42680000Y-40362190D01*
X42441904Y-40838380D02*
X42441904Y-39838380D01*
X42822857Y-39838380D01*
X42918095Y-39886000D01*
X42965714Y-39933619D01*
X43013333Y-40028857D01*
X43013333Y-40171714D01*
X42965714Y-40266952D01*
X42918095Y-40314571D01*
X42822857Y-40362190D01*
X42441904Y-40362190D01*
X43870476Y-40171714D02*
X43870476Y-40838380D01*
X43632380Y-39790761D02*
X43394285Y-40505047D01*
X44013333Y-40505047D01*
%TO.C,R3*%
X43013333Y-37282380D02*
X42680000Y-36806190D01*
X42441904Y-37282380D02*
X42441904Y-36282380D01*
X42822857Y-36282380D01*
X42918095Y-36330000D01*
X42965714Y-36377619D01*
X43013333Y-36472857D01*
X43013333Y-36615714D01*
X42965714Y-36710952D01*
X42918095Y-36758571D01*
X42822857Y-36806190D01*
X42441904Y-36806190D01*
X43346666Y-36282380D02*
X43965714Y-36282380D01*
X43632380Y-36663333D01*
X43775238Y-36663333D01*
X43870476Y-36710952D01*
X43918095Y-36758571D01*
X43965714Y-36853809D01*
X43965714Y-37091904D01*
X43918095Y-37187142D01*
X43870476Y-37234761D01*
X43775238Y-37282380D01*
X43489523Y-37282380D01*
X43394285Y-37234761D01*
X43346666Y-37187142D01*
%TO.C,U1*%
X27754695Y-37479180D02*
X27754695Y-38288704D01*
X27802314Y-38383942D01*
X27849933Y-38431561D01*
X27945171Y-38479180D01*
X28135647Y-38479180D01*
X28230885Y-38431561D01*
X28278504Y-38383942D01*
X28326123Y-38288704D01*
X28326123Y-37479180D01*
X29326123Y-38479180D02*
X28754695Y-38479180D01*
X29040409Y-38479180D02*
X29040409Y-37479180D01*
X28945171Y-37622038D01*
X28849933Y-37717276D01*
X28754695Y-37764895D01*
%TO.C,H4-Pwr*%
X41735714Y-18232380D02*
X41735714Y-17232380D01*
X41735714Y-17708571D02*
X42307142Y-17708571D01*
X42307142Y-18232380D02*
X42307142Y-17232380D01*
X43211904Y-17565714D02*
X43211904Y-18232380D01*
X42973809Y-17184761D02*
X42735714Y-17899047D01*
X43354761Y-17899047D01*
X43735714Y-17851428D02*
X44497619Y-17851428D01*
X44973809Y-18232380D02*
X44973809Y-17232380D01*
X45354761Y-17232380D01*
X45450000Y-17280000D01*
X45497619Y-17327619D01*
X45545238Y-17422857D01*
X45545238Y-17565714D01*
X45497619Y-17660952D01*
X45450000Y-17708571D01*
X45354761Y-17756190D01*
X44973809Y-17756190D01*
X45878571Y-17565714D02*
X46069047Y-18232380D01*
X46259523Y-17756190D01*
X46450000Y-18232380D01*
X46640476Y-17565714D01*
X47021428Y-18232380D02*
X47021428Y-17565714D01*
X47021428Y-17756190D02*
X47069047Y-17660952D01*
X47116666Y-17613333D01*
X47211904Y-17565714D01*
X47307142Y-17565714D01*
%TO.C,H3-Off*%
X36893809Y-19756380D02*
X36893809Y-18756380D01*
X36893809Y-19232571D02*
X37465238Y-19232571D01*
X37465238Y-19756380D02*
X37465238Y-18756380D01*
X37846190Y-18756380D02*
X38465238Y-18756380D01*
X38131904Y-19137333D01*
X38274761Y-19137333D01*
X38370000Y-19184952D01*
X38417619Y-19232571D01*
X38465238Y-19327809D01*
X38465238Y-19565904D01*
X38417619Y-19661142D01*
X38370000Y-19708761D01*
X38274761Y-19756380D01*
X37989047Y-19756380D01*
X37893809Y-19708761D01*
X37846190Y-19661142D01*
X38893809Y-19375428D02*
X39655714Y-19375428D01*
X40322380Y-18756380D02*
X40512857Y-18756380D01*
X40608095Y-18804000D01*
X40703333Y-18899238D01*
X40750952Y-19089714D01*
X40750952Y-19423047D01*
X40703333Y-19613523D01*
X40608095Y-19708761D01*
X40512857Y-19756380D01*
X40322380Y-19756380D01*
X40227142Y-19708761D01*
X40131904Y-19613523D01*
X40084285Y-19423047D01*
X40084285Y-19089714D01*
X40131904Y-18899238D01*
X40227142Y-18804000D01*
X40322380Y-18756380D01*
X41036666Y-19089714D02*
X41417619Y-19089714D01*
X41179523Y-19756380D02*
X41179523Y-18899238D01*
X41227142Y-18804000D01*
X41322380Y-18756380D01*
X41417619Y-18756380D01*
X41608095Y-19089714D02*
X41989047Y-19089714D01*
X41750952Y-19756380D02*
X41750952Y-18899238D01*
X41798571Y-18804000D01*
X41893809Y-18756380D01*
X41989047Y-18756380D01*
%TO.C,H2-GND*%
X26305238Y-19792380D02*
X26305238Y-18792380D01*
X26305238Y-19268571D02*
X26876666Y-19268571D01*
X26876666Y-19792380D02*
X26876666Y-18792380D01*
X27305238Y-18887619D02*
X27352857Y-18840000D01*
X27448095Y-18792380D01*
X27686190Y-18792380D01*
X27781428Y-18840000D01*
X27829047Y-18887619D01*
X27876666Y-18982857D01*
X27876666Y-19078095D01*
X27829047Y-19220952D01*
X27257619Y-19792380D01*
X27876666Y-19792380D01*
X28305238Y-19411428D02*
X29067142Y-19411428D01*
X30067142Y-18840000D02*
X29971904Y-18792380D01*
X29829047Y-18792380D01*
X29686190Y-18840000D01*
X29590952Y-18935238D01*
X29543333Y-19030476D01*
X29495714Y-19220952D01*
X29495714Y-19363809D01*
X29543333Y-19554285D01*
X29590952Y-19649523D01*
X29686190Y-19744761D01*
X29829047Y-19792380D01*
X29924285Y-19792380D01*
X30067142Y-19744761D01*
X30114761Y-19697142D01*
X30114761Y-19363809D01*
X29924285Y-19363809D01*
X30543333Y-19792380D02*
X30543333Y-18792380D01*
X31114761Y-19792380D01*
X31114761Y-18792380D01*
X31590952Y-19792380D02*
X31590952Y-18792380D01*
X31829047Y-18792380D01*
X31971904Y-18840000D01*
X32067142Y-18935238D01*
X32114761Y-19030476D01*
X32162380Y-19220952D01*
X32162380Y-19363809D01*
X32114761Y-19554285D01*
X32067142Y-19649523D01*
X31971904Y-19744761D01*
X31829047Y-19792380D01*
X31590952Y-19792380D01*
%TO.C,H1-VCC*%
X31480476Y-18232380D02*
X31480476Y-17232380D01*
X31480476Y-17708571D02*
X32051904Y-17708571D01*
X32051904Y-18232380D02*
X32051904Y-17232380D01*
X33051904Y-18232380D02*
X32480476Y-18232380D01*
X32766190Y-18232380D02*
X32766190Y-17232380D01*
X32670952Y-17375238D01*
X32575714Y-17470476D01*
X32480476Y-17518095D01*
X33480476Y-17851428D02*
X34242380Y-17851428D01*
X34575714Y-17232380D02*
X34909047Y-18232380D01*
X35242380Y-17232380D01*
X36147142Y-18137142D02*
X36099523Y-18184761D01*
X35956666Y-18232380D01*
X35861428Y-18232380D01*
X35718571Y-18184761D01*
X35623333Y-18089523D01*
X35575714Y-17994285D01*
X35528095Y-17803809D01*
X35528095Y-17660952D01*
X35575714Y-17470476D01*
X35623333Y-17375238D01*
X35718571Y-17280000D01*
X35861428Y-17232380D01*
X35956666Y-17232380D01*
X36099523Y-17280000D01*
X36147142Y-17327619D01*
X37147142Y-18137142D02*
X37099523Y-18184761D01*
X36956666Y-18232380D01*
X36861428Y-18232380D01*
X36718571Y-18184761D01*
X36623333Y-18089523D01*
X36575714Y-17994285D01*
X36528095Y-17803809D01*
X36528095Y-17660952D01*
X36575714Y-17470476D01*
X36623333Y-17375238D01*
X36718571Y-17280000D01*
X36861428Y-17232380D01*
X36956666Y-17232380D01*
X37099523Y-17280000D01*
X37147142Y-17327619D01*
%TO.C,U2*%
X43573095Y-23817380D02*
X43573095Y-24626904D01*
X43620714Y-24722142D01*
X43668333Y-24769761D01*
X43763571Y-24817380D01*
X43954047Y-24817380D01*
X44049285Y-24769761D01*
X44096904Y-24722142D01*
X44144523Y-24626904D01*
X44144523Y-23817380D01*
X44573095Y-23912619D02*
X44620714Y-23865000D01*
X44715952Y-23817380D01*
X44954047Y-23817380D01*
X45049285Y-23865000D01*
X45096904Y-23912619D01*
X45144523Y-24007857D01*
X45144523Y-24103095D01*
X45096904Y-24245952D01*
X44525476Y-24817380D01*
X45144523Y-24817380D01*
%TO.C,D1*%
X24153904Y-28655380D02*
X24153904Y-27655380D01*
X24392000Y-27655380D01*
X24534857Y-27703000D01*
X24630095Y-27798238D01*
X24677714Y-27893476D01*
X24725333Y-28083952D01*
X24725333Y-28226809D01*
X24677714Y-28417285D01*
X24630095Y-28512523D01*
X24534857Y-28607761D01*
X24392000Y-28655380D01*
X24153904Y-28655380D01*
X25677714Y-28655380D02*
X25106285Y-28655380D01*
X25392000Y-28655380D02*
X25392000Y-27655380D01*
X25296761Y-27798238D01*
X25201523Y-27893476D01*
X25106285Y-27941095D01*
%TO.C,R2*%
X24725333Y-33726380D02*
X24392000Y-33250190D01*
X24153904Y-33726380D02*
X24153904Y-32726380D01*
X24534857Y-32726380D01*
X24630095Y-32774000D01*
X24677714Y-32821619D01*
X24725333Y-32916857D01*
X24725333Y-33059714D01*
X24677714Y-33154952D01*
X24630095Y-33202571D01*
X24534857Y-33250190D01*
X24153904Y-33250190D01*
X25106285Y-32821619D02*
X25153904Y-32774000D01*
X25249142Y-32726380D01*
X25487238Y-32726380D01*
X25582476Y-32774000D01*
X25630095Y-32821619D01*
X25677714Y-32916857D01*
X25677714Y-33012095D01*
X25630095Y-33154952D01*
X25058666Y-33726380D01*
X25677714Y-33726380D01*
%TO.C,C1*%
X30059333Y-26773142D02*
X30011714Y-26820761D01*
X29868857Y-26868380D01*
X29773619Y-26868380D01*
X29630761Y-26820761D01*
X29535523Y-26725523D01*
X29487904Y-26630285D01*
X29440285Y-26439809D01*
X29440285Y-26296952D01*
X29487904Y-26106476D01*
X29535523Y-26011238D01*
X29630761Y-25916000D01*
X29773619Y-25868380D01*
X29868857Y-25868380D01*
X30011714Y-25916000D01*
X30059333Y-25963619D01*
X31011714Y-26868380D02*
X30440285Y-26868380D01*
X30726000Y-26868380D02*
X30726000Y-25868380D01*
X30630761Y-26011238D01*
X30535523Y-26106476D01*
X30440285Y-26154095D01*
%TD*%
M02*
