<?xml version="1.0" standalone="no"?>
 <!DOCTYPE svg PUBLIC "-//W3C//DTD SVG 1.1//EN" 
 "http://www.w3.org/Graphics/SVG/1.1/DTD/svg11.dtd"> 
<svg
  xmlns:svg="http://www.w3.org/2000/svg"
  xmlns="http://www.w3.org/2000/svg"
  xmlns:xlink="http://www.w3.org/1999/xlink"
  version="1.1"
  width="15.001240cm" height="10.200640cm" viewBox="0 0 59060 40160">
<title>SVG Picture created as test.svg date 2020/07/04 16:57:16 </title>
  <desc>Picture generated by Eeschema-SVG </desc>
<g style="fill:#000000; fill-opacity:1;stroke:#000000; stroke-opacity:1;
stroke-linecap:round; stroke-linejoin:round;"
 transform="translate(0 0) scale(1 1)">
</g>
<g style="fill:#000000; fill-opacity:0.0; 
stroke:#000000; stroke-width:0; stroke-opacity:1; 
stroke-linecap:round; stroke-linejoin:round;">
<g >
</g>
<g style="fill:#840000; fill-opacity:0.0; 
stroke:#840000; stroke-width:0; stroke-opacity:1; 
stroke-linecap:round; stroke-linejoin:round;">
</g>
<g style="fill:#840000; fill-opacity:0.0; 
stroke:#840000; stroke-width:100; stroke-opacity:1; 
stroke-linecap:round; stroke-linejoin:round;">
<path style="fill:#840000; fill-opacity:0.0; 
stroke:#840000; stroke-width:100; stroke-opacity:1; 
stroke-linecap:round; stroke-linejoin:round;fill:none"
d="M 34000,22000
34000,23000
" /> 
</g>
<g style="fill:#840000; fill-opacity:0.0; 
stroke:#840000; stroke-width:60; stroke-opacity:1; 
stroke-linecap:round; stroke-linejoin:round;">
<path style="fill:#840000; fill-opacity:0.0; 
stroke:#840000; stroke-width:60; stroke-opacity:1; 
stroke-linecap:round; stroke-linejoin:round;fill:none"
d="M 34000,22500
33000,22500
" /> 
</g>
<g style="fill:#840000; fill-opacity:0.0; 
stroke:#840000; stroke-width:100; stroke-opacity:1; 
stroke-linecap:round; stroke-linejoin:round;">
<path style="fill:#840000; fill-opacity:0.0; 
stroke:#840000; stroke-width:100; stroke-opacity:1; 
stroke-linecap:round; stroke-linejoin:round;fill:none"
d="M 33000,22000
33000,23000
34000,22500
Z" /> 
</g>
<g style="fill:#840000; fill-opacity:0.0; 
stroke:#840000; stroke-width:60; stroke-opacity:1; 
stroke-linecap:round; stroke-linejoin:round;">
<path style="fill:#840000; fill-opacity:0.0; 
stroke:#840000; stroke-width:60; stroke-opacity:1; 
stroke-linecap:round; stroke-linejoin:round;fill:none"
d="M 34700,22200
35300,21600
35000,21600
35300,21600
35300,21900
" /> 
<path style="fill:#840000; fill-opacity:0.0; 
stroke:#840000; stroke-width:60; stroke-opacity:1; 
stroke-linecap:round; stroke-linejoin:round;fill:none"
d="M 34200,22200
34800,21600
34500,21600
34800,21600
34800,21900
" /> 
<path d="M34000 22500
L35000 22500
" />
<path d="M33000 22500
L32000 22500
" />
</g>
<g style="fill:#008484; fill-opacity:0.0; 
stroke:#008484; stroke-width:60; stroke-opacity:1; 
stroke-linecap:round; stroke-linejoin:round;">
<text x="33570" y="20170"
textLength="1040" font-size="660" lengthAdjust="spacingAndGlyphs"
text-anchor="middle" opacity="0">D1</text>
<path d="M33200 20140
L33200 19640
L33320 19640
L33390 19670
L33430 19710
L33460 19760
L33480 19860
L33480 19930
L33460 20020
L33430 20070
L33390 20120
L33320 20140
L33200 20140
" />
<path d="M33960 20140
L33670 20140
" />
<path d="M33820 20140
L33820 19640
L33770 19710
L33720 19760
L33670 19780
" />
<text x="33570" y="21080"
textLength="1420" font-size="660" lengthAdjust="spacingAndGlyphs"
text-anchor="middle" opacity="0">LED</text>
<path d="M33240 21050
L33010 21050
L33010 20550
" />
<path d="M33410 20790
L33580 20790
" />
<path d="M33650 21050
L33410 21050
L33410 20550
L33650 20550
" />
<path d="M33860 21050
L33860 20550
L33980 20550
L34050 20580
L34100 20620
L34120 20670
L34150 20770
L34150 20840
L34120 20930
L34100 20980
L34050 21030
L33980 21050
L33860 21050
" />
</g>
</g>
<g style="fill:#008484; fill-opacity:0.0; 
stroke:#008484; stroke-width:0; stroke-opacity:1; 
stroke-linecap:round; stroke-linejoin:round;">
<g >
</g>
<g style="fill:#840000; fill-opacity:0.0; 
stroke:#840000; stroke-width:0; stroke-opacity:1; 
stroke-linecap:round; stroke-linejoin:round;">
</g>
<g style="fill:#840000; fill-opacity:0.0; 
stroke:#840000; stroke-width:100; stroke-opacity:1; 
stroke-linecap:round; stroke-linejoin:round;">
<rect x="28500" y="25600" width="2000" height="800" rx="0" />
</g>
<g style="fill:#840000; fill-opacity:0.0; 
stroke:#840000; stroke-width:60; stroke-opacity:1; 
stroke-linecap:round; stroke-linejoin:round;">
<path d="M30500 26000
L31000 26000
" />
<path d="M28500 26000
L28000 26000
" />
</g>
<g style="fill:#008484; fill-opacity:0.0; 
stroke:#008484; stroke-width:60; stroke-opacity:1; 
stroke-linecap:round; stroke-linejoin:round;">
<text x="29500" y="24200"
textLength="1040" font-size="660" lengthAdjust="spacingAndGlyphs"
text-anchor="middle" opacity="0">R3</text>
<path d="M29410 24170
L29250 23930
" />
<path d="M29130 24170
L29130 23670
L29320 23670
L29360 23700
L29390 23720
L29410 23770
L29410 23840
L29390 23890
L29360 23910
L29320 23930
L29130 23930
" />
<path d="M29580 23670
L29890 23670
L29720 23860
L29790 23860
L29840 23890
L29860 23910
L29890 23960
L29890 24080
L29860 24120
L29840 24150
L29790 24170
L29650 24170
L29600 24150
L29580 24120
" />
<text x="29500" y="25110"
textLength="1510" font-size="660" lengthAdjust="spacingAndGlyphs"
text-anchor="middle" opacity="0">1kΩ</text>
<path d="M29150 25080
L28860 25080
" />
<path d="M29010 25080
L29010 24580
L28960 24650
L28910 24700
L28860 24720
" />
<path d="M29360 25080
L29360 24580
" />
<path d="M29410 24890
L29550 25080
" />
<path d="M29550 24750
L29360 24940
" />
<path d="M29750 25080
L29860 25080
L29860 24990
L29820 24960
L29770 24910
L29750 24840
L29750 24720
L29770 24650
L29820 24610
L29890 24580
L29980 24580
L30050 24610
L30100 24650
L30130 24720
L30130 24840
L30100 24910
L30050 24960
L30010 24990
L30010 25080
L30130 25080
" />
</g>
</g>
<g style="fill:#008484; fill-opacity:0.0; 
stroke:#008484; stroke-width:0; stroke-opacity:1; 
stroke-linecap:round; stroke-linejoin:round;">
<g >
</g>
<g style="fill:#840000; fill-opacity:0.0; 
stroke:#840000; stroke-width:0; stroke-opacity:1; 
stroke-linecap:round; stroke-linejoin:round;">
</g>
<g style="fill:#840000; fill-opacity:0.0; 
stroke:#840000; stroke-width:100; stroke-opacity:1; 
stroke-linecap:round; stroke-linejoin:round;">
<circle cx="44500" cy="26000" r="1110" /> 
</g>
<g style="fill:#840000; fill-opacity:0.0; 
stroke:#840000; stroke-width:60; stroke-opacity:1; 
stroke-linecap:round; stroke-linejoin:round;">
<path style="fill:#840000; fill-opacity:0.0; 
stroke:#840000; stroke-width:60; stroke-opacity:1; 
stroke-linecap:round; stroke-linejoin:round;fill:none"
d="M 44250,25750
45000,25000
" /> 
<path style="fill:#840000; fill-opacity:0.0; 
stroke:#840000; stroke-width:60; stroke-opacity:1; 
stroke-linecap:round; stroke-linejoin:round;fill:none"
d="M 44250,26250
45000,27000
45000,27000
" /> 
</g>
<g style="fill:#840000; fill-opacity:0.0; 
stroke:#840000; stroke-width:200; stroke-opacity:1; 
stroke-linecap:round; stroke-linejoin:round;">
<path style="fill:#840000; fill-opacity:0.0; 
stroke:#840000; stroke-width:200; stroke-opacity:1; 
stroke-linecap:round; stroke-linejoin:round;fill:none"
d="M 44250,25250
44250,26750
44250,26750
" /> 
</g>
<g style="fill:#840000; fill-opacity:1.0; 
stroke:#840000; stroke-width:60; stroke-opacity:1; 
stroke-linecap:round; stroke-linejoin:round;">
<path style="fill:#840000; fill-opacity:1.0; 
stroke:#840000; stroke-width:60; stroke-opacity:1; 
stroke-linecap:round; stroke-linejoin:round;fill-rule:evenodd;"
d="M 44500,26700
44700,26500
44900,26900
44500,26700
Z" /> 
</g>
<g style="fill:#840000; fill-opacity:0.0; 
stroke:#840000; stroke-width:60; stroke-opacity:1; 
stroke-linecap:round; stroke-linejoin:round;">
<path d="M45000 27000
L45000 28000
" />
<g transform="rotate(-90 45100 27500)">
<text x="45100" y="28000"
textLength="540" font-size="660" lengthAdjust="spacingAndGlyphs"
text-anchor="middle" opacity="0">1</text>
</g>
<path d="M45570 27350
L45570 27640
" />
<path d="M45570 27500
L45070 27500
L45140 27540
L45190 27590
L45210 27640
" />
<path d="M44250 26000
L42000 26000
" />
<text x="43120" y="26600"
textLength="540" font-size="660" lengthAdjust="spacingAndGlyphs"
text-anchor="middle" opacity="0">2</text>
<path d="M42970 26120
L43000 26100
L43040 26070
L43160 26070
L43210 26100
L43230 26120
L43260 26170
L43260 26210
L43230 26290
L42950 26570
L43260 26570
" />
<path d="M45000 25000
L45000 24000
" />
<g transform="rotate(-90 45100 24500)">
<text x="45100" y="25000"
textLength="540" font-size="660" lengthAdjust="spacingAndGlyphs"
text-anchor="middle" opacity="0">3</text>
</g>
<path d="M45070 24660
L45070 24350
L45260 24520
L45260 24450
L45290 24400
L45310 24380
L45360 24350
L45480 24350
L45520 24380
L45550 24400
L45570 24450
L45570 24590
L45550 24640
L45520 24660
" />
</g>
<g style="fill:#008484; fill-opacity:0.0; 
stroke:#008484; stroke-width:60; stroke-opacity:1; 
stroke-linecap:round; stroke-linejoin:round;">
<text x="46430" y="25810"
textLength="1060" font-size="660" lengthAdjust="spacingAndGlyphs"
text-anchor="middle" opacity="0">Q1</text>
<path d="M46380 25830
L46330 25810
L46280 25760
L46210 25690
L46160 25660
L46120 25660
" />
<path d="M46140 25780
L46090 25760
L46040 25710
L46020 25610
L46020 25450
L46040 25350
L46090 25310
L46140 25280
L46230 25280
L46280 25310
L46330 25350
L46350 25450
L46350 25610
L46330 25710
L46280 25760
L46230 25780
L46140 25780
" />
<path d="M46830 25780
L46540 25780
" />
<path d="M46690 25780
L46690 25280
L46640 25350
L46590 25400
L46540 25420
" />
<text x="47380" y="26720"
textLength="2960" font-size="660" lengthAdjust="spacingAndGlyphs"
text-anchor="middle" opacity="0">2N2219</text>
<path d="M46020 26240
L46040 26220
L46090 26190
L46210 26190
L46260 26220
L46280 26240
L46300 26290
L46300 26330
L46280 26410
L45990 26690
L46300 26690
" />
<path d="M46520 26690
L46520 26190
L46800 26690
L46800 26190
" />
<path d="M47020 26240
L47040 26220
L47090 26190
L47210 26190
L47260 26220
L47280 26240
L47300 26290
L47300 26330
L47280 26410
L46990 26690
L47300 26690
" />
<path d="M47490 26240
L47520 26220
L47570 26190
L47680 26190
L47730 26220
L47760 26240
L47780 26290
L47780 26330
L47760 26410
L47470 26690
L47780 26690
" />
<path d="M48260 26690
L47970 26690
" />
<path d="M48110 26690
L48110 26190
L48070 26260
L48020 26310
L47970 26330
" />
<path d="M48490 26690
L48590 26690
L48640 26670
L48660 26640
L48710 26570
L48730 26480
L48730 26290
L48710 26240
L48680 26220
L48640 26190
L48540 26190
L48490 26220
L48470 26240
L48450 26290
L48450 26410
L48470 26450
L48490 26480
L48540 26500
L48640 26500
L48680 26480
L48710 26450
L48730 26410
" />
</g>
</g>
<g style="fill:#008484; fill-opacity:0.0; 
stroke:#008484; stroke-width:0; stroke-opacity:1; 
stroke-linecap:round; stroke-linejoin:round;">
<g >
</g>
<g style="fill:#840000; fill-opacity:0.0; 
stroke:#840000; stroke-width:0; stroke-opacity:1; 
stroke-linecap:round; stroke-linejoin:round;">
</g>
<g style="fill:#840000; fill-opacity:0.0; 
stroke:#840000; stroke-width:100; stroke-opacity:1; 
stroke-linecap:round; stroke-linejoin:round;">
<rect x="44600" y="20500" width="800" height="2000" rx="0" />
</g>
<g style="fill:#840000; fill-opacity:0.0; 
stroke:#840000; stroke-width:60; stroke-opacity:1; 
stroke-linecap:round; stroke-linejoin:round;">
<path d="M45000 20500
L45000 20000
" />
<path d="M45000 22500
L45000 23000
" />
</g>
<g style="fill:#008484; fill-opacity:0.0; 
stroke:#008484; stroke-width:60; stroke-opacity:1; 
stroke-linecap:round; stroke-linejoin:round;">
<g transform="rotate(-90 42950 21500)">
<text x="42950" y="21750"
textLength="1040" font-size="660" lengthAdjust="spacingAndGlyphs"
text-anchor="middle" opacity="0">R4</text>
</g>
<path d="M43170 21580
L42930 21750
" />
<path d="M43170 21860
L42670 21860
L42670 21670
L42700 21630
L42720 21600
L42770 21580
L42840 21580
L42890 21600
L42910 21630
L42930 21670
L42930 21860
" />
<path d="M42840 21150
L43170 21150
" />
<path d="M42650 21270
L43000 21390
L43000 21080
" />
<g transform="rotate(-90 43860 21490)">
<text x="43860" y="21740"
textLength="1510" font-size="660" lengthAdjust="spacingAndGlyphs"
text-anchor="middle" opacity="0">1kΩ</text>
</g>
<path d="M44080 21830
L44080 22120
" />
<path d="M44080 21970
L43580 21970
L43650 22020
L43700 22070
L43720 22120
" />
<path d="M44080 21620
L43580 21620
" />
<path d="M43890 21570
L44080 21430
" />
<path d="M43750 21430
L43940 21620
" />
<path d="M44080 21240
L44080 21120
L43990 21120
L43960 21160
L43910 21210
L43840 21240
L43720 21240
L43650 21210
L43610 21160
L43580 21090
L43580 21000
L43610 20930
L43650 20880
L43720 20850
L43840 20850
L43910 20880
L43960 20930
L43990 20970
L44080 20970
L44080 20850
" />
</g>
</g>
<g style="fill:#008484; fill-opacity:0.0; 
stroke:#008484; stroke-width:0; stroke-opacity:1; 
stroke-linecap:round; stroke-linejoin:round;">
<g >
</g>
<g style="fill:#840000; fill-opacity:0.0; 
stroke:#840000; stroke-width:0; stroke-opacity:1; 
stroke-linecap:round; stroke-linejoin:round;">
</g>
<g style="fill:#840000; fill-opacity:0.0; 
stroke:#840000; stroke-width:60; stroke-opacity:1; 
stroke-linecap:round; stroke-linejoin:round;">
<rect x="42100" y="15600" width="1800" height="200" rx="0" />
</g>
<g style="fill:#840000; fill-opacity:1.0; 
stroke:#840000; stroke-width:60; stroke-opacity:1; 
stroke-linecap:round; stroke-linejoin:round;">
<rect x="42100" y="16200" width="1800" height="200" rx="0" />
</g>
<g style="fill:#840000; fill-opacity:0.0; 
stroke:#840000; stroke-width:60; stroke-opacity:1; 
stroke-linecap:round; stroke-linejoin:round;">
<path style="fill:#840000; fill-opacity:0.0; 
stroke:#840000; stroke-width:60; stroke-opacity:1; 
stroke-linecap:round; stroke-linejoin:round;fill:none"
d="M 42300,15100
42700,15100
" /> 
<path style="fill:#840000; fill-opacity:0.0; 
stroke:#840000; stroke-width:60; stroke-opacity:1; 
stroke-linecap:round; stroke-linejoin:round;fill:none"
d="M 42500,14900
42500,15300
" /> 
<path d="M43000 15600
L43000 14500
" />
<path d="M43000 16400
L43000 17500
" />
</g>
<g style="fill:#008484; fill-opacity:0.0; 
stroke:#008484; stroke-width:60; stroke-opacity:1; 
stroke-linecap:round; stroke-linejoin:round;">
<text x="44700" y="15810"
textLength="1040" font-size="660" lengthAdjust="spacingAndGlyphs"
text-anchor="middle" opacity="0">C2</text>
<path d="M44610 15730
L44590 15760
L44520 15780
L44470 15780
L44400 15760
L44350 15710
L44330 15660
L44300 15570
L44300 15500
L44330 15400
L44350 15350
L44400 15310
L44470 15280
L44520 15280
L44590 15310
L44610 15330
" />
<path d="M44800 15330
L44830 15310
L44870 15280
L44990 15280
L45040 15310
L45060 15330
L45090 15380
L45090 15420
L45060 15500
L44780 15780
L45090 15780
" />
<text x="45520" y="16720"
textLength="2680" font-size="660" lengthAdjust="spacingAndGlyphs"
text-anchor="middle" opacity="0">0.22μF</text>
<path d="M44420 16190
L44470 16190
L44520 16220
L44540 16240
L44560 16290
L44590 16380
L44590 16500
L44560 16600
L44540 16640
L44520 16670
L44470 16690
L44420 16690
L44370 16670
L44350 16640
L44320 16600
L44300 16500
L44300 16380
L44320 16290
L44350 16240
L44370 16220
L44420 16190
" />
<path d="M44800 16640
L44820 16670
L44800 16690
L44780 16670
L44800 16640
L44800 16690
" />
<path d="M45020 16240
L45040 16220
L45090 16190
L45210 16190
L45250 16220
L45280 16240
L45300 16290
L45300 16330
L45280 16410
L44990 16690
L45300 16690
" />
<path d="M45490 16240
L45520 16220
L45560 16190
L45680 16190
L45730 16220
L45750 16240
L45780 16290
L45780 16330
L45750 16410
L45470 16690
L45780 16690
" />
<path d="M45990 16360
L45990 16860
" />
<path d="M46230 16620
L46250 16670
L46300 16690
" />
<path d="M45990 16620
L46020 16670
L46060 16690
L46160 16690
L46210 16670
L46230 16620
L46230 16360
" />
<path d="M46680 16430
L46520 16430
" />
<path d="M46520 16690
L46520 16190
L46750 16190
" />
</g>
</g>
<g style="fill:#008484; fill-opacity:0.0; 
stroke:#008484; stroke-width:0; stroke-opacity:1; 
stroke-linecap:round; stroke-linejoin:round;">
<g >
</g>
<g style="fill:#840000; fill-opacity:0.0; 
stroke:#840000; stroke-width:0; stroke-opacity:1; 
stroke-linecap:round; stroke-linejoin:round;">
</g>
<g style="fill:#840000; fill-opacity:0.0; 
stroke:#840000; stroke-width:60; stroke-opacity:1; 
stroke-linecap:round; stroke-linejoin:round;">
<rect x="34600" y="15600" width="1800" height="200" rx="0" />
</g>
<g style="fill:#840000; fill-opacity:1.0; 
stroke:#840000; stroke-width:60; stroke-opacity:1; 
stroke-linecap:round; stroke-linejoin:round;">
<rect x="34600" y="16200" width="1800" height="200" rx="0" />
</g>
<g style="fill:#840000; fill-opacity:0.0; 
stroke:#840000; stroke-width:60; stroke-opacity:1; 
stroke-linecap:round; stroke-linejoin:round;">
<path style="fill:#840000; fill-opacity:0.0; 
stroke:#840000; stroke-width:60; stroke-opacity:1; 
stroke-linecap:round; stroke-linejoin:round;fill:none"
d="M 34800,15100
35200,15100
" /> 
<path style="fill:#840000; fill-opacity:0.0; 
stroke:#840000; stroke-width:60; stroke-opacity:1; 
stroke-linecap:round; stroke-linejoin:round;fill:none"
d="M 35000,14900
35000,15300
" /> 
<path d="M35500 15600
L35500 14500
" />
<path d="M35500 16400
L35500 17500
" />
</g>
<g style="fill:#008484; fill-opacity:0.0; 
stroke:#008484; stroke-width:60; stroke-opacity:1; 
stroke-linecap:round; stroke-linejoin:round;">
<text x="37200" y="15810"
textLength="1040" font-size="660" lengthAdjust="spacingAndGlyphs"
text-anchor="middle" opacity="0">C1</text>
<path d="M37110 15730
L37090 15760
L37020 15780
L36970 15780
L36900 15760
L36850 15710
L36830 15660
L36800 15570
L36800 15500
L36830 15400
L36850 15350
L36900 15310
L36970 15280
L37020 15280
L37090 15310
L37110 15330
" />
<path d="M37590 15780
L37300 15780
" />
<path d="M37450 15780
L37450 15280
L37400 15350
L37350 15400
L37300 15420
" />
<text x="38020" y="16720"
textLength="2680" font-size="660" lengthAdjust="spacingAndGlyphs"
text-anchor="middle" opacity="0">0.47μF</text>
<path d="M36920 16190
L36970 16190
L37020 16220
L37040 16240
L37060 16290
L37090 16380
L37090 16500
L37060 16600
L37040 16640
L37020 16670
L36970 16690
L36920 16690
L36870 16670
L36850 16640
L36820 16600
L36800 16500
L36800 16380
L36820 16290
L36850 16240
L36870 16220
L36920 16190
" />
<path d="M37300 16640
L37320 16670
L37300 16690
L37280 16670
L37300 16640
L37300 16690
" />
<path d="M37750 16360
L37750 16690
" />
<path d="M37630 16170
L37520 16520
L37820 16520
" />
<path d="M37970 16190
L38300 16190
L38090 16690
" />
<path d="M38490 16360
L38490 16860
" />
<path d="M38730 16620
L38750 16670
L38800 16690
" />
<path d="M38490 16620
L38520 16670
L38560 16690
L38660 16690
L38710 16670
L38730 16620
L38730 16360
" />
<path d="M39180 16430
L39020 16430
" />
<path d="M39020 16690
L39020 16190
L39250 16190
" />
</g>
</g>
<g style="fill:#008484; fill-opacity:0.0; 
stroke:#008484; stroke-width:0; stroke-opacity:1; 
stroke-linecap:round; stroke-linejoin:round;">
<g >
</g>
<g style="fill:#840000; fill-opacity:0.0; 
stroke:#840000; stroke-width:0; stroke-opacity:1; 
stroke-linecap:round; stroke-linejoin:round;">
</g>
<g style="fill:#FFFFC2; fill-opacity:0.0; 
stroke:#FFFFC2; stroke-width:0; stroke-opacity:1; 
stroke-linecap:round; stroke-linejoin:round;">
</g>
<g style="fill:#FFFFC2; fill-opacity:0.6; 
stroke:#FFFFC2; stroke-width:0; stroke-opacity:1; 
stroke-linecap:round; stroke-linejoin:round;">
<rect x="38000" y="12750" width="4000" height="2750" rx="0" />
</g>
<g style="fill:#840000; fill-opacity:0.6; 
stroke:#840000; stroke-width:0; stroke-opacity:1; 
stroke-linecap:round; stroke-linejoin:round;">
</g>
<g style="fill:#840000; fill-opacity:0.0; 
stroke:#840000; stroke-width:100; stroke-opacity:1; 
stroke-linecap:round; stroke-linejoin:round;">
<rect x="38000" y="12750" width="4000" height="2750" rx="0" />
<rect x="38000" y="12750" width="4000" height="2750" rx="0" />
</g>
<g style="fill:#840000; fill-opacity:0.0; 
stroke:#840000; stroke-width:60; stroke-opacity:1; 
stroke-linecap:round; stroke-linejoin:round;">
<path d="M38000 13500
L37000 13500
" />
</g>
<g style="fill:#008484; fill-opacity:0.0; 
stroke:#008484; stroke-width:60; stroke-opacity:1; 
stroke-linecap:round; stroke-linejoin:round;">
<text x="38100" y="13750"
textLength="820" font-size="660" lengthAdjust="spacingAndGlyphs"
text-anchor="start" opacity="0">IN</text>
<path d="M38240 13720
L38240 13220
" />
<path d="M38480 13720
L38480 13220
L38770 13720
L38770 13220
" />
</g>
<g style="fill:#840000; fill-opacity:0.0; 
stroke:#840000; stroke-width:60; stroke-opacity:1; 
stroke-linecap:round; stroke-linejoin:round;">
<text x="37500" y="13400"
textLength="540" font-size="660" lengthAdjust="spacingAndGlyphs"
text-anchor="middle" opacity="0">1</text>
<path d="M37640 13370
L37350 13370
" />
<path d="M37500 13370
L37500 12870
L37450 12940
L37400 12990
L37350 13010
" />
<path d="M40000 15500
L40000 16500
" />
</g>
<g style="fill:#008484; fill-opacity:0.0; 
stroke:#008484; stroke-width:60; stroke-opacity:1; 
stroke-linecap:round; stroke-linejoin:round;">
<g transform="rotate(-90 40000 15400)">
<text x="40000" y="15650"
textLength="1580" font-size="660" lengthAdjust="spacingAndGlyphs"
text-anchor="start" opacity="0">GND</text>
</g>
<path d="M39750 14980
L39720 15030
L39720 15100
L39750 15170
L39790 15220
L39840 15250
L39940 15270
L40010 15270
L40100 15250
L40150 15220
L40200 15170
L40220 15100
L40220 15060
L40200 14980
L40170 14960
L40010 14960
L40010 15060
" />
<path d="M40220 14750
L39720 14750
L40220 14460
L39720 14460
" />
<path d="M40220 14220
L39720 14220
L39720 14100
L39750 14030
L39790 13980
L39840 13960
L39940 13940
L40010 13940
L40100 13960
L40150 13980
L40200 14030
L40220 14100
L40220 14220
" />
</g>
<g style="fill:#840000; fill-opacity:0.0; 
stroke:#840000; stroke-width:60; stroke-opacity:1; 
stroke-linecap:round; stroke-linejoin:round;">
<g transform="rotate(-90 39900 16000)">
<text x="39900" y="16000"
textLength="540" font-size="660" lengthAdjust="spacingAndGlyphs"
text-anchor="middle" opacity="0">2</text>
</g>
<path d="M39420 16140
L39400 16110
L39370 16070
L39370 15950
L39400 15900
L39420 15880
L39470 15850
L39510 15850
L39590 15880
L39870 16160
L39870 15850
" />
<path d="M42000 13500
L43000 13500
" />
</g>
<g style="fill:#008484; fill-opacity:0.0; 
stroke:#008484; stroke-width:60; stroke-opacity:1; 
stroke-linecap:round; stroke-linejoin:round;">
<text x="41900" y="13750"
textLength="1490" font-size="660" lengthAdjust="spacingAndGlyphs"
text-anchor="end" opacity="0">OUT</text>
<path d="M40650 13220
L40750 13220
L40790 13250
L40840 13290
L40870 13390
L40870 13550
L40840 13650
L40790 13700
L40750 13720
L40650 13720
L40600 13700
L40560 13650
L40530 13550
L40530 13390
L40560 13290
L40600 13250
L40650 13220
" />
<path d="M41080 13220
L41080 13630
L41100 13670
L41130 13700
L41170 13720
L41270 13720
L41320 13700
L41340 13670
L41370 13630
L41370 13220
" />
<path d="M41530 13220
L41820 13220
" />
<path d="M41670 13720
L41670 13220
" />
</g>
<g style="fill:#840000; fill-opacity:0.0; 
stroke:#840000; stroke-width:60; stroke-opacity:1; 
stroke-linecap:round; stroke-linejoin:round;">
<text x="42500" y="13400"
textLength="540" font-size="660" lengthAdjust="spacingAndGlyphs"
text-anchor="middle" opacity="0">3</text>
<path d="M42330 12870
L42640 12870
L42470 13060
L42540 13060
L42590 13090
L42610 13110
L42640 13160
L42640 13280
L42610 13320
L42590 13350
L42540 13370
L42400 13370
L42350 13350
L42330 13320
" />
</g>
<g style="fill:#008484; fill-opacity:0.0; 
stroke:#008484; stroke-width:60; stroke-opacity:1; 
stroke-linecap:round; stroke-linejoin:round;">
<text x="40000" y="11350"
textLength="1060" font-size="660" lengthAdjust="spacingAndGlyphs"
text-anchor="middle" opacity="0">U2</text>
<path d="M39610 10820
L39610 11230
L39640 11270
L39660 11300
L39710 11320
L39800 11320
L39850 11300
L39880 11270
L39900 11230
L39900 10820
" />
<path d="M40110 10870
L40140 10850
L40190 10820
L40300 10820
L40350 10850
L40380 10870
L40400 10920
L40400 10960
L40380 11040
L40090 11320
L40400 11320
" />
<text x="40000" y="12260"
textLength="2370" font-size="660" lengthAdjust="spacingAndGlyphs"
text-anchor="middle" opacity="0">L7805</text>
<path d="M39200 12230
L38960 12230
L38960 11730
" />
<path d="M39320 11730
L39650 11730
L39440 12230
" />
<path d="M39910 11950
L39860 11920
L39840 11900
L39820 11850
L39820 11830
L39840 11780
L39860 11760
L39910 11730
L40010 11730
L40050 11760
L40080 11780
L40100 11830
L40100 11850
L40080 11900
L40050 11920
L40010 11950
L39910 11950
L39860 11970
L39840 11990
L39820 12040
L39820 12140
L39840 12180
L39860 12210
L39910 12230
L40010 12230
L40050 12210
L40080 12180
L40100 12140
L40100 12040
L40080 11990
L40050 11970
L40010 11950
" />
<path d="M40410 11730
L40460 11730
L40510 11760
L40530 11780
L40550 11830
L40580 11920
L40580 12040
L40550 12140
L40530 12180
L40510 12210
L40460 12230
L40410 12230
L40360 12210
L40340 12180
L40320 12140
L40290 12040
L40290 11920
L40320 11830
L40340 11780
L40360 11760
L40410 11730
" />
<path d="M41030 11730
L40790 11730
L40770 11970
L40790 11950
L40840 11920
L40960 11920
L41010 11950
L41030 11970
L41050 12020
L41050 12140
L41030 12180
L41010 12210
L40960 12230
L40840 12230
L40790 12210
L40770 12180
" />
</g>
</g>
<g style="fill:#008484; fill-opacity:0.0; 
stroke:#008484; stroke-width:0; stroke-opacity:1; 
stroke-linecap:round; stroke-linejoin:round;">
<g >
</g>
<g style="fill:#840000; fill-opacity:0.0; 
stroke:#840000; stroke-width:0; stroke-opacity:1; 
stroke-linecap:round; stroke-linejoin:round;">
</g>
<g style="fill:#840000; fill-opacity:0.0; 
stroke:#840000; stroke-width:500; stroke-opacity:1; 
stroke-linecap:round; stroke-linejoin:round;">
<circle cx="23500" cy="8500" r="500" /> 
</g>
<g style="fill:#840000; fill-opacity:0.0; 
stroke:#840000; stroke-width:60; stroke-opacity:1; 
stroke-linecap:round; stroke-linejoin:round;">
<path d="M23500 9000
L23500 10000
" />
</g>
<g style="fill:#008484; fill-opacity:0.0; 
stroke:#008484; stroke-width:60; stroke-opacity:1; 
stroke-linecap:round; stroke-linejoin:round;">
<text x="25030" y="8780"
textLength="1060" font-size="660" lengthAdjust="spacingAndGlyphs"
text-anchor="middle" opacity="0">H2</text>
<path d="M24640 8750
L24640 8250
" />
<path d="M24640 8490
L24930 8490
" />
<path d="M24930 8750
L24930 8250
" />
<path d="M25140 8300
L25170 8280
L25220 8250
L25330 8250
L25380 8280
L25410 8300
L25430 8350
L25430 8390
L25410 8470
L25120 8750
L25430 8750
" />
<text x="26080" y="9690"
textLength="3160" font-size="660" lengthAdjust="spacingAndGlyphs"
text-anchor="middle" opacity="0">OFF_J20</text>
<path d="M24740 9160
L24840 9160
L24880 9190
L24930 9230
L24960 9330
L24960 9490
L24930 9590
L24880 9640
L24840 9660
L24740 9660
L24690 9640
L24650 9590
L24620 9490
L24620 9330
L24650 9230
L24690 9190
L24740 9160
" />
<path d="M25340 9400
L25170 9400
" />
<path d="M25170 9660
L25170 9160
L25410 9160
" />
<path d="M25770 9400
L25600 9400
" />
<path d="M25600 9660
L25600 9160
L25840 9160
" />
<path d="M25910 9710
L26290 9710
" />
<path d="M26550 9160
L26550 9520
L26530 9590
L26480 9640
L26410 9660
L26360 9660
" />
<path d="M26770 9210
L26790 9190
L26840 9160
L26960 9160
L27000 9190
L27030 9210
L27050 9260
L27050 9300
L27030 9380
L26740 9660
L27050 9660
" />
<path d="M27360 9160
L27410 9160
L27460 9190
L27480 9210
L27500 9260
L27530 9350
L27530 9470
L27500 9570
L27480 9610
L27460 9640
L27410 9660
L27360 9660
L27310 9640
L27290 9610
L27270 9570
L27240 9470
L27240 9350
L27270 9260
L27290 9210
L27310 9190
L27360 9160
" />
</g>
</g>
<g style="fill:#008484; fill-opacity:0.0; 
stroke:#008484; stroke-width:0; stroke-opacity:1; 
stroke-linecap:round; stroke-linejoin:round;">
<g >
</g>
<g style="fill:#840000; fill-opacity:0.0; 
stroke:#840000; stroke-width:0; stroke-opacity:1; 
stroke-linecap:round; stroke-linejoin:round;">
</g>
<g style="fill:#840000; fill-opacity:0.0; 
stroke:#840000; stroke-width:500; stroke-opacity:1; 
stroke-linecap:round; stroke-linejoin:round;">
<circle cx="48500" cy="22000" r="500" /> 
</g>
<g style="fill:#840000; fill-opacity:0.0; 
stroke:#840000; stroke-width:60; stroke-opacity:1; 
stroke-linecap:round; stroke-linejoin:round;">
<path d="M48500 22500
L48500 23500
" />
</g>
<g style="fill:#008484; fill-opacity:0.0; 
stroke:#008484; stroke-width:60; stroke-opacity:1; 
stroke-linecap:round; stroke-linejoin:round;">
<text x="50030" y="22280"
textLength="1060" font-size="660" lengthAdjust="spacingAndGlyphs"
text-anchor="middle" opacity="0">H1</text>
<path d="M49640 22250
L49640 21750
" />
<path d="M49640 21990
L49930 21990
" />
<path d="M49930 22250
L49930 21750
" />
<path d="M50430 22250
L50140 22250
" />
<path d="M50290 22250
L50290 21750
L50240 21820
L50190 21870
L50140 21890
" />
<text x="51170" y="23190"
textLength="3350" font-size="660" lengthAdjust="spacingAndGlyphs"
text-anchor="middle" opacity="0">PWR_J20</text>
<path d="M49640 23160
L49640 22660
L49830 22660
L49880 22690
L49900 22710
L49930 22760
L49930 22830
L49900 22880
L49880 22900
L49830 22920
L49640 22920
" />
<path d="M50090 22660
L50210 23160
L50310 22800
L50400 23160
L50520 22660
" />
<path d="M51000 23160
L50830 22920
" />
<path d="M50710 23160
L50710 22660
L50900 22660
L50950 22690
L50970 22710
L51000 22760
L51000 22830
L50970 22880
L50950 22900
L50900 22920
L50710 22920
" />
<path d="M51090 23210
L51470 23210
" />
<path d="M51740 22660
L51740 23020
L51710 23090
L51670 23140
L51590 23160
L51550 23160
" />
<path d="M51950 22710
L51970 22690
L52020 22660
L52140 22660
L52190 22690
L52210 22710
L52240 22760
L52240 22800
L52210 22880
L51930 23160
L52240 23160
" />
<path d="M52550 22660
L52590 22660
L52640 22690
L52670 22710
L52690 22760
L52710 22850
L52710 22970
L52690 23070
L52670 23110
L52640 23140
L52590 23160
L52550 23160
L52500 23140
L52470 23110
L52450 23070
L52430 22970
L52430 22850
L52450 22760
L52470 22710
L52500 22690
L52550 22660
" />
</g>
</g>
<g style="fill:#008484; fill-opacity:0.0; 
stroke:#008484; stroke-width:0; stroke-opacity:1; 
stroke-linecap:round; stroke-linejoin:round;">
<g >
</g>
<g style="fill:#840000; fill-opacity:0.0; 
stroke:#840000; stroke-width:0; stroke-opacity:1; 
stroke-linecap:round; stroke-linejoin:round;">
</g>
<g style="fill:#840000; fill-opacity:0.0; 
stroke:#840000; stroke-width:500; stroke-opacity:1; 
stroke-linecap:round; stroke-linejoin:round;">
<circle cx="36500" cy="8500" r="500" /> 
</g>
<g style="fill:#840000; fill-opacity:0.0; 
stroke:#840000; stroke-width:60; stroke-opacity:1; 
stroke-linecap:round; stroke-linejoin:round;">
<path d="M36500 9000
L36500 10000
" />
</g>
<g style="fill:#008484; fill-opacity:0.0; 
stroke:#008484; stroke-width:60; stroke-opacity:1; 
stroke-linecap:round; stroke-linejoin:round;">
<text x="38030" y="8780"
textLength="1060" font-size="660" lengthAdjust="spacingAndGlyphs"
text-anchor="middle" opacity="0">H3</text>
<path d="M37640 8750
L37640 8250
" />
<path d="M37640 8490
L37930 8490
" />
<path d="M37930 8750
L37930 8250
" />
<path d="M38120 8250
L38430 8250
L38260 8440
L38330 8440
L38380 8470
L38410 8490
L38430 8540
L38430 8660
L38410 8700
L38380 8730
L38330 8750
L38190 8750
L38140 8730
L38120 8700
" />
<text x="39630" y="9690"
textLength="4270" font-size="660" lengthAdjust="spacingAndGlyphs"
text-anchor="middle" opacity="0">VCC_Jetson</text>
<path d="M37570 9160
L37730 9660
L37900 9160
" />
<path d="M38350 9610
L38330 9640
L38260 9660
L38210 9660
L38140 9640
L38090 9590
L38070 9540
L38040 9450
L38040 9380
L38070 9280
L38090 9230
L38140 9190
L38210 9160
L38260 9160
L38330 9190
L38350 9210
" />
<path d="M38850 9610
L38830 9640
L38760 9660
L38710 9660
L38640 9640
L38590 9590
L38570 9540
L38540 9450
L38540 9380
L38570 9280
L38590 9230
L38640 9190
L38710 9160
L38760 9160
L38830 9190
L38850 9210
" />
<path d="M38950 9710
L39330 9710
" />
<path d="M39590 9160
L39590 9520
L39570 9590
L39520 9640
L39450 9660
L39400 9660
" />
<path d="M40020 9640
L39970 9660
L39880 9660
L39830 9640
L39800 9590
L39800 9400
L39830 9350
L39880 9330
L39970 9330
L40020 9350
L40040 9400
L40040 9450
L39800 9490
" />
<path d="M40180 9330
L40380 9330
" />
<path d="M40260 9160
L40260 9590
L40280 9640
L40330 9660
L40380 9660
" />
<path d="M40520 9640
L40570 9660
L40660 9660
L40710 9640
L40730 9590
L40730 9570
L40710 9520
L40660 9490
L40590 9490
L40540 9470
L40520 9420
L40520 9400
L40540 9350
L40590 9330
L40660 9330
L40710 9350
" />
<path d="M41020 9660
L40970 9640
L40950 9610
L40920 9570
L40920 9420
L40950 9380
L40970 9350
L41020 9330
L41090 9330
L41140 9350
L41160 9380
L41180 9420
L41180 9570
L41160 9610
L41140 9640
L41090 9660
L41020 9660
" />
<path d="M41400 9330
L41400 9660
" />
<path d="M41400 9380
L41420 9350
L41470 9330
L41540 9330
L41590 9350
L41610 9400
L41610 9660
" />
</g>
</g>
<g style="fill:#008484; fill-opacity:0.0; 
stroke:#008484; stroke-width:0; stroke-opacity:1; 
stroke-linecap:round; stroke-linejoin:round;">
<g >
</g>
<g style="fill:#840000; fill-opacity:0.0; 
stroke:#840000; stroke-width:0; stroke-opacity:1; 
stroke-linecap:round; stroke-linejoin:round;">
</g>
<g style="fill:#840000; fill-opacity:0.0; 
stroke:#840000; stroke-width:500; stroke-opacity:1; 
stroke-linecap:round; stroke-linejoin:round;">
<circle cx="47500" cy="16500" r="500" /> 
</g>
<g style="fill:#840000; fill-opacity:0.0; 
stroke:#840000; stroke-width:60; stroke-opacity:1; 
stroke-linecap:round; stroke-linejoin:round;">
<path d="M47500 17000
L47500 18000
" />
</g>
<g style="fill:#008484; fill-opacity:0.0; 
stroke:#008484; stroke-width:60; stroke-opacity:1; 
stroke-linecap:round; stroke-linejoin:round;">
<text x="49030" y="16780"
textLength="1060" font-size="660" lengthAdjust="spacingAndGlyphs"
text-anchor="middle" opacity="0">H4</text>
<path d="M48640 16750
L48640 16250
" />
<path d="M48640 16490
L48930 16490
" />
<path d="M48930 16750
L48930 16250
" />
<path d="M49380 16420
L49380 16750
" />
<path d="M49260 16230
L49140 16580
L49450 16580
" />
<text x="50680" y="17690"
textLength="4370" font-size="660" lengthAdjust="spacingAndGlyphs"
text-anchor="middle" opacity="0">GND_Jetson</text>
<path d="M48900 17190
L48850 17160
L48780 17160
L48710 17190
L48660 17230
L48640 17280
L48620 17380
L48620 17450
L48640 17540
L48660 17590
L48710 17640
L48780 17660
L48830 17660
L48900 17640
L48930 17610
L48930 17450
L48830 17450
" />
<path d="M49140 17660
L49140 17160
L49430 17660
L49430 17160
" />
<path d="M49660 17660
L49660 17160
L49780 17160
L49850 17190
L49900 17230
L49930 17280
L49950 17380
L49950 17450
L49930 17540
L49900 17590
L49850 17640
L49780 17660
L49660 17660
" />
<path d="M50040 17710
L50430 17710
" />
<path d="M50690 17160
L50690 17520
L50660 17590
L50620 17640
L50540 17660
L50500 17660
" />
<path d="M51120 17640
L51070 17660
L50970 17660
L50930 17640
L50900 17590
L50900 17400
L50930 17350
L50970 17330
L51070 17330
L51120 17350
L51140 17400
L51140 17450
L50900 17490
" />
<path d="M51280 17330
L51470 17330
" />
<path d="M51350 17160
L51350 17590
L51380 17640
L51430 17660
L51470 17660
" />
<path d="M51620 17640
L51660 17660
L51760 17660
L51810 17640
L51830 17590
L51830 17570
L51810 17520
L51760 17490
L51690 17490
L51640 17470
L51620 17420
L51620 17400
L51640 17350
L51690 17330
L51760 17330
L51810 17350
" />
<path d="M52120 17660
L52070 17640
L52040 17610
L52020 17570
L52020 17420
L52040 17380
L52070 17350
L52120 17330
L52190 17330
L52230 17350
L52260 17380
L52280 17420
L52280 17570
L52260 17610
L52230 17640
L52190 17660
L52120 17660
" />
<path d="M52500 17330
L52500 17660
" />
<path d="M52500 17380
L52520 17350
L52570 17330
L52640 17330
L52690 17350
L52710 17400
L52710 17660
" />
</g>
</g>
<g style="fill:#008484; fill-opacity:0.0; 
stroke:#008484; stroke-width:0; stroke-opacity:1; 
stroke-linecap:round; stroke-linejoin:round;">
<g >
</g>
<g style="fill:#840000; fill-opacity:0.0; 
stroke:#840000; stroke-width:0; stroke-opacity:1; 
stroke-linecap:round; stroke-linejoin:round;">
</g>
<g style="fill:#840000; fill-opacity:0.0; 
stroke:#840000; stroke-width:100; stroke-opacity:1; 
stroke-linecap:round; stroke-linejoin:round;">
<rect x="26500" y="22100" width="2000" height="800" rx="0" />
</g>
<g style="fill:#840000; fill-opacity:0.0; 
stroke:#840000; stroke-width:60; stroke-opacity:1; 
stroke-linecap:round; stroke-linejoin:round;">
<path d="M28500 22500
L29000 22500
" />
<path d="M26500 22500
L26000 22500
" />
</g>
<g style="fill:#008484; fill-opacity:0.0; 
stroke:#008484; stroke-width:60; stroke-opacity:1; 
stroke-linecap:round; stroke-linejoin:round;">
<text x="27500" y="20700"
textLength="1040" font-size="660" lengthAdjust="spacingAndGlyphs"
text-anchor="middle" opacity="0">R2</text>
<path d="M27410 20670
L27250 20430
" />
<path d="M27130 20670
L27130 20170
L27320 20170
L27360 20200
L27390 20220
L27410 20270
L27410 20340
L27390 20390
L27360 20410
L27320 20430
L27130 20430
" />
<path d="M27600 20220
L27630 20200
L27670 20170
L27790 20170
L27840 20200
L27860 20220
L27890 20270
L27890 20310
L27860 20390
L27580 20670
L27890 20670
" />
<text x="27500" y="21610"
textLength="5010" font-size="660" lengthAdjust="spacingAndGlyphs"
text-anchor="middle" opacity="0">500Ω to 1kΩ</text>
<path d="M25380 21080
L25140 21080
L25110 21320
L25140 21300
L25190 21270
L25300 21270
L25350 21300
L25380 21320
L25400 21370
L25400 21490
L25380 21530
L25350 21560
L25300 21580
L25190 21580
L25140 21560
L25110 21530
" />
<path d="M25710 21080
L25760 21080
L25800 21110
L25830 21130
L25850 21180
L25880 21270
L25880 21390
L25850 21490
L25830 21530
L25800 21560
L25760 21580
L25710 21580
L25660 21560
L25640 21530
L25610 21490
L25590 21390
L25590 21270
L25610 21180
L25640 21130
L25660 21110
L25710 21080
" />
<path d="M26190 21080
L26230 21080
L26280 21110
L26300 21130
L26330 21180
L26350 21270
L26350 21390
L26330 21490
L26300 21530
L26280 21560
L26230 21580
L26190 21580
L26140 21560
L26110 21530
L26090 21490
L26070 21390
L26070 21270
L26090 21180
L26110 21130
L26140 21110
L26190 21080
" />
<path d="M26540 21580
L26660 21580
L26660 21490
L26610 21460
L26570 21410
L26540 21340
L26540 21220
L26570 21150
L26610 21110
L26690 21080
L26780 21080
L26850 21110
L26900 21150
L26920 21220
L26920 21340
L26900 21410
L26850 21460
L26800 21490
L26800 21580
L26920 21580
" />
<path d="M27450 21250
L27640 21250
" />
<path d="M27520 21080
L27520 21510
L27540 21560
L27590 21580
L27640 21580
" />
<path d="M27880 21580
L27830 21560
L27800 21530
L27780 21490
L27780 21340
L27800 21300
L27830 21270
L27880 21250
L27950 21250
L28000 21270
L28020 21300
L28040 21340
L28040 21490
L28020 21530
L28000 21560
L27950 21580
L27880 21580
" />
<path d="M28900 21580
L28610 21580
" />
<path d="M28760 21580
L28760 21080
L28710 21150
L28660 21200
L28610 21220
" />
<path d="M29110 21580
L29110 21080
" />
<path d="M29160 21390
L29300 21580
" />
<path d="M29300 21250
L29110 21440
" />
<path d="M29500 21580
L29610 21580
L29610 21490
L29570 21460
L29520 21410
L29500 21340
L29500 21220
L29520 21150
L29570 21110
L29640 21080
L29730 21080
L29800 21110
L29850 21150
L29880 21220
L29880 21340
L29850 21410
L29800 21460
L29760 21490
L29760 21580
L29880 21580
" />
</g>
</g>
<g style="fill:#008484; fill-opacity:0.0; 
stroke:#008484; stroke-width:0; stroke-opacity:1; 
stroke-linecap:round; stroke-linejoin:round;">
<g >
</g>
<g style="fill:#840000; fill-opacity:0.0; 
stroke:#840000; stroke-width:0; stroke-opacity:1; 
stroke-linecap:round; stroke-linejoin:round;">
</g>
<g style="fill:#840000; fill-opacity:0.0; 
stroke:#840000; stroke-width:100; stroke-opacity:1; 
stroke-linecap:round; stroke-linejoin:round;">
<rect x="17100" y="11000" width="800" height="2000" rx="0" />
</g>
<g style="fill:#840000; fill-opacity:0.0; 
stroke:#840000; stroke-width:60; stroke-opacity:1; 
stroke-linecap:round; stroke-linejoin:round;">
<path d="M17500 13000
L17500 13500
" />
<path d="M17500 11000
L17500 10500
" />
</g>
<g style="fill:#008484; fill-opacity:0.0; 
stroke:#008484; stroke-width:60; stroke-opacity:1; 
stroke-linecap:round; stroke-linejoin:round;">
<text x="18720" y="11760"
textLength="1040" font-size="660" lengthAdjust="spacingAndGlyphs"
text-anchor="middle" opacity="0">R1</text>
<path d="M18630 11730
L18470 11490
" />
<path d="M18350 11730
L18350 11230
L18540 11230
L18580 11260
L18610 11280
L18630 11330
L18630 11400
L18610 11450
L18580 11470
L18540 11490
L18350 11490
" />
<path d="M19110 11730
L18820 11730
" />
<path d="M18970 11730
L18970 11230
L18920 11300
L18870 11350
L18820 11370
" />
<text x="19230" y="12670"
textLength="2060" font-size="660" lengthAdjust="spacingAndGlyphs"
text-anchor="middle" opacity="0">200Ω</text>
<path d="M18320 12190
L18340 12170
L18390 12140
L18510 12140
L18560 12170
L18580 12190
L18610 12240
L18610 12280
L18580 12360
L18300 12640
L18610 12640
" />
<path d="M18920 12140
L18960 12140
L19010 12170
L19030 12190
L19060 12240
L19080 12330
L19080 12450
L19060 12550
L19030 12590
L19010 12620
L18960 12640
L18920 12640
L18870 12620
L18840 12590
L18820 12550
L18800 12450
L18800 12330
L18820 12240
L18840 12190
L18870 12170
L18920 12140
" />
<path d="M19390 12140
L19440 12140
L19490 12170
L19510 12190
L19530 12240
L19560 12330
L19560 12450
L19530 12550
L19510 12590
L19490 12620
L19440 12640
L19390 12640
L19340 12620
L19320 12590
L19300 12550
L19270 12450
L19270 12330
L19300 12240
L19320 12190
L19340 12170
L19390 12140
" />
<path d="M19750 12640
L19870 12640
L19870 12550
L19820 12520
L19770 12470
L19750 12400
L19750 12280
L19770 12210
L19820 12170
L19890 12140
L19990 12140
L20060 12170
L20110 12210
L20130 12280
L20130 12400
L20110 12470
L20060 12520
L20010 12550
L20010 12640
L20130 12640
" />
</g>
</g>
<g style="fill:#008484; fill-opacity:0.0; 
stroke:#008484; stroke-width:0; stroke-opacity:1; 
stroke-linecap:round; stroke-linejoin:round;">
<g >
</g>
<g style="fill:#840000; fill-opacity:0.0; 
stroke:#840000; stroke-width:0; stroke-opacity:1; 
stroke-linecap:round; stroke-linejoin:round;">
</g>
<g style="fill:#FFFFC2; fill-opacity:0.0; 
stroke:#FFFFC2; stroke-width:0; stroke-opacity:1; 
stroke-linecap:round; stroke-linejoin:round;">
</g>
<g style="fill:#FFFFC2; fill-opacity:0.6; 
stroke:#FFFFC2; stroke-width:0; stroke-opacity:1; 
stroke-linecap:round; stroke-linejoin:round;">
<rect x="12500" y="17500" width="10000" height="10000" rx="0" />
</g>
<g style="fill:#840000; fill-opacity:0.6; 
stroke:#840000; stroke-width:0; stroke-opacity:1; 
stroke-linecap:round; stroke-linejoin:round;">
</g>
<g style="fill:#840000; fill-opacity:0.0; 
stroke:#840000; stroke-width:100; stroke-opacity:1; 
stroke-linecap:round; stroke-linejoin:round;">
<rect x="12500" y="17500" width="10000" height="10000" rx="0" />
<rect x="12500" y="17500" width="10000" height="10000" rx="0" />
</g>
<g style="fill:#840000; fill-opacity:0.0; 
stroke:#840000; stroke-width:60; stroke-opacity:1; 
stroke-linecap:round; stroke-linejoin:round;">
<path d="M22500 24500
L23500 24500
" />
</g>
<g style="fill:#008484; fill-opacity:0.0; 
stroke:#008484; stroke-width:60; stroke-opacity:1; 
stroke-linecap:round; stroke-linejoin:round;">
<text x="22300" y="24750"
textLength="4320" font-size="660" lengthAdjust="spacingAndGlyphs"
text-anchor="end" opacity="0">~RESET~/PB5</text>
<path d="M18000 24080
L18500 24080
" />
<path d="M18410 24720
L18240 24480
" />
<path d="M18120 24720
L18120 24220
L18310 24220
L18360 24250
L18380 24270
L18410 24320
L18410 24390
L18380 24440
L18360 24460
L18310 24480
L18120 24480
" />
<path d="M18500 24080
L18960 24080
" />
<path d="M18620 24460
L18790 24460
" />
<path d="M18860 24720
L18620 24720
L18620 24220
L18860 24220
" />
<path d="M18960 24080
L19430 24080
" />
<path d="M19050 24700
L19120 24720
L19240 24720
L19290 24700
L19310 24670
L19340 24630
L19340 24580
L19310 24530
L19290 24510
L19240 24480
L19150 24460
L19100 24440
L19070 24410
L19050 24360
L19050 24320
L19070 24270
L19100 24250
L19150 24220
L19270 24220
L19340 24250
" />
<path d="M19430 24080
L19880 24080
" />
<path d="M19550 24460
L19720 24460
" />
<path d="M19790 24720
L19550 24720
L19550 24220
L19790 24220
" />
<path d="M19880 24080
L20270 24080
" />
<path d="M19930 24220
L20220 24220
" />
<path d="M20070 24720
L20070 24220
" />
<path d="M20740 24200
L20310 24840
" />
<path d="M20910 24720
L20910 24220
L21100 24220
L21150 24250
L21170 24270
L21190 24320
L21190 24390
L21170 24440
L21150 24460
L21100 24480
L20910 24480
" />
<path d="M21570 24460
L21650 24480
L21670 24510
L21690 24550
L21690 24630
L21670 24670
L21650 24700
L21600 24720
L21410 24720
L21410 24220
L21570 24220
L21620 24250
L21650 24270
L21670 24320
L21670 24360
L21650 24410
L21620 24440
L21570 24460
L21410 24460
" />
<path d="M22150 24220
L21910 24220
L21880 24460
L21910 24440
L21960 24410
L22070 24410
L22120 24440
L22150 24460
L22170 24510
L22170 24630
L22150 24670
L22120 24700
L22070 24720
L21960 24720
L21910 24700
L21880 24670
" />
</g>
<g style="fill:#840000; fill-opacity:0.0; 
stroke:#840000; stroke-width:60; stroke-opacity:1; 
stroke-linecap:round; stroke-linejoin:round;">
<text x="23000" y="24400"
textLength="540" font-size="660" lengthAdjust="spacingAndGlyphs"
text-anchor="middle" opacity="0">1</text>
<path d="M23140 24370
L22850 24370
" />
<path d="M23000 24370
L23000 23870
L22950 23940
L22900 23990
L22850 24010
" />
<path d="M22500 22500
L23500 22500
" />
</g>
<g style="fill:#008484; fill-opacity:0.0; 
stroke:#008484; stroke-width:60; stroke-opacity:1; 
stroke-linecap:round; stroke-linejoin:round;">
<text x="22300" y="22750"
textLength="4230" font-size="660" lengthAdjust="spacingAndGlyphs"
text-anchor="end" opacity="0">XTAL1/PB3</text>
<path d="M18170 22220
L18500 22720
" />
<path d="M18500 22220
L18170 22720
" />
<path d="M18620 22220
L18910 22220
" />
<path d="M18770 22720
L18770 22220
" />
<path d="M19050 22580
L19290 22580
" />
<path d="M19000 22720
L19170 22220
L19340 22720
" />
<path d="M19740 22720
L19500 22720
L19500 22220
" />
<path d="M20170 22720
L19880 22720
" />
<path d="M20030 22720
L20030 22220
L19980 22290
L19930 22340
L19880 22360
" />
<path d="M20740 22200
L20310 22840
" />
<path d="M20910 22720
L20910 22220
L21100 22220
L21150 22250
L21170 22270
L21190 22320
L21190 22390
L21170 22440
L21150 22460
L21100 22480
L20910 22480
" />
<path d="M21570 22460
L21650 22480
L21670 22510
L21690 22550
L21690 22630
L21670 22670
L21650 22700
L21600 22720
L21410 22720
L21410 22220
L21570 22220
L21620 22250
L21650 22270
L21670 22320
L21670 22360
L21650 22410
L21620 22440
L21570 22460
L21410 22460
" />
<path d="M21860 22220
L22170 22220
L22000 22410
L22070 22410
L22120 22440
L22150 22460
L22170 22510
L22170 22630
L22150 22670
L22120 22700
L22070 22720
L21930 22720
L21880 22700
L21860 22670
" />
</g>
<g style="fill:#840000; fill-opacity:0.0; 
stroke:#840000; stroke-width:60; stroke-opacity:1; 
stroke-linecap:round; stroke-linejoin:round;">
<text x="23000" y="22400"
textLength="540" font-size="660" lengthAdjust="spacingAndGlyphs"
text-anchor="middle" opacity="0">2</text>
<path d="M22850 21920
L22880 21900
L22920 21870
L23040 21870
L23090 21900
L23110 21920
L23140 21970
L23140 22010
L23110 22090
L22830 22370
L23140 22370
" />
<path d="M22500 23500
L23500 23500
" />
</g>
<g style="fill:#008484; fill-opacity:0.0; 
stroke:#008484; stroke-width:60; stroke-opacity:1; 
stroke-linecap:round; stroke-linejoin:round;">
<text x="22300" y="23750"
textLength="4230" font-size="660" lengthAdjust="spacingAndGlyphs"
text-anchor="end" opacity="0">XTAL2/PB4</text>
<path d="M18170 23220
L18500 23720
" />
<path d="M18500 23220
L18170 23720
" />
<path d="M18620 23220
L18910 23220
" />
<path d="M18770 23720
L18770 23220
" />
<path d="M19050 23580
L19290 23580
" />
<path d="M19000 23720
L19170 23220
L19340 23720
" />
<path d="M19740 23720
L19500 23720
L19500 23220
" />
<path d="M19880 23270
L19910 23250
L19960 23220
L20070 23220
L20120 23250
L20150 23270
L20170 23320
L20170 23360
L20150 23440
L19860 23720
L20170 23720
" />
<path d="M20740 23200
L20310 23840
" />
<path d="M20910 23720
L20910 23220
L21100 23220
L21150 23250
L21170 23270
L21190 23320
L21190 23390
L21170 23440
L21150 23460
L21100 23480
L20910 23480
" />
<path d="M21570 23460
L21650 23480
L21670 23510
L21690 23550
L21690 23630
L21670 23670
L21650 23700
L21600 23720
L21410 23720
L21410 23220
L21570 23220
L21620 23250
L21650 23270
L21670 23320
L21670 23360
L21650 23410
L21620 23440
L21570 23460
L21410 23460
" />
<path d="M22120 23390
L22120 23720
" />
<path d="M22000 23200
L21880 23550
L22190 23550
" />
</g>
<g style="fill:#840000; fill-opacity:0.0; 
stroke:#840000; stroke-width:60; stroke-opacity:1; 
stroke-linecap:round; stroke-linejoin:round;">
<text x="23000" y="23400"
textLength="540" font-size="660" lengthAdjust="spacingAndGlyphs"
text-anchor="middle" opacity="0">3</text>
<path d="M22830 22870
L23140 22870
L22970 23060
L23040 23060
L23090 23090
L23110 23110
L23140 23160
L23140 23280
L23110 23320
L23090 23350
L23040 23370
L22900 23370
L22850 23350
L22830 23320
" />
<path d="M17500 27500
L17500 28500
" />
</g>
<g style="fill:#008484; fill-opacity:0.0; 
stroke:#008484; stroke-width:60; stroke-opacity:1; 
stroke-linecap:round; stroke-linejoin:round;">
<g transform="rotate(-90 17500 27300)">
<text x="17500" y="27550"
textLength="1580" font-size="660" lengthAdjust="spacingAndGlyphs"
text-anchor="start" opacity="0">GND</text>
</g>
<path d="M17250 26880
L17220 26930
L17220 27000
L17250 27070
L17290 27120
L17340 27150
L17440 27170
L17510 27170
L17600 27150
L17650 27120
L17700 27070
L17720 27000
L17720 26960
L17700 26880
L17670 26860
L17510 26860
L17510 26960
" />
<path d="M17720 26650
L17220 26650
L17720 26360
L17220 26360
" />
<path d="M17720 26120
L17220 26120
L17220 26000
L17250 25930
L17290 25880
L17340 25860
L17440 25840
L17510 25840
L17600 25860
L17650 25880
L17700 25930
L17720 26000
L17720 26120
" />
</g>
<g style="fill:#840000; fill-opacity:0.0; 
stroke:#840000; stroke-width:60; stroke-opacity:1; 
stroke-linecap:round; stroke-linejoin:round;">
<g transform="rotate(-90 17400 28000)">
<text x="17400" y="28000"
textLength="540" font-size="660" lengthAdjust="spacingAndGlyphs"
text-anchor="middle" opacity="0">4</text>
</g>
<path d="M17040 27900
L17370 27900
" />
<path d="M16850 28020
L17200 28140
L17200 27830
" />
<path d="M22500 19500
L23500 19500
" />
</g>
<g style="fill:#008484; fill-opacity:0.0; 
stroke:#008484; stroke-width:60; stroke-opacity:1; 
stroke-linecap:round; stroke-linejoin:round;">
<text x="22300" y="19750"
textLength="3870" font-size="660" lengthAdjust="spacingAndGlyphs"
text-anchor="end" opacity="0">AREF/PB0</text>
<path d="M18550 19580
L18790 19580
" />
<path d="M18500 19720
L18670 19220
L18840 19720
" />
<path d="M19290 19720
L19120 19480
" />
<path d="M19000 19720
L19000 19220
L19190 19220
L19240 19250
L19270 19270
L19290 19320
L19290 19390
L19270 19440
L19240 19460
L19190 19480
L19000 19480
" />
<path d="M19500 19460
L19670 19460
" />
<path d="M19740 19720
L19500 19720
L19500 19220
L19740 19220
" />
<path d="M20120 19460
L19960 19460
" />
<path d="M19960 19720
L19960 19220
L20190 19220
" />
<path d="M20740 19200
L20310 19840
" />
<path d="M20910 19720
L20910 19220
L21100 19220
L21150 19250
L21170 19270
L21190 19320
L21190 19390
L21170 19440
L21150 19460
L21100 19480
L20910 19480
" />
<path d="M21570 19460
L21650 19480
L21670 19510
L21690 19550
L21690 19630
L21670 19670
L21650 19700
L21600 19720
L21410 19720
L21410 19220
L21570 19220
L21620 19250
L21650 19270
L21670 19320
L21670 19360
L21650 19410
L21620 19440
L21570 19460
L21410 19460
" />
<path d="M22000 19220
L22050 19220
L22100 19250
L22120 19270
L22150 19320
L22170 19410
L22170 19530
L22150 19630
L22120 19670
L22100 19700
L22050 19720
L22000 19720
L21960 19700
L21930 19670
L21910 19630
L21880 19530
L21880 19410
L21910 19320
L21930 19270
L21960 19250
L22000 19220
" />
</g>
<g style="fill:#840000; fill-opacity:0.0; 
stroke:#840000; stroke-width:60; stroke-opacity:1; 
stroke-linecap:round; stroke-linejoin:round;">
<text x="23000" y="19400"
textLength="540" font-size="660" lengthAdjust="spacingAndGlyphs"
text-anchor="middle" opacity="0">5</text>
<path d="M23110 18870
L22880 18870
L22850 19110
L22880 19090
L22920 19060
L23040 19060
L23090 19090
L23110 19110
L23140 19160
L23140 19280
L23110 19320
L23090 19350
L23040 19370
L22920 19370
L22880 19350
L22850 19320
" />
<path d="M22500 20500
L23500 20500
" />
</g>
<g style="fill:#008484; fill-opacity:0.0; 
stroke:#008484; stroke-width:60; stroke-opacity:1; 
stroke-linecap:round; stroke-linejoin:round;">
<text x="22300" y="20750"
textLength="1540" font-size="660" lengthAdjust="spacingAndGlyphs"
text-anchor="end" opacity="0">PB1</text>
<path d="M20910 20720
L20910 20220
L21100 20220
L21150 20250
L21170 20270
L21190 20320
L21190 20390
L21170 20440
L21150 20460
L21100 20480
L20910 20480
" />
<path d="M21570 20460
L21650 20480
L21670 20510
L21690 20550
L21690 20630
L21670 20670
L21650 20700
L21600 20720
L21410 20720
L21410 20220
L21570 20220
L21620 20250
L21650 20270
L21670 20320
L21670 20360
L21650 20410
L21620 20440
L21570 20460
L21410 20460
" />
<path d="M22170 20720
L21880 20720
" />
<path d="M22030 20720
L22030 20220
L21980 20290
L21930 20340
L21880 20360
" />
</g>
<g style="fill:#840000; fill-opacity:0.0; 
stroke:#840000; stroke-width:60; stroke-opacity:1; 
stroke-linecap:round; stroke-linejoin:round;">
<text x="23000" y="20400"
textLength="540" font-size="660" lengthAdjust="spacingAndGlyphs"
text-anchor="middle" opacity="0">6</text>
<path d="M23090 19870
L23000 19870
L22950 19900
L22920 19920
L22880 19990
L22850 20090
L22850 20280
L22880 20320
L22900 20350
L22950 20370
L23040 20370
L23090 20350
L23110 20320
L23140 20280
L23140 20160
L23110 20110
L23090 20090
L23040 20060
L22950 20060
L22900 20090
L22880 20110
L22850 20160
" />
<path d="M22500 21500
L23500 21500
" />
</g>
<g style="fill:#008484; fill-opacity:0.0; 
stroke:#008484; stroke-width:60; stroke-opacity:1; 
stroke-linecap:round; stroke-linejoin:round;">
<text x="22300" y="21750"
textLength="1540" font-size="660" lengthAdjust="spacingAndGlyphs"
text-anchor="end" opacity="0">PB2</text>
<path d="M20910 21720
L20910 21220
L21100 21220
L21150 21250
L21170 21270
L21190 21320
L21190 21390
L21170 21440
L21150 21460
L21100 21480
L20910 21480
" />
<path d="M21570 21460
L21650 21480
L21670 21510
L21690 21550
L21690 21630
L21670 21670
L21650 21700
L21600 21720
L21410 21720
L21410 21220
L21570 21220
L21620 21250
L21650 21270
L21670 21320
L21670 21360
L21650 21410
L21620 21440
L21570 21460
L21410 21460
" />
<path d="M21880 21270
L21910 21250
L21960 21220
L22070 21220
L22120 21250
L22150 21270
L22170 21320
L22170 21360
L22150 21440
L21860 21720
L22170 21720
" />
</g>
<g style="fill:#840000; fill-opacity:0.0; 
stroke:#840000; stroke-width:60; stroke-opacity:1; 
stroke-linecap:round; stroke-linejoin:round;">
<text x="23000" y="21400"
textLength="540" font-size="660" lengthAdjust="spacingAndGlyphs"
text-anchor="middle" opacity="0">7</text>
<path d="M22830 20870
L23160 20870
L22950 21370
" />
<path d="M17500 17500
L17500 16500
" />
</g>
<g style="fill:#008484; fill-opacity:0.0; 
stroke:#008484; stroke-width:60; stroke-opacity:1; 
stroke-linecap:round; stroke-linejoin:round;">
<g transform="rotate(-90 17500 17700)">
<text x="17500" y="17950"
textLength="1490" font-size="660" lengthAdjust="spacingAndGlyphs"
text-anchor="end" opacity="0">VCC</text>
</g>
<path d="M17220 19110
L17720 18940
L17220 18770
" />
<path d="M17670 18320
L17700 18340
L17720 18420
L17720 18460
L17700 18530
L17650 18580
L17600 18610
L17510 18630
L17440 18630
L17340 18610
L17290 18580
L17250 18530
L17220 18460
L17220 18420
L17250 18340
L17270 18320
" />
<path d="M17670 17820
L17700 17840
L17720 17920
L17720 17960
L17700 18030
L17650 18080
L17600 18110
L17510 18130
L17440 18130
L17340 18110
L17290 18080
L17250 18030
L17220 17960
L17220 17920
L17250 17840
L17270 17820
" />
</g>
<g style="fill:#840000; fill-opacity:0.0; 
stroke:#840000; stroke-width:60; stroke-opacity:1; 
stroke-linecap:round; stroke-linejoin:round;">
<g transform="rotate(-90 17400 17000)">
<text x="17400" y="17000"
textLength="540" font-size="660" lengthAdjust="spacingAndGlyphs"
text-anchor="middle" opacity="0">8</text>
</g>
<path d="M17090 17040
L17060 17090
L17040 17110
L16990 17140
L16970 17140
L16920 17110
L16900 17090
L16870 17040
L16870 16950
L16900 16900
L16920 16880
L16970 16850
L16990 16850
L17040 16880
L17060 16900
L17090 16950
L17090 17040
L17110 17090
L17130 17110
L17180 17140
L17280 17140
L17320 17110
L17350 17090
L17370 17040
L17370 16950
L17350 16900
L17320 16880
L17280 16850
L17180 16850
L17130 16880
L17110 16900
L17090 16950
" />
</g>
<g style="fill:#008484; fill-opacity:0.0; 
stroke:#008484; stroke-width:60; stroke-opacity:1; 
stroke-linecap:round; stroke-linejoin:round;">
<text x="11680" y="22310"
textLength="1060" font-size="660" lengthAdjust="spacingAndGlyphs"
text-anchor="middle" opacity="0">U1</text>
<path d="M11290 21780
L11290 22190
L11320 22230
L11340 22260
L11390 22280
L11480 22280
L11530 22260
L11560 22230
L11580 22190
L11580 21780
" />
<path d="M12080 22280
L11790 22280
" />
<path d="M11940 22280
L11940 21780
L11890 21850
L11840 21900
L11790 21920
" />
<text x="9320" y="23220"
textLength="5770" font-size="660" lengthAdjust="spacingAndGlyphs"
text-anchor="middle" opacity="0">ATtiny85-20PU</text>
<path d="M6550 23050
L6790 23050
" />
<path d="M6510 23190
L6670 22690
L6840 23190
" />
<path d="M6930 22690
L7220 22690
" />
<path d="M7080 23190
L7080 22690
" />
<path d="M7310 22860
L7510 22860
" />
<path d="M7390 22690
L7390 23120
L7410 23170
L7460 23190
L7510 23190
" />
<path d="M7670 23190
L7670 22860
" />
<path d="M7670 22690
L7650 22720
L7670 22740
L7700 22720
L7670 22690
L7670 22740
" />
<path d="M7910 22860
L7910 23190
" />
<path d="M7910 22910
L7930 22880
L7980 22860
L8050 22860
L8100 22880
L8120 22930
L8120 23190
" />
<path d="M8310 22860
L8430 23190
" />
<path d="M8550 22860
L8430 23190
L8390 23310
L8360 23330
L8310 23360
" />
<path d="M8810 22910
L8770 22880
L8740 22860
L8720 22810
L8720 22790
L8740 22740
L8770 22720
L8810 22690
L8910 22690
L8960 22720
L8980 22740
L9010 22790
L9010 22810
L8980 22860
L8960 22880
L8910 22910
L8810 22910
L8770 22930
L8740 22950
L8720 23000
L8720 23100
L8740 23140
L8770 23170
L8810 23190
L8910 23190
L8960 23170
L8980 23140
L9010 23100
L9010 23000
L8980 22950
L8960 22930
L8910 22910
" />
<path d="M9460 22690
L9220 22690
L9200 22930
L9220 22910
L9270 22880
L9390 22880
L9430 22910
L9460 22930
L9480 22980
L9480 23100
L9460 23140
L9430 23170
L9390 23190
L9270 23190
L9220 23170
L9200 23140
" />
<path d="M9700 23000
L10080 23000
" />
<path d="M10290 22740
L10320 22720
L10360 22690
L10480 22690
L10530 22720
L10550 22740
L10580 22790
L10580 22830
L10550 22910
L10270 23190
L10580 23190
" />
<path d="M10890 22690
L10930 22690
L10980 22720
L11010 22740
L11030 22790
L11050 22880
L11050 23000
L11030 23100
L11010 23140
L10980 23170
L10930 23190
L10890 23190
L10840 23170
L10820 23140
L10790 23100
L10770 23000
L10770 22880
L10790 22790
L10820 22740
L10840 22720
L10890 22690
" />
<path d="M11270 23190
L11270 22690
L11460 22690
L11510 22720
L11530 22740
L11550 22790
L11550 22860
L11530 22910
L11510 22930
L11460 22950
L11270 22950
" />
<path d="M11770 22690
L11770 23100
L11790 23140
L11810 23170
L11860 23190
L11960 23190
L12010 23170
L12030 23140
L12050 23100
L12050 22690
" />
</g>
</g>
<g style="fill:#008484; fill-opacity:0.0; 
stroke:#008484; stroke-width:60; stroke-opacity:1; 
stroke-linecap:round; stroke-linejoin:round;">
</g>
<g style="fill:#008400; fill-opacity:0.0; 
stroke:#008400; stroke-width:60; stroke-opacity:1; 
stroke-linecap:round; stroke-linejoin:round;">
<path d="M40000 16500
L40000 17500
" />
<path d="M40000 22500
L40000 28000
" />
<path d="M47500 18000
L40000 18000
" />
<path d="M40000 18000
L40000 22500
" />
<path d="M43000 13500
L45000 13500
" />
<path d="M45000 13500
L45000 20000
" />
<path d="M45000 23000
L45000 23500
" />
<path d="M48500 23500
L45000 23500
" />
<path d="M17500 10500
L43000 10500
" />
<path d="M43000 10500
L43000 13500
" />
<path d="M45000 23500
L45000 24000
" />
<path d="M31000 26000
L42000 26000
" />
<path d="M40000 28000
L45000 28000
" />
<path d="M40000 28000
L40000 28500
" />
<path d="M17500 16500
L17500 13500
" />
<path d="M35500 17500
L40000 17500
" />
<path d="M23500 23500
L28000 26000
" />
<path d="M23500 22500
L26000 22500
" />
<path d="M23500 19500
L23500 10000
" />
<path d="M36500 10000
L36500 13500
" />
<path d="M36500 13500
L37000 13500
" />
<path d="M43000 13500
L43000 14500
" />
<path d="M40000 16000
L40000 16500
" />
<path d="M35000 22500
L40000 22500
" />
<path d="M40000 17500
L40000 18000
" />
<path d="M43000 17500
L40000 17500
" />
<path d="M35500 14500
L35500 13500
" />
<path d="M35500 13500
L36500 13500
" />
<path d="M32000 22500
L29000 22500
" />
<path d="M17500 28500
L40000 28500
" />
</g>
<g style="fill:#008400; fill-opacity:0.0; 
stroke:#008400; stroke-width:0; stroke-opacity:1; 
stroke-linecap:round; stroke-linejoin:round;">
</g>
<g style="fill:#008400; fill-opacity:1.0; 
stroke:#008400; stroke-width:100; stroke-opacity:1; 
stroke-linecap:round; stroke-linejoin:round;">
<circle cx="45000" cy="23500" r="200" /> 
</g>
<g style="fill:#008400; fill-opacity:1.0; 
stroke:#008400; stroke-width:0; stroke-opacity:1; 
stroke-linecap:round; stroke-linejoin:round;">
</g>
<g style="fill:#008400; fill-opacity:1.0; 
stroke:#008400; stroke-width:100; stroke-opacity:1; 
stroke-linecap:round; stroke-linejoin:round;">
<circle cx="40000" cy="22500" r="200" /> 
</g>
<g style="fill:#008400; fill-opacity:1.0; 
stroke:#008400; stroke-width:0; stroke-opacity:1; 
stroke-linecap:round; stroke-linejoin:round;">
</g>
<g style="fill:#008400; fill-opacity:1.0; 
stroke:#008400; stroke-width:100; stroke-opacity:1; 
stroke-linecap:round; stroke-linejoin:round;">
<circle cx="40000" cy="16500" r="200" /> 
</g>
<g style="fill:#008400; fill-opacity:1.0; 
stroke:#008400; stroke-width:0; stroke-opacity:1; 
stroke-linecap:round; stroke-linejoin:round;">
</g>
<g style="fill:#008400; fill-opacity:1.0; 
stroke:#008400; stroke-width:100; stroke-opacity:1; 
stroke-linecap:round; stroke-linejoin:round;">
<circle cx="40000" cy="28000" r="200" /> 
</g>
<g style="fill:#008400; fill-opacity:1.0; 
stroke:#008400; stroke-width:0; stroke-opacity:1; 
stroke-linecap:round; stroke-linejoin:round;">
</g>
<g style="fill:#008400; fill-opacity:1.0; 
stroke:#008400; stroke-width:100; stroke-opacity:1; 
stroke-linecap:round; stroke-linejoin:round;">
<circle cx="40000" cy="17500" r="200" /> 
</g>
<g style="fill:#008400; fill-opacity:1.0; 
stroke:#008400; stroke-width:0; stroke-opacity:1; 
stroke-linecap:round; stroke-linejoin:round;">
</g>
<g style="fill:#008400; fill-opacity:1.0; 
stroke:#008400; stroke-width:100; stroke-opacity:1; 
stroke-linecap:round; stroke-linejoin:round;">
<circle cx="40000" cy="18000" r="200" /> 
</g>
<g style="fill:#008400; fill-opacity:1.0; 
stroke:#008400; stroke-width:0; stroke-opacity:1; 
stroke-linecap:round; stroke-linejoin:round;">
</g>
<g style="fill:#008400; fill-opacity:1.0; 
stroke:#008400; stroke-width:100; stroke-opacity:1; 
stroke-linecap:round; stroke-linejoin:round;">
<circle cx="36500" cy="13500" r="200" /> 
</g>
<g style="fill:#008400; fill-opacity:1.0; 
stroke:#008400; stroke-width:0; stroke-opacity:1; 
stroke-linecap:round; stroke-linejoin:round;">
</g>
<g style="fill:#008400; fill-opacity:1.0; 
stroke:#008400; stroke-width:100; stroke-opacity:1; 
stroke-linecap:round; stroke-linejoin:round;">
<circle cx="43000" cy="13500" r="200" /> 
</g> 
</svg>
